<!-- <?xml version="1.0" encoding="UTF-8" standalone="no"?>
<!DOCTYPE svg PUBLIC "-//W3C//DTD SVG 1.1//EN" "http://www.w3.org/Graphics/SVG/1.1/DTD/svg11.dtd"> -->
<svg version="1.1" xmlns="http://www.w3.org/2000/svg" xmlns:xlink="http://www.w3.org/1999/xlink" preserveAspectRatio="xMidYMid meet" viewBox="0 0 250 250" width="250" height="250"><defs><path d="" id="a23El5aJZH"></path><path d="" id="a32B1DIarh"></path><path d="M194.86 30.38L195 30.45L195.13 30.52L195.26 30.6L195.38 30.69L195.5 30.78L195.62 30.87L195.73 30.97L195.84 31.07L195.94 31.17L196.04 31.28L196.13 31.39L196.22 31.51L196.31 31.63L196.39 31.75L196.46 31.88L196.54 32L196.6 32.13L196.66 32.27L196.72 32.4L196.77 32.54L196.81 32.68L196.85 32.82L196.89 32.97L196.92 33.11L196.94 33.26L196.96 33.4L196.97 33.55L196.98 33.7L196.98 33.85L196.97 34L196.96 34.15L196.95 34.31L196.93 34.46L196.9 34.61L196.86 34.76L196.82 34.91L196.77 35.06L196.72 35.21L169.13 107.27L239.6 134.25L239.74 134.31L239.88 134.37L240.02 134.44L240.15 134.52L240.28 134.59L240.4 134.68L240.52 134.77L240.64 134.86L240.75 134.96L240.86 135.06L240.96 135.16L241.06 135.27L241.16 135.38L241.24 135.5L241.33 135.62L241.41 135.74L241.49 135.87L241.56 136L241.62 136.13L241.68 136.26L241.74 136.39L241.79 136.53L241.83 136.67L241.87 136.81L241.91 136.96L241.94 137.1L241.96 137.25L241.98 137.4L241.99 137.54L242 137.69L242 137.84L242 137.99L241.99 138.15L241.97 138.3L241.95 138.45L241.92 138.6L241.88 138.75L241.84 138.9L241.79 139.05L241.74 139.2L219.67 196.85L219.61 196.99L219.54 197.14L219.47 197.28L219.4 197.41L219.32 197.54L219.23 197.67L219.14 197.8L219.05 197.92L218.95 198.03L218.85 198.14L218.75 198.25L218.64 198.35L218.53 198.45L218.41 198.54L218.29 198.63L218.17 198.71L218.05 198.79L217.92 198.87L217.79 198.93L217.66 199L217.52 199.06L217.39 199.11L217.25 199.16L217.11 199.2L216.97 199.24L216.83 199.27L216.68 199.3L216.54 199.32L216.39 199.33L216.24 199.34L216.1 199.34L215.95 199.34L215.8 199.33L215.65 199.32L215.5 199.3L215.35 199.27L215.2 199.24L215.06 199.2L214.91 199.15L214.76 199.1L144.29 172.12L116.7 244.17L116.64 244.32L116.58 244.46L116.51 244.6L116.43 244.74L116.35 244.87L116.27 245L116.18 245.12L116.09 245.24L115.99 245.36L115.89 245.47L115.78 245.57L115.68 245.68L115.56 245.77L115.45 245.87L115.33 245.95L115.21 246.04L115.08 246.12L114.96 246.19L114.83 246.26L114.7 246.32L114.56 246.38L114.42 246.43L114.29 246.48L114.15 246.53L114.01 246.56L113.86 246.59L113.72 246.62L113.57 246.64L113.43 246.66L113.28 246.67L113.13 246.67L112.98 246.67L112.84 246.66L112.69 246.64L112.54 246.62L112.39 246.6L112.24 246.56L112.09 246.52L111.95 246.48L111.8 246.42L55.43 224.84L55.28 224.78L55.14 224.71L55 224.65L54.87 224.57L54.74 224.49L54.62 224.41L54.5 224.32L54.38 224.23L54.27 224.13L54.16 224.03L54.06 223.92L53.96 223.82L53.87 223.7L53.78 223.59L53.69 223.47L53.61 223.35L53.54 223.22L53.46 223.09L53.4 222.96L53.34 222.83L53.28 222.69L53.23 222.55L53.19 222.41L53.15 222.27L53.11 222.13L53.08 221.98L53.06 221.84L53.04 221.69L53.03 221.54L53.02 221.39L53.02 221.24L53.03 221.09L53.04 220.94L53.05 220.79L53.07 220.64L53.1 220.49L53.14 220.34L53.18 220.19L53.23 220.03L53.28 219.89L80.87 147.83L10.4 120.85L10.26 120.79L10.12 120.72L9.98 120.65L9.85 120.58L9.72 120.5L9.6 120.42L9.48 120.33L9.36 120.24L9.25 120.14L9.14 120.04L9.04 119.93L8.94 119.82L8.84 119.71L8.76 119.6L8.67 119.48L8.59 119.35L8.51 119.23L8.44 119.1L8.38 118.97L8.32 118.84L8.26 118.7L8.21 118.56L8.17 118.42L8.13 118.28L8.09 118.14L8.06 117.99L8.04 117.85L8.02 117.7L8.01 117.55L8 117.4L8 117.25L8 117.1L8.01 116.95L8.03 116.8L8.05 116.65L8.08 116.5L8.12 116.34L8.16 116.19L8.21 116.04L8.26 115.89L30.33 58.25L30.39 58.1L30.46 57.96L30.53 57.82L30.6 57.68L30.68 57.55L30.77 57.42L30.86 57.3L30.95 57.18L31.05 57.06L31.15 56.95L31.25 56.85L31.36 56.75L31.47 56.65L31.59 56.55L31.71 56.47L31.83 56.38L31.95 56.3L32.08 56.23L32.21 56.16L32.34 56.1L32.48 56.04L32.61 55.99L32.75 55.94L32.89 55.89L33.03 55.86L33.17 55.83L33.32 55.8L33.46 55.78L33.61 55.76L33.76 55.75L33.9 55.75L34.05 55.75L34.2 55.76L34.35 55.78L34.5 55.8L34.65 55.82L34.8 55.86L34.94 55.9L35.09 55.94L35.24 56L105.71 82.98L133.3 10.92L133.36 10.78L133.42 10.63L133.49 10.49L133.57 10.36L133.65 10.23L133.73 10.1L133.82 9.97L133.91 9.86L134.01 9.74L134.11 9.63L134.22 9.52L134.32 9.42L134.44 9.32L134.55 9.23L134.67 9.14L134.79 9.06L134.92 8.98L135.04 8.91L135.17 8.84L135.3 8.77L135.44 8.71L135.58 8.66L135.71 8.61L135.85 8.57L135.99 8.53L136.14 8.5L136.28 8.47L136.43 8.45L136.57 8.44L136.72 8.43L136.87 8.43L137.02 8.43L137.16 8.44L137.31 8.45L137.46 8.47L137.61 8.5L137.76 8.53L137.91 8.57L138.05 8.62L138.2 8.67L194.57 30.26L194.72 30.32L194.86 30.38Z" id="e3l7FrrPPz"></path></defs><g><g><g><g><use xlink:href="#a23El5aJZH" opacity="1" fill-opacity="0" stroke="#000000" stroke-width="1" stroke-opacity="1"></use></g></g><g><g><use xlink:href="#a32B1DIarh" opacity="1" fill-opacity="0" stroke="#000000" stroke-width="1" stroke-opacity="1"></use></g></g><g><use xlink:href="#e3l7FrrPPz" opacity="1" fill="#ad95ff" fill-opacity="1"></use></g></g></g></svg>