<svg width="236" height="70" viewBox="0 0 236 70" fill="none" xmlns="http://www.w3.org/2000/svg">
<path d="M227.099 68.6677H8.88279C4.46052 68.6677 0.876953 65.0841 0.876953 60.6618V8.96702C0.876953 4.54475 4.46052 0.961182 8.88279 0.961182H227.099C231.521 0.961182 235.105 4.54475 235.105 8.96702V60.6618C235.105 65.0841 231.521 68.6677 227.099 68.6677Z" fill="black"/>
<path d="M8.87843 1.83813C4.94752 1.83813 1.74942 5.03623 1.74942 8.96714V60.662C1.74942 64.5929 4.94752 67.791 8.87843 67.791H227.099C231.03 67.791 234.228 64.5929 234.228 60.662V8.96714C234.228 5.03623 231.03 1.83813 227.099 1.83813H8.87843ZM227.099 69.5446H8.87843C3.98174 69.5446 0 65.5586 0 60.662V8.96714C0 4.07045 3.98174 0.0844727 8.87843 0.0844727H227.099C231.996 0.0844727 235.977 4.07045 235.977 8.96714V60.662C235.977 65.5586 231.996 69.5446 227.099 69.5446Z" fill="#A7A9AB"/>
<path d="M81.8291 18.2649L80.9311 15.4523C80.7109 14.7576 80.5245 13.9824 80.3551 13.3216H80.3212C80.156 13.9824 79.9823 14.7745 79.7832 15.4523L78.9021 18.2649H81.8291ZM78.5633 19.8364L77.5805 23.0726H75.4287L79.0885 11.6611H81.7444L85.4508 23.0726H83.2185L82.185 19.8364" fill="white"/>
<path d="M88.564 14.8296L89.9026 19.0062C90.1398 19.7348 90.305 20.3956 90.4575 21.0733H90.5083C90.6608 20.3956 90.8472 19.7517 91.0675 19.0062L92.3891 14.8296H94.5705L91.4233 23.0726H89.3773L86.3105 14.8296" fill="white"/>
<path d="M100.852 19.0402C99.3784 19.0232 97.9721 19.3282 97.9721 20.582C97.9721 21.3953 98.4973 21.7681 99.1581 21.7681C100.001 21.7681 100.598 21.2259 100.797 20.6329C100.852 20.4804 100.852 20.3279 100.852 20.1754V19.0402ZM102.881 21.0903C102.881 21.8359 102.915 22.5644 103.017 23.0685H101.136L100.988 22.1578H100.933C100.446 22.7974 99.5817 23.2549 98.4973 23.2549C96.8368 23.2549 95.9092 22.0561 95.9092 20.8023C95.9092 18.7352 97.7518 17.672 100.797 17.6889V17.5534C100.797 17.0112 100.581 16.1132 99.1242 16.1132C98.3109 16.1132 97.4638 16.3673 96.9046 16.7231L96.498 15.3676C97.1079 14.9949 98.1754 14.6433 99.48 14.6433C102.119 14.6433 102.881 16.3165 102.881 18.1294" fill="white"/>
<path d="M105.826 14.8297H107.905V23.0727H105.826V14.8297ZM106.855 13.6436C106.165 13.6436 105.707 13.1353 105.707 12.5254C105.707 11.8815 106.177 11.3901 106.876 11.3901C107.584 11.3901 108.024 11.8815 108.041 12.5254C108.041 13.1353 107.584 13.6436 106.876 13.6436" fill="white"/>
<path d="M110.899 23.0726H112.983V11.0342H110.899V23.0726Z" fill="white"/>
<path d="M120.363 19.0402C118.889 19.0232 117.483 19.3282 117.483 20.582C117.483 21.3953 118.008 21.7681 118.669 21.7681C119.516 21.7681 120.109 21.2259 120.312 20.6329C120.363 20.4804 120.363 20.3279 120.363 20.1754V19.0402ZM122.392 21.0903C122.392 21.8359 122.426 22.5644 122.528 23.0685H120.651L120.499 22.1578H120.448C119.957 22.7974 119.092 23.2549 118.008 23.2549C116.352 23.2549 115.42 22.0561 115.42 20.8023C115.42 18.7352 117.267 17.672 120.312 17.6889V17.5534C120.312 17.0112 120.092 16.1132 118.635 16.1132C117.822 16.1132 116.974 16.3673 116.42 16.7231L116.013 15.3676C116.623 14.9949 117.686 14.6433 118.991 14.6433C121.63 14.6433 122.392 16.3165 122.392 18.1294" fill="white"/>
<path d="M127.419 19.6669C127.419 19.8364 127.436 20.0058 127.47 20.1583C127.691 21.0055 128.419 21.6154 129.313 21.6154C130.618 21.6154 131.414 20.5819 131.414 18.9087C131.414 17.4516 130.719 16.2655 129.33 16.2655C128.483 16.2655 127.707 16.8755 127.487 17.7904C127.453 17.9429 127.419 18.1293 127.419 18.3326V19.6669ZM125.335 11.0342H127.419V15.9605H127.453C127.962 15.1642 128.855 14.6432 130.092 14.6432C132.109 14.6432 133.545 16.3163 133.528 18.824C133.528 21.7849 131.651 23.259 129.787 23.259C128.72 23.259 127.775 22.8523 127.182 21.8357H127.148L127.047 23.0726H125.268C125.301 22.5134 125.335 21.5985 125.335 20.7683" fill="white"/>
<path d="M135.98 23.0726H138.06V11.0342H135.98V23.0726Z" fill="white"/>
<path d="M146.168 18.0786C146.185 17.3162 145.846 16.0623 144.461 16.0623C143.173 16.0623 142.631 17.2314 142.546 18.0786H146.168ZM142.546 19.5315C142.597 21.0226 143.766 21.6664 145.088 21.6664C146.049 21.6664 146.727 21.5139 147.371 21.2937L147.676 22.7127C146.964 23.0219 145.982 23.2379 144.8 23.2379C142.123 23.2379 140.547 21.5986 140.547 19.0783C140.547 16.7909 141.936 14.6433 144.579 14.6433C147.252 14.6433 148.133 16.8417 148.133 18.6547C148.133 19.0444 148.099 19.3494 148.066 19.5315" fill="white"/>
<path d="M158.473 21.7511C159.655 21.7511 160.485 20.599 160.485 18.9258C160.485 17.6381 159.909 16.1471 158.49 16.1471C157.016 16.1471 156.423 17.5873 156.423 18.9597C156.423 20.5481 157.219 21.7511 158.452 21.7511H158.473ZM158.405 23.2591C156.084 23.2591 154.275 21.6664 154.275 19.0105C154.275 16.2995 156.05 14.6433 158.541 14.6433C160.994 14.6433 162.637 16.3673 162.637 18.875C162.637 21.9036 160.502 23.2591 158.422 23.2591" fill="white"/>
<path d="M165.085 17.2823C165.085 16.3334 165.055 15.5371 165.021 14.8255H166.83L166.932 16.0623H166.983C167.355 15.4185 168.253 14.6433 169.626 14.6433C171.062 14.6433 172.553 15.571 172.553 18.1803V23.0685H170.469V18.4175C170.469 17.2314 170.028 16.3334 168.897 16.3334C168.067 16.3334 167.491 16.9265 167.271 17.5534C167.203 17.7228 167.169 17.977 167.169 18.2142V23.0685H165.085" fill="white"/>
<path d="M182.148 12.7117V14.8254H184.126V16.3842H182.148V20.0059C182.148 21.0225 182.419 21.5308 183.211 21.5308C183.584 21.5308 183.787 21.5139 184.024 21.4461L184.058 23.0176C183.753 23.1404 183.194 23.2379 182.55 23.2379C181.775 23.2379 181.148 22.9837 180.759 22.5644C180.301 22.0899 180.098 21.3275 180.098 20.2431V16.3842H178.929V14.8254H180.098V13.2878" fill="white"/>
<path d="M186.442 11.0342H188.526V15.9436H188.56C188.814 15.5539 189.17 15.2319 189.594 15.0117C190.017 14.7787 190.505 14.6432 191.03 14.6432C192.436 14.6432 193.906 15.5708 193.906 18.214V23.0726H191.826V18.4343C191.826 17.2482 191.386 16.3333 190.234 16.3333C189.424 16.3333 188.848 16.8755 188.611 17.5024C188.543 17.6888 188.526 17.909 188.526 18.1293V23.0726H186.442" fill="white"/>
<path d="M201.963 18.0786C201.98 17.3162 201.641 16.0623 200.252 16.0623C198.964 16.0623 198.426 17.2314 198.341 18.0786H201.963ZM198.341 19.5315C198.392 21.0226 199.557 21.6664 200.878 21.6664C201.844 21.6664 202.522 21.5139 203.162 21.2937L203.471 22.7127C202.759 23.0219 201.776 23.2379 200.59 23.2379C197.918 23.2379 196.342 21.5986 196.342 19.0783C196.342 16.7909 197.731 14.6433 200.37 14.6433C203.043 14.6433 203.924 16.8417 203.924 18.6547C203.924 19.0444 203.89 19.3494 203.856 19.5315" fill="white"/>
<path d="M52.6653 34.1368C52.6102 28.4903 57.2867 25.7412 57.5027 25.6141C54.8553 21.751 50.7507 21.2258 49.3063 21.1834C45.8625 20.8234 42.5204 23.2505 40.7667 23.2505C38.9749 23.2505 36.2682 21.2215 33.3581 21.2808C29.6051 21.3401 26.0978 23.5131 24.1747 26.8807C20.2099 33.7555 23.1666 43.8539 26.9704 49.4114C28.8765 52.1308 31.0962 55.1722 34.0062 55.0621C36.8527 54.9435 37.9159 53.2491 41.3512 53.2491C44.7569 53.2491 45.7566 55.0621 48.7259 54.9943C51.78 54.9435 53.7031 52.2621 55.5372 49.513C57.7399 46.3954 58.621 43.3244 58.6549 43.1677C58.5829 43.1423 52.7246 40.9057 52.6653 34.1368Z" fill="white"/>
<path d="M47.0562 17.5321C48.5854 15.6175 49.6401 13.0082 49.3436 10.365C47.1282 10.4667 44.3579 11.8984 42.761 13.7706C41.3505 15.4226 40.0839 18.1294 40.4143 20.6709C42.905 20.8573 45.4593 19.4171 47.0562 17.5321Z" fill="white"/>
<path d="M87.018 44.9171L85.0526 38.847C84.845 38.2286 84.4553 36.7672 83.8792 34.4714H83.8114C83.5827 35.4583 83.2099 36.9197 82.7059 38.847L80.7743 44.9171H87.018ZM93.8124 54.613H89.8434L87.6703 47.7848H80.122L78.0506 54.613H74.1875L81.6766 31.3665H86.2937" fill="white"/>
<path d="M109.265 46.1626C109.265 44.5275 108.896 43.1847 108.159 42.1258C107.354 41.0244 106.274 40.4695 104.919 40.4695C103.999 40.4695 103.161 40.7787 102.419 41.3845C101.674 41.9987 101.183 42.795 100.95 43.7862C100.835 44.2437 100.78 44.6207 100.78 44.9172V47.7129C100.78 48.9328 101.153 49.9622 101.898 50.8009C102.648 51.6438 103.618 52.0589 104.813 52.0589C106.219 52.0589 107.312 51.521 108.087 50.4366C108.875 49.3564 109.265 47.9332 109.265 46.1626ZM113.06 46.0228C113.06 48.8735 112.289 51.1313 110.747 52.7833C109.366 54.2573 107.651 54.9902 105.609 54.9902C103.398 54.9902 101.814 54.1938 100.848 52.6096H100.78V61.4414H97.0525V43.3669C97.0525 41.5751 97.0102 39.7367 96.917 37.8475H100.191L100.399 40.5076H100.471C101.712 38.5041 103.597 37.5044 106.126 37.5044C108.1 37.5044 109.756 38.288 111.073 39.8511C112.395 41.4184 113.06 43.4728 113.06 46.0228Z" fill="white"/>
<path d="M128.543 46.1626C128.543 44.5275 128.174 43.1847 127.437 42.1258C126.632 41.0244 125.552 40.4695 124.197 40.4695C123.277 40.4695 122.443 40.7787 121.697 41.3845C120.948 41.9987 120.465 42.795 120.236 43.7862C120.117 44.2437 120.062 44.6207 120.062 44.9172V47.7129C120.062 48.9328 120.431 49.9622 121.176 50.8009C121.926 51.6438 122.896 52.0589 124.095 52.0589C125.497 52.0589 126.59 51.521 127.369 50.4366C128.149 49.3564 128.543 47.9332 128.543 46.1626ZM132.334 46.0228C132.334 48.8735 131.567 51.1313 130.025 52.7833C128.644 54.2573 126.933 54.9902 124.887 54.9902C122.68 54.9902 121.096 54.1938 120.126 52.6096H120.062V61.4414H116.335V43.3669C116.335 41.5751 116.288 39.7367 116.199 37.8475H119.474L119.681 40.5076H119.753C120.99 38.5041 122.875 37.5044 125.404 37.5044C127.382 37.5044 129.03 38.288 130.356 39.8511C131.677 41.4184 132.334 43.4728 132.334 46.0228Z" fill="white"/>
<path d="M153.894 48.0942C153.894 50.0681 153.208 51.6777 151.827 52.9231C150.311 54.2786 148.205 54.9563 145.499 54.9563C142.995 54.9563 140.987 54.4734 139.467 53.5076L140.331 50.407C141.97 51.3939 143.762 51.8853 145.719 51.8853C147.121 51.8853 148.214 51.5718 148.998 50.9407C149.777 50.3053 150.167 49.4581 150.167 48.3991C150.167 47.4588 149.849 46.6582 149.205 46.0143C148.561 45.3705 147.49 44.7732 145.994 44.2183C141.924 42.6976 139.89 40.4738 139.89 37.551C139.89 35.6406 140.602 34.0734 142.03 32.8534C143.453 31.6335 145.35 31.0193 147.718 31.0193C149.836 31.0193 151.594 31.392 152.996 32.1249L152.064 35.162C150.755 34.4504 149.273 34.0903 147.617 34.0903C146.304 34.0903 145.283 34.4122 144.55 35.0561C143.931 35.6322 143.618 36.3353 143.618 37.1613C143.618 38.0805 143.97 38.8387 144.685 39.436C145.304 39.9867 146.431 40.5839 148.066 41.232C150.065 42.0368 151.535 42.9772 152.479 44.0574C153.42 45.1375 153.894 46.4845 153.894 48.0942Z" fill="white"/>
<path d="M166.204 40.6431H162.099V48.7802C162.099 50.8516 162.823 51.8851 164.276 51.8851C164.937 51.8851 165.492 51.8301 165.928 51.7157L166.03 54.5411C165.301 54.8206 164.331 54.9562 163.137 54.9562C161.667 54.9562 160.515 54.5072 159.685 53.6134C158.859 52.7154 158.443 51.2074 158.443 49.0937V40.6431H155.995V37.8474H158.443V34.7806L162.099 33.675V37.8474H166.204" fill="white"/>
<path d="M180.864 46.2134C180.864 44.6673 180.53 43.3457 179.861 42.2359C179.085 40.8973 177.967 40.2281 176.518 40.2281C175.023 40.2281 173.884 40.8973 173.104 42.2359C172.435 43.3457 172.109 44.6927 172.109 46.2854C172.109 47.8315 172.435 49.1531 173.104 50.2587C173.909 51.5972 175.036 52.2665 176.489 52.2665C177.908 52.2665 179.026 51.5887 179.831 50.2248C180.521 49.098 180.864 47.7595 180.864 46.2134ZM184.728 46.0948C184.728 48.6702 183.995 50.7839 182.521 52.4401C180.979 54.143 178.933 54.9902 176.383 54.9902C173.918 54.9902 171.961 54.1726 170.499 52.5418C169.042 50.911 168.313 48.8523 168.313 46.3701C168.313 43.7693 169.063 41.6429 170.571 39.9909C172.075 38.3304 174.104 37.5044 176.654 37.5044C179.115 37.5044 181.097 38.3219 182.588 39.9527C184.016 41.5454 184.728 43.5871 184.728 46.0948Z" fill="white"/>
<path d="M196.834 41.1261C196.465 41.0583 196.075 41.0244 195.66 41.0244C194.351 41.0244 193.335 41.52 192.623 42.507C192.005 43.3838 191.695 44.4851 191.695 45.8152V54.6132H187.972L188.002 43.1297C188.002 41.1939 187.955 39.436 187.866 37.8475H191.111L191.246 41.0583H191.344C191.738 39.957 192.36 39.0674 193.208 38.4024C194.038 37.8051 194.936 37.5044 195.902 37.5044C196.245 37.5044 196.558 37.5298 196.834 37.5722" fill="white"/>
<path d="M209.935 44.4724C209.96 43.3711 209.719 42.4137 209.214 41.6089C208.571 40.5754 207.575 40.0544 206.245 40.0544C205.029 40.0544 204.038 40.5627 203.28 41.575C202.662 42.3799 202.289 43.3456 202.183 44.4724H209.935ZM213.484 45.4382C213.484 46.1074 213.442 46.6666 213.353 47.1283H202.183C202.221 48.7845 202.763 50.0511 203.801 50.9236C204.741 51.7073 205.961 52.0928 207.457 52.0928C209.109 52.0928 210.617 51.8301 211.976 51.3006L212.561 53.8888C210.972 54.575 209.1 54.9266 206.936 54.9266C204.339 54.9266 202.297 54.1599 200.815 52.6265C199.336 51.1016 198.591 49.0471 198.591 46.4717C198.591 43.9429 199.277 41.8377 200.662 40.1602C202.107 38.3642 204.064 37.4705 206.52 37.4705C208.935 37.4705 210.769 38.3642 212.01 40.1602C212.997 41.5835 213.484 43.3456 213.484 45.4382Z" fill="white"/>
</svg>
