<svg width="52" height="52" viewBox="0 0 52 52" fill="none" xmlns="http://www.w3.org/2000/svg">
<path fill-rule="evenodd" clip-rule="evenodd" d="M0 25.9395C0 11.6137 11.6134 0.000244141 25.9393 0.000244141C40.2651 0.000244141 51.8785 11.6137 51.8785 25.9395C51.8785 40.2653 40.2651 51.8788 25.9393 51.8788C11.6134 51.8788 0 40.2653 0 25.9395ZM25.9406 12.1052C22.1834 12.1052 21.7118 12.1217 20.2362 12.1888C18.7634 12.2562 17.7581 12.4895 16.8785 12.8315C15.9685 13.1848 15.1967 13.6576 14.4277 14.4268C13.6582 15.1958 13.1855 15.9676 12.831 16.8772C12.488 17.7572 12.2546 18.7628 12.1883 20.2349C12.1223 21.7106 12.105 22.1824 12.105 25.9396C12.105 29.6968 12.1217 30.167 12.1885 31.6426C12.2563 33.1154 12.4894 34.1206 12.8313 35.0003C13.1849 35.9102 13.6576 36.682 14.4269 37.451C15.1955 38.2206 15.9673 38.6944 16.8767 39.0478C17.7569 39.3899 18.7625 39.623 20.235 39.6904C21.7107 39.7577 22.182 39.7741 25.9388 39.7741C29.6963 39.7741 30.1664 39.7577 31.6421 39.6904C33.1148 39.623 34.1213 39.3899 35.0016 39.0478C35.9112 38.6944 36.6818 38.2206 37.4505 37.451C38.22 36.682 38.6927 35.9102 39.0472 35.0006C39.3874 34.1206 39.6208 33.1151 39.69 31.6429C39.7562 30.1672 39.7735 29.6968 39.7735 25.9396C39.7735 22.1824 39.7562 21.711 39.69 20.2352C39.6208 18.7624 39.3874 17.7572 39.0472 16.8775C38.6927 15.9676 38.22 15.1958 37.4505 14.4268C36.6809 13.6573 35.9114 13.1846 35.0007 12.8315C34.1187 12.4895 33.1129 12.2562 31.6401 12.1888C30.1643 12.1217 29.6946 12.1052 25.9362 12.1052H25.9406Z" fill="white"/>
<path fill-rule="evenodd" clip-rule="evenodd" d="M24.7329 14.9186C25.091 14.9181 25.4905 14.9186 25.9393 14.9186C29.5298 14.9186 29.9554 14.9316 31.3733 14.996C32.6845 15.056 33.3961 15.2751 33.8702 15.4591C34.4977 15.7029 34.9451 15.9943 35.4155 16.465C35.8861 16.9357 36.1776 17.3841 36.4218 18.0118C36.6059 18.4852 36.8253 19.197 36.8849 20.5083C36.9493 21.9261 36.9634 22.352 36.9634 25.9413C36.9634 29.5306 36.9493 29.9566 36.8849 31.3743C36.8249 32.6856 36.6059 33.3974 36.4218 33.8708C36.1781 34.4985 35.8861 34.9454 35.4155 35.4159C34.9448 35.8867 34.498 36.178 33.8702 36.4218C33.3967 36.6067 32.6845 36.8253 31.3733 36.8853C29.9557 36.9497 29.5298 36.9637 25.9393 36.9637C22.3485 36.9637 21.9229 36.9497 20.5053 36.8853C19.1942 36.8247 18.4825 36.6056 18.0083 36.4215C17.3807 36.1777 16.9324 35.8863 16.4617 35.4156C15.9911 34.9449 15.6997 34.4977 15.4555 33.8698C15.2714 33.3962 15.052 32.6846 14.9924 31.3733C14.9279 29.9554 14.915 29.5295 14.915 25.9379C14.915 22.3463 14.9279 21.9227 14.9924 20.5049C15.0522 19.1936 15.2714 18.4819 15.4555 18.0078C15.6992 17.3802 15.9911 16.9318 16.4617 16.4611C16.9324 15.9904 17.3807 15.699 18.0083 15.4546C18.4823 15.2697 19.1942 15.0511 20.5053 14.9909C21.7459 14.9349 22.2266 14.9181 24.7329 14.9153V14.9186ZM33.1176 17.1518C32.2267 17.1518 31.5039 17.8739 31.5039 18.7652C31.5039 19.6562 32.2267 20.3791 33.1176 20.3791C34.0085 20.3791 34.7313 19.6562 34.7313 18.7652C34.7313 17.8741 34.0085 17.1518 33.1176 17.1518ZM25.9393 19.0375C22.1255 19.0375 19.0334 22.1301 19.0334 25.9444C19.0334 29.7587 22.1255 32.8498 25.9393 32.8498C29.7532 32.8498 32.8441 29.7587 32.8441 25.9444C32.8441 22.1301 29.7532 19.0375 25.9393 19.0375Z" fill="white"/>
<path fill-rule="evenodd" clip-rule="evenodd" d="M25.9393 21.4001C28.4462 21.4001 30.4786 23.4324 30.4786 25.9395C30.4786 28.4464 28.4462 30.4789 25.9393 30.4789C23.4321 30.4789 21.3999 28.4464 21.3999 25.9395C21.3999 23.4324 23.4321 21.4001 25.9393 21.4001Z" fill="white"/>
</svg>
