<svg width="53" height="52" viewBox="0 0 53 52" fill="none" xmlns="http://www.w3.org/2000/svg">
<path fill-rule="evenodd" clip-rule="evenodd" d="M0.431152 25.9395C0.431152 11.6137 12.0446 0.000244141 26.3704 0.000244141C40.6962 0.000244141 52.3097 11.6137 52.3097 25.9395C52.3097 40.2653 40.6962 51.8788 26.3704 51.8788C12.0446 51.8788 0.431152 40.2653 0.431152 25.9395ZM25.5935 21.084L25.648 21.9816L24.7408 21.8717C21.4386 21.4504 18.5537 20.0216 16.1042 17.622L14.9068 16.4314L14.5983 17.3106C13.9451 19.2705 14.3624 21.3405 15.7232 22.7325C16.449 23.5019 16.2857 23.6118 15.0338 23.1538C14.5983 23.0073 14.2172 22.8975 14.181 22.9524C14.054 23.0806 14.4894 24.7475 14.8341 25.4069C15.3059 26.3228 16.2675 27.2204 17.3199 27.7516L18.209 28.1729L17.1566 28.1911C16.1405 28.1911 16.1042 28.2095 16.2131 28.5942C16.576 29.7848 18.0093 31.0487 19.606 31.5983L20.731 31.9829L19.7511 32.569C18.2996 33.4116 16.5941 33.8879 14.8886 33.9246C14.0721 33.9428 13.4008 34.0161 13.4008 34.0711C13.4008 34.2542 15.6144 35.28 16.9026 35.683C20.7672 36.8737 25.3577 36.3608 28.805 34.3275C31.2545 32.8804 33.7039 30.0046 34.8469 27.2204C35.4639 25.7366 36.0808 23.0257 36.0808 21.7251C36.0808 20.8825 36.1351 20.7726 37.1512 19.7651C37.75 19.179 38.3124 18.5378 38.4214 18.3547C38.6027 18.0066 38.5847 18.0066 37.6593 18.318C36.1171 18.8676 35.8993 18.7943 36.6614 17.97C37.2238 17.3839 37.8951 16.3214 37.8951 16.0101C37.8951 15.9551 37.623 16.0467 37.3145 16.2115C36.988 16.3947 36.2622 16.6695 35.7178 16.8344L34.7381 17.1458L33.849 16.5413C33.3592 16.2115 32.6697 15.8452 32.3068 15.7353C31.3814 15.4789 29.9662 15.5155 29.1316 15.8086C26.8636 16.6328 25.4302 18.7577 25.5935 21.084Z" fill="white"/>
</svg>
