<svg width="20" height="20" viewBox="0 0 20 20" fill="none" xmlns="http://www.w3.org/2000/svg">
<path d="M10 3.63636C9.49794 3.63636 9.09091 4.04339 9.09091 4.54545V9.62346L5.72085 12.9935C5.36582 13.3485 5.36582 13.9241 5.72085 14.2792C6.07582 14.6341 6.65145 14.6342 7.00648 14.2792L10.6427 10.6429C10.8185 10.4672 10.9091 10.2309 10.9091 9.99994V4.54539C10.9091 4.04339 10.5021 3.63636 10 3.63636ZM10 0C4.486 0 0 4.486 0 10C0 15.514 4.486 20 10 20C15.514 20 20 15.514 20 10C20 4.486 15.514 0 10 0ZM10 18.1818C5.48855 18.1818 1.81818 14.5115 1.81818 10C1.81818 5.48855 5.48855 1.81818 10 1.81818C14.5115 1.81818 18.1818 5.48855 18.1818 10C18.1818 14.5115 14.5115 18.1818 10 18.1818Z" fill="#9350FF"/>
</svg>
