<svg width="1920" height="1080" viewBox="0 0 1920 1080" fill="none" xmlns="http://www.w3.org/2000/svg">
<path fill-rule="evenodd" clip-rule="evenodd" d="M1554.58 79.5622C1711.99 50.7452 1873.06 68.1351 1966.47 79.6863C1970.65 80.2025 1973.56 84.0393 1972.97 88.2042C1972.4 92.2755 1968.69 95.1357 1964.61 94.6311C1871.34 83.097 1712.43 65.9934 1557.64 94.3303C1399.01 123.37 1245.68 199.897 1171.32 378.611L1171.22 378.853L1171.1 379.089C1049.14 621.351 635.55 1066.87 -45.266 916.528C-49.4169 915.612 -52.0849 911.406 -51.0289 907.289C-50.014 903.331 -45.9237 900.927 -41.9345 901.809C628.548 1050.03 1036.1 611.852 1156.52 372.885C1233.56 188.022 1392.62 109.213 1554.58 79.5622Z" fill="url(#paint0_linear)"/>
<path fill-rule="evenodd" clip-rule="evenodd" d="M1510.38 44.3401C1676.84 3.13602 1850.24 11.2298 1950.91 17.4969C1955.42 17.7775 1958.79 21.6977 1958.44 26.1998C1958.09 30.6046 1954.3 33.9164 1949.89 33.6418C1849.38 27.3836 1678.3 19.4576 1514.62 59.974C1346.86 101.499 1187.9 193.592 1120.09 390.075L1120 390.341L1119.89 390.601C1005.35 658.336 592.249 1163.1 -145.783 1046.5C-150.289 1045.78 -153.423 1041.46 -152.564 1036.97C-151.738 1032.66 -147.506 1029.81 -143.169 1030.5C583.661 1145.49 990.781 649.004 1103.89 384.905C1174.14 181.653 1339.09 86.739 1510.38 44.3401Z" fill="url(#paint1_linear)"/>
<defs>
<linearGradient id="paint0_linear" x1="1255.38" y1="2045.78" x2="2065.43" y2="227.277" gradientUnits="userSpaceOnUse">
<stop offset="1.06556e-07" stop-color="#6E5CD9"/>
<stop offset="1" stop-color="#BA88F6"/>
</linearGradient>
<linearGradient id="paint1_linear" x1="1319.45" y1="2172.07" x2="2070.1" y2="170.63" gradientUnits="userSpaceOnUse">
<stop offset="1.06556e-07" stop-color="#6E5CD9"/>
<stop offset="1" stop-color="#BA88F6"/>
</linearGradient>
</defs>
</svg>
