<svg width="312" height="84" viewBox="0 0 312 84" fill="none" xmlns="http://www.w3.org/2000/svg">
<g opacity="0.97">
<path opacity="0.81" d="M2.604 71.5611L31.637 22.0823C32.2504 21.06 31.4325 19.6288 30.2058 19.6288H16.916C15.8937 19.6288 15.0759 18.6066 15.4848 17.7887L18.1428 5.93017C18.3472 5.3168 18.9606 4.70343 19.574 4.70343H54.9452C55.9674 4.70343 56.7853 5.72572 56.3764 6.54355L54.1273 16.1531C54.1273 16.3575 54.1273 16.3575 53.9229 16.562L27.1389 65.2229C26.5255 66.2452 27.3434 67.4719 28.5701 67.4719H42.4732C43.4955 67.4719 44.3134 68.4942 43.9044 69.5165L39.8153 81.3751C39.6108 81.9884 38.9975 82.3973 38.3841 82.3973H1.58171C0.559421 82.3973 -0.25841 81.3751 0.150505 80.5572L2.19508 71.97C2.39954 71.97 2.39954 71.7655 2.604 71.5611Z" fill="#393939"/>
<path opacity="0.81" d="M95.4276 65.6321C94.6098 68.6989 92.7697 77.6951 91.9519 81.3753C91.7474 82.1931 91.134 82.6021 90.3162 82.6021H73.9596C72.9373 82.6021 72.3239 81.7842 72.3239 80.7619C72.5284 79.9441 72.5284 78.9218 72.7328 77.8995C68.6437 82.1931 64.5545 83.4199 59.852 83.4199C50.447 83.4199 46.3578 76.2639 49.6291 62.5652C52.9004 49.071 60.0565 44.164 77.6398 42.5284C78.2532 42.5284 78.8666 42.3239 79.6844 42.3239C80.2978 42.3239 80.9111 41.7105 81.1156 41.0972L82.1379 36.3946C82.9557 32.5099 82.3423 31.2832 80.2978 31.2832C78.4576 31.2832 77.2309 32.3055 76.4131 35.7812L76.0042 37.6214C75.7997 38.2348 75.1863 38.8481 74.573 38.8481H57.1941L57.8074 36.5991C61.0788 22.9004 68.0303 18.6068 81.9334 18.6068C96.2455 18.6068 105.446 22.696 101.766 38.6437L95.4276 65.6321ZM78.0487 54.5913C77.6398 54.5913 77.0265 54.7958 76.4131 54.7958C72.7328 55.4092 71.0972 56.8404 69.666 62.7696C68.8481 67.0633 69.666 68.6989 71.7106 68.6989C74.164 68.6989 74.9819 66.8588 75.5952 64.8142L78.0487 54.5913Z" fill="#393939"/>
<path opacity="0.81" d="M108.513 41.0978C110.762 31.0794 112.194 24.5367 113.011 20.8565C113.216 20.0386 113.829 19.6297 114.443 19.6297H130.799C131.822 19.6297 132.435 20.4476 132.435 21.4698C132.23 22.901 133.866 23.9233 135.093 22.9011C137.751 20.4476 141.227 19.2208 144.702 18.8119C145.725 18.6074 146.747 19.6297 146.338 20.652L142.044 38.8487C141.84 39.6666 141.227 40.0755 140.409 40.0755C129.368 39.871 127.528 45.1869 126.097 51.7296L119.145 81.3759C118.941 81.9893 118.327 82.6027 117.714 82.6027H100.948C99.9261 82.6027 99.1083 81.5804 99.5172 80.7626L108.513 41.0978Z" fill="#393939"/>
<path opacity="0.81" d="M200.723 1.22764C201.746 1.22764 202.563 2.24991 202.155 3.06774L187.638 65.2229C186.207 71.1521 184.776 77.6948 184.162 81.1705C183.958 81.9884 183.344 82.3973 182.527 82.3973H165.966C164.943 82.3973 164.33 81.5795 164.33 80.5572C164.534 79.3305 164.739 77.8992 164.943 76.877C160.854 81.5795 157.174 83.2151 151.449 83.2151C141.022 83.2151 138.773 75.6502 141.226 64.2006L147.564 36.8032C149.813 27.1937 154.311 17.9932 166.374 17.9932C170.055 17.9932 173.326 19.0154 175.371 20.6511C176.188 21.4689 177.62 20.8556 177.824 19.8333L181.913 1.841C182.118 1.22763 182.731 0.614258 183.344 0.614258H200.723V1.22764ZM167.806 38.2344L161.672 63.9961C161.059 66.6541 161.263 68.9031 163.717 68.9031C165.966 68.9031 166.988 67.6764 167.806 64.405L173.939 38.2344C174.757 34.7587 173.939 33.5319 171.895 33.5319C170.055 33.5319 168.828 34.5542 167.806 38.2344Z" fill="#393939"/>
<path opacity="0.81" d="M207.062 19.6292H223.828C224.85 19.6292 225.668 20.6515 225.259 21.4693L211.356 81.3754C211.151 81.9888 210.538 82.6022 209.924 82.6022H193.159C192.137 82.6022 191.319 81.5799 191.728 80.762L205.631 20.856C205.631 20.0381 206.244 19.6292 207.062 19.6292ZM211.151 1.22803H227.917C228.939 1.22803 229.757 2.2503 229.348 3.06813L226.69 14.5178C226.485 15.1311 225.872 15.7445 225.259 15.7445H208.493C207.471 15.7445 206.653 14.7222 207.062 13.9044L209.72 2.45477C209.924 1.63694 210.538 1.22803 211.151 1.22803Z" fill="#393939"/>
<path opacity="0.81" d="M232.414 19.6294H236.503C237.321 19.6294 237.935 19.2205 237.935 18.4027L240.388 7.77087C240.593 7.1575 241.206 6.54413 241.819 6.54413H258.38C259.403 6.54413 260.22 7.56642 259.812 8.38425L257.562 17.5848C257.358 18.6071 257.971 19.425 258.994 19.425H261.856C262.878 19.425 263.696 20.4472 263.287 21.2651L260.629 32.9192C260.425 33.5325 259.812 34.1459 259.198 34.1459H254.905C254.087 34.1459 253.473 34.5548 253.473 35.3727L246.522 63.7923C245.908 66.6547 246.726 67.4725 250.202 67.4725C250.611 67.4725 252.247 67.4725 253.064 67.2681L249.998 80.7622C249.793 81.3756 249.384 81.7845 248.771 81.989C245.091 82.8068 241.001 83.0113 238.957 83.0113C226.689 83.0113 223.009 78.3087 225.463 67.8814L233.436 36.3949C233.641 35.3727 233.028 34.5548 232.005 34.5548H229.961C228.938 34.5548 228.121 33.5325 228.529 32.7147L231.187 21.0606C231.187 20.0383 231.801 19.6294 232.414 19.6294Z" fill="#393939"/>
<path opacity="0.81" d="M282.507 55.4092C281.689 55.4092 281.075 56.0225 281.075 56.6359L279.235 65.6321C278.417 69.1078 279.644 70.1301 281.075 70.1301C283.324 70.1301 284.347 68.9034 285.165 65.4276L285.982 62.3607C286.187 61.7474 286.8 61.134 287.414 61.134H305.61L304.997 63.9964C302.339 76.2639 296.41 83.8288 279.235 83.8288C260.63 83.8288 256.949 74.4237 260.221 59.9072L264.923 39.8704C268.195 26.3762 274.737 18.6068 291.298 18.6068C309.904 18.6068 313.38 27.3985 310.313 41.5061L307.45 54.1824C307.246 54.7958 306.633 55.4092 306.019 55.4092H282.507ZM288.64 43.7551C289.458 43.7551 290.072 43.3462 290.072 42.5283L290.889 38.6437C292.116 33.9411 292.321 31.6921 289.458 31.6921C286.8 31.6921 286.187 33.1233 284.96 39.0526L284.347 41.915C284.142 42.9373 284.96 43.7551 285.778 43.7551H288.64Z" fill="#393939"/>
</g>
</svg>
