<svg width="180" height="179" viewBox="0 0 180 179" fill="none" xmlns="http://www.w3.org/2000/svg">
<path d="M2.2936 141.087L86.5302 54.1925C91.2327 49.49 87.7569 41.3117 81.0098 41.3117H12.5165C8.42733 41.3117 4.95156 37.8359 4.95156 33.7468V8.39403C4.95156 4.30488 8.42733 0.829102 12.5165 0.829102H163.202C167.291 0.829102 170.767 4.30488 170.767 8.39403V36.8136C170.767 38.8582 169.949 40.6983 168.518 42.1295L86.7346 125.139C82.0321 129.842 85.5079 138.02 92.0505 138.02H171.38C176.083 138.02 179.558 142.109 178.945 146.812L174.856 172.165C174.242 175.845 171.176 178.503 167.291 178.503H7.81396C3.7248 178.503 0.249023 175.027 0.249023 170.938V146.198C0.249023 144.358 0.862396 142.518 2.2936 141.087Z" fill="url(#paint0_linear)"/>
<defs>
<linearGradient id="paint0_linear" x1="0.1883" y1="89.7003" x2="178.886" y2="89.7003" gradientUnits="userSpaceOnUse">
<stop offset="1.06556e-07" stop-color="#6E5CD9"/>
<stop offset="0.2319" stop-color="#7A63DE"/>
<stop offset="0.652" stop-color="#9B76EA"/>
<stop offset="1" stop-color="#BA88F6"/>
</linearGradient>
</defs>
</svg>
