<svg width="662" height="833" viewBox="0 0 662 833" fill="none" xmlns="http://www.w3.org/2000/svg">
<path d="M377.447 31.5654C388.732 48.8365 377.17 74.8694 357.313 80.4694C337.457 86.0695 309.99 71.015 298.705 53.744C287.421 36.4729 301.205 16.0332 321.061 10.4332C340.918 4.83311 366.162 14.2943 377.447 31.5654Z" fill="#4D3484"/>
<path d="M370.977 40.4478C382.262 57.7188 375.313 76.2595 355.457 81.8596C335.6 87.4597 310.356 77.9984 299.071 60.7274C287.786 43.4563 294.735 24.9156 314.591 19.3155C334.448 13.7155 359.692 23.1767 370.977 40.4478Z" fill="#6D48BA"/>
<path fill-rule="evenodd" clip-rule="evenodd" d="M328.947 39.7929L335.615 37.9124C336.431 37.6821 337.519 38.09 337.983 38.8001L341.208 43.7351C341.44 44.0901 341.485 44.4557 341.362 44.7848L334.453 63.8042C334.048 64.8856 335.669 66.11 336.976 65.7416L352.813 61.275C353.752 61.0102 354.91 61.5246 355.321 62.3757L357.381 67.0084C357.676 67.682 357.365 68.3163 356.59 68.535L349.105 70.6459L354.415 78.7729L351.889 79.4853L346.579 71.3583L344.529 71.9366L349.839 80.0636L347.313 80.7761L342.003 72.649L339.953 73.2272L345.262 81.3539L342.736 82.0664L337.427 73.9396L335.757 74.4106L341.067 82.5377L338.541 83.2501L333.23 75.123L324.752 77.5143C323.935 77.7446 322.847 77.3367 322.383 76.6266L319.576 72.3306C319.367 72.0111 319.281 71.657 319.404 71.3279L326.362 51.4959C326.768 50.4145 325.146 49.19 323.799 49.5699L310.125 53.4264C309.308 53.6567 308.22 53.2488 307.756 52.5387L304.88 48.1363C304.416 47.4262 304.715 46.6269 305.532 46.3967L313.071 44.2703L307.435 35.6443L309.961 34.9318L315.597 43.5578L317.267 43.0869L311.631 34.461L314.157 33.7486L319.793 42.3745L321.844 41.796L316.208 33.1702L318.734 32.4578L324.37 41.0836L326.421 40.5053L320.785 31.8791L323.311 31.1666L328.947 39.7929Z" fill="#CB8DF0"/>
<path d="M361.187 210.169C339.805 177.444 354.128 129.982 391.752 119.371C429.375 108.76 486.907 131.15 508.289 163.876C529.671 196.601 505.65 239.599 468.027 250.21C430.403 260.821 382.569 242.894 361.187 210.169Z" fill="#4D3484"/>
<path d="M369.282 194.977C347.9 162.252 361.066 127.121 398.69 116.51C436.314 105.899 484.148 123.826 505.53 156.551C526.912 189.276 513.746 224.407 476.122 235.018C438.498 245.629 390.664 227.702 369.282 194.977Z" fill="#6D48BA"/>
<path fill-rule="evenodd" clip-rule="evenodd" d="M463.136 202.242L466.299 201.35L476.978 217.694L481.765 216.344L471.086 200L485.371 195.971C486.918 195.535 487.486 194.02 486.607 192.675L481.156 184.333C480.277 182.987 478.215 182.215 476.668 182.651L450.759 189.958C448.206 190.678 445.133 188.358 445.901 186.309L459.085 148.731C459.319 148.107 459.156 147.437 458.76 146.831L453.441 138.691C452.562 137.346 450.5 136.573 448.953 137.009L432.889 141.54L422.827 126.139L418.04 127.489L428.103 142.89L424.939 143.782L414.876 128.381L410.09 129.731L420.152 145.132L416.266 146.228L406.204 130.828L401.417 132.177L411.48 147.578L407.595 148.673L397.533 133.273L392.746 134.623L402.808 150.023L388.626 154.023C387.157 154.438 386.568 155.639 387.127 156.916L391.031 165.694C391.81 167.306 394.004 168.281 395.782 167.779L425.791 159.316C428.266 158.618 431.339 160.938 430.571 162.987L417.48 199.025C417.246 199.649 417.333 200.341 417.772 201.014L423.882 210.365C424.761 211.71 426.823 212.483 428.37 212.047L441.005 208.484L451.683 224.827L456.47 223.477L445.791 207.134L449.677 206.038L460.356 222.382L465.142 221.032L454.463 204.688L458.35 203.592L469.029 219.936L473.815 218.586L463.136 202.242Z" fill="#CB8DF0"/>
<path d="M298.475 317.852C275.347 366.197 197.343 366.466 154.142 317.852C128.191 288.649 102.927 241.908 121.085 182.312C136.555 131.537 210.447 100.399 252.382 134.357C294.317 168.316 312.295 265.691 298.475 317.852Z" fill="#4D3484"/>
<path d="M310.233 294.781C296.412 346.941 251.213 361.697 209.278 327.739C167.343 293.78 144.551 223.967 158.371 171.806C172.192 119.645 217.391 104.889 259.326 138.848C301.261 172.806 324.053 242.62 310.233 294.781Z" fill="#6D48BA"/>
<path fill-rule="evenodd" clip-rule="evenodd" d="M256.607 188.319L252.277 184.812L259.179 158.761L253.844 154.441L246.942 180.492L242.609 176.984L249.511 150.934L244.176 146.614L237.274 172.664L233.749 169.809L240.651 143.759L235.316 139.439L228.414 165.489L212.491 152.595C210.767 151.198 208.818 151.835 208.25 153.979L204.727 167.275C204.159 169.42 205.142 172.429 206.866 173.825L235.745 197.211C238.589 199.515 238.918 204.99 236.282 205.851L188.691 222.661C187.889 222.923 187.374 223.679 187.119 224.644L183.681 237.618C183.113 239.763 184.095 242.772 185.82 244.168L203.725 258.668L197.221 283.215L202.556 287.535L209.06 262.988L212.586 265.844L206.082 290.39L211.417 294.71L217.921 270.164L222.253 273.672L215.749 298.217L221.084 302.538L227.588 277.992L231.919 281.499L225.415 306.045L230.75 310.365L237.254 285.819L253.06 298.619C254.698 299.945 256.36 299.598 257.13 297.878L262.377 285.978C263.289 283.721 262.392 280.39 260.409 278.784L226.962 251.699C224.203 249.465 223.874 243.989 226.51 243.128L272.527 227.518C273.329 227.256 273.93 226.57 274.214 225.498L278.163 210.593C278.731 208.449 277.749 205.439 276.025 204.043L261.942 192.639L268.844 166.589L263.509 162.269L256.607 188.319Z" fill="#CB8DF0"/>
<path d="M397.99 401.734C393.732 346.827 455.844 298.963 524.545 321.783C562.644 334.438 612.897 373.123 627.398 426.644C645.685 494.14 584.938 541.384 530.17 532.71C475.403 524.035 412.491 455.254 397.99 401.734Z" fill="#4D3484"/>
<path d="M400.248 421.462C385.747 367.942 418.39 331.587 473.157 340.261C527.925 348.935 584.078 399.354 598.579 452.875C613.08 506.396 580.438 542.751 525.67 534.076C470.903 525.402 414.749 474.983 400.248 421.462Z" fill="#6D48BA"/>
<path fill-rule="evenodd" clip-rule="evenodd" d="M527.92 492.653L532.524 493.382L539.766 520.112L546.733 521.216L539.491 494.485L560.287 497.779C562.538 498.136 563.946 496.569 563.349 494.368L559.653 480.725C559.057 478.525 556.636 476.352 554.384 475.995L516.668 470.021C512.953 469.433 509.847 464.729 511.751 462.608L545.466 423.196C546.046 422.551 546.115 421.614 545.847 420.624L542.24 407.311C541.644 405.111 539.223 402.937 536.972 402.581L513.588 398.877L506.764 373.691L499.797 372.587L506.621 397.774L502.015 397.044L495.191 371.857L488.224 370.754L495.048 395.941L489.39 395.045L482.566 369.858L475.599 368.754L482.423 393.941L476.768 393.045L469.943 367.859L462.976 366.755L469.8 391.942L449.155 388.672C447.016 388.333 445.715 389.496 445.914 391.423L447.358 404.709C447.706 407.186 450.216 409.689 452.806 410.1L496.489 417.018C500.092 417.589 503.198 422.293 501.294 424.413L468.363 461.949C467.783 462.595 467.601 463.513 467.899 464.614L472.043 479.907C472.639 482.107 475.06 484.281 477.312 484.637L495.705 487.55L502.947 514.279L509.915 515.382L502.673 488.654L508.329 489.55L515.571 516.278L522.538 517.382L515.297 490.653L520.953 491.549L528.195 518.277L535.162 519.381L527.92 492.653Z" fill="#CB8DF0"/>
<path d="M430.982 672.734C438.17 765.419 340.839 827.673 233.777 792.112C197.84 780.176 89.7109 733.549 56.8333 612.204C32.3548 521.859 112.045 420.322 204.495 434.964C296.946 449.607 406.503 582.388 430.982 672.734Z" fill="#4D3484"/>
<path d="M434.435 624.528C458.914 714.873 403.812 776.242 311.361 761.6C218.911 746.957 124.121 661.847 99.6427 571.502C75.1641 481.157 130.266 419.787 222.716 434.43C315.167 449.073 409.956 534.182 434.435 624.528Z" fill="#6D48BA"/>
<path fill-rule="evenodd" clip-rule="evenodd" d="M273.301 512.969L304.349 517.886C308.15 518.488 312.236 522.157 313.243 525.871L320.237 551.687C320.74 553.544 320.433 555.095 319.455 556.184L263.865 619.547C260.652 623.126 265.895 631.067 271.977 632.03L345.716 643.709C350.087 644.402 354.324 648.628 354.911 652.809L357.35 675.236C357.686 678.489 355.489 680.452 351.878 679.88L317.029 674.36L328.548 716.875L316.786 715.012L305.267 672.498L295.719 670.985L307.239 713.502L295.477 711.639L283.958 669.123L274.409 667.61L285.928 710.126L274.167 708.263L262.648 665.747L254.874 664.516L266.393 707.032L254.632 705.17L243.112 662.653L203.64 656.401C199.839 655.799 195.753 652.13 194.746 648.416L188.658 625.944C188.205 624.272 188.322 622.691 189.3 621.602L246.214 555.072C249.428 551.492 244.184 543.552 237.913 542.558L174.246 532.475C170.445 531.873 166.359 528.204 165.353 524.489L159.113 501.46C158.107 497.745 160.482 495.1 164.283 495.702L199.386 501.262L187.161 456.142L198.923 458.004L211.148 503.124L218.92 504.355L206.695 459.235L218.456 461.098L230.681 506.218L240.23 507.731L228.004 462.61L239.766 464.473L251.991 509.593L261.539 511.106L249.314 465.985L261.075 467.848L273.301 512.969Z" fill="#CB8DF0"/>
</svg>
