<svg width="514" height="63" viewBox="0 0 514 63" fill="none" xmlns="http://www.w3.org/2000/svg">
<g filter="url(#filter0_bd)">
<mask id="path-1-inside-1" fill="white">
<path d="M5 6.632H24.9404C29.706 6.632 33.9073 7.55111 37.5442 9.38933C41.223 11.1858 44.0656 13.7342 46.0722 17.0347C48.1206 20.3351 49.1448 24.1787 49.1448 28.5653C49.1448 32.952 48.1206 36.7956 46.0722 40.096C44.0656 43.3964 41.223 45.9658 37.5442 47.804C33.9073 49.6004 29.706 50.4987 24.9404 50.4987H5V6.632ZM24.4388 42.164C28.8282 42.164 32.3188 40.9524 34.9106 38.5293C37.5442 36.0644 38.8611 32.7431 38.8611 28.5653C38.8611 24.3876 37.5442 21.0871 34.9106 18.664C32.3188 16.1991 28.8282 14.9667 24.4388 14.9667H15.1583V42.164H24.4388Z"/>
<path d="M72.1685 51C68.6152 51 65.4172 50.2689 62.5746 48.8067C59.7737 47.3027 57.579 45.2347 55.9905 42.6027C54.4019 39.9707 53.6077 36.9836 53.6077 33.6413C53.6077 30.2991 54.4019 27.312 55.9905 24.68C57.579 22.048 59.7737 20.0009 62.5746 18.5387C65.4172 17.0347 68.6152 16.2827 72.1685 16.2827C75.7219 16.2827 78.8989 17.0347 81.6998 18.5387C84.5007 20.0009 86.6954 22.048 88.2839 24.68C89.8724 27.312 90.6667 30.2991 90.6667 33.6413C90.6667 36.9836 89.8724 39.9707 88.2839 42.6027C86.6954 45.2347 84.5007 47.3027 81.6998 48.8067C78.8989 50.2689 75.7219 51 72.1685 51ZM72.1685 42.9787C74.6768 42.9787 76.7251 42.1431 78.3137 40.472C79.944 38.7591 80.7592 36.4822 80.7592 33.6413C80.7592 30.8004 79.944 28.5444 78.3137 26.8733C76.7251 25.1604 74.6768 24.304 72.1685 24.304C69.6603 24.304 67.591 25.1604 65.9607 26.8733C64.3303 28.5444 63.5152 30.8004 63.5152 33.6413C63.5152 36.4822 64.3303 38.7591 65.9607 40.472C67.591 42.1431 69.6603 42.9787 72.1685 42.9787Z"/>
<path d="M150.464 16.784L138.237 50.4987H128.831L121.244 29.568L113.405 50.4987H103.999L91.8346 16.784H101.052L109.016 39.5947L117.293 16.784H125.57L133.597 39.5947L141.811 16.784H150.464Z"/>
<path d="M175.517 16.2827C179.697 16.2827 183.062 17.536 185.612 20.0427C188.204 22.5493 189.5 26.2676 189.5 31.1973V50.4987H179.718V32.7013C179.718 30.0276 179.133 28.0431 177.962 26.748C176.792 25.4111 175.099 24.7427 172.883 24.7427C170.417 24.7427 168.452 25.5156 166.989 27.0613C165.526 28.5653 164.794 30.8213 164.794 33.8293V50.4987H155.012V16.784H164.355V20.732C165.651 19.3116 167.261 18.2253 169.184 17.4733C171.106 16.6796 173.218 16.2827 175.517 16.2827Z"/>
<path d="M198.367 4H208.149V50.4987H198.367V4Z"/>
<path d="M233.28 51C229.727 51 226.529 50.2689 223.686 48.8067C220.886 47.3027 218.691 45.2347 217.102 42.6027C215.514 39.9707 214.72 36.9836 214.72 33.6413C214.72 30.2991 215.514 27.312 217.102 24.68C218.691 22.048 220.886 20.0009 223.686 18.5387C226.529 17.0347 229.727 16.2827 233.28 16.2827C236.834 16.2827 240.011 17.0347 242.812 18.5387C245.613 20.0009 247.807 22.048 249.396 24.68C250.984 27.312 251.779 30.2991 251.779 33.6413C251.779 36.9836 250.984 39.9707 249.396 42.6027C247.807 45.2347 245.613 47.3027 242.812 48.8067C240.011 50.2689 236.834 51 233.28 51ZM233.28 42.9787C235.789 42.9787 237.837 42.1431 239.426 40.472C241.056 38.7591 241.871 36.4822 241.871 33.6413C241.871 30.8004 241.056 28.5444 239.426 26.8733C237.837 25.1604 235.789 24.304 233.28 24.304C230.772 24.304 228.703 25.1604 227.073 26.8733C225.442 28.5444 224.627 30.8004 224.627 33.6413C224.627 36.4822 225.442 38.7591 227.073 40.472C228.703 42.1431 230.772 42.9787 233.28 42.9787Z"/>
<path d="M271.373 16.2827C276.599 16.2827 280.612 17.536 283.413 20.0427C286.213 22.5076 287.614 26.2467 287.614 31.26V50.4987H278.459V46.3C276.62 49.4333 273.192 51 268.175 51C265.583 51 263.326 50.5613 261.403 49.684C259.522 48.8067 258.08 47.5951 257.076 46.0493C256.073 44.5036 255.571 42.7489 255.571 40.7853C255.571 37.652 256.742 35.1871 259.083 33.3907C261.466 31.5942 265.123 30.696 270.056 30.696H277.832C277.832 28.5653 277.184 26.936 275.888 25.808C274.592 24.6382 272.648 24.0533 270.056 24.0533C268.259 24.0533 266.482 24.3458 264.726 24.9307C263.012 25.4738 261.549 26.2258 260.337 27.1867L256.825 20.356C258.665 19.0609 260.859 18.0582 263.41 17.348C266.001 16.6378 268.656 16.2827 271.373 16.2827ZM270.621 44.42C272.293 44.42 273.777 44.044 275.073 43.292C276.369 42.4982 277.288 41.3493 277.832 39.8453V36.3987H271.122C267.109 36.3987 265.103 37.7147 265.103 40.3467C265.103 41.6 265.583 42.6027 266.545 43.3547C267.548 44.0649 268.907 44.42 270.621 44.42Z"/>
<path d="M331.197 4V50.4987H321.854V46.6133C319.43 49.5378 315.918 51 311.32 51C308.142 51 305.258 50.2898 302.666 48.8693C300.116 47.4489 298.11 45.4227 296.646 42.7907C295.183 40.1587 294.452 37.1089 294.452 33.6413C294.452 30.1738 295.183 27.124 296.646 24.492C298.11 21.86 300.116 19.8338 302.666 18.4133C305.258 16.9929 308.142 16.2827 311.32 16.2827C315.625 16.2827 318.991 17.6404 321.415 20.356V4H331.197ZM313.013 42.9787C315.479 42.9787 317.527 42.1431 319.158 40.472C320.788 38.7591 321.603 36.4822 321.603 33.6413C321.603 30.8004 320.788 28.5444 319.158 26.8733C317.527 25.1604 315.479 24.304 313.013 24.304C310.504 24.304 308.435 25.1604 306.805 26.8733C305.174 28.5444 304.359 30.8004 304.359 33.6413C304.359 36.4822 305.174 38.7591 306.805 40.472C308.435 42.1431 310.504 42.9787 313.013 42.9787Z"/>
<path d="M398.956 6.632V50.4987H390.616L368.732 23.8653V50.4987H358.699V6.632H367.102L388.923 33.2653V6.632H398.956Z"/>
<path d="M424.704 51C421.151 51 417.953 50.2689 415.11 48.8067C412.309 47.3027 410.115 45.2347 408.526 42.6027C406.938 39.9707 406.143 36.9836 406.143 33.6413C406.143 30.2991 406.938 27.312 408.526 24.68C410.115 22.048 412.309 20.0009 415.11 18.5387C417.953 17.0347 421.151 16.2827 424.704 16.2827C428.257 16.2827 431.435 17.0347 434.235 18.5387C437.036 20.0009 439.231 22.048 440.819 24.68C442.408 27.312 443.202 30.2991 443.202 33.6413C443.202 36.9836 442.408 39.9707 440.819 42.6027C439.231 45.2347 437.036 47.3027 434.235 48.8067C431.435 50.2689 428.257 51 424.704 51ZM424.704 42.9787C427.212 42.9787 429.261 42.1431 430.849 40.472C432.48 38.7591 433.295 36.4822 433.295 33.6413C433.295 30.8004 432.48 28.5444 430.849 26.8733C429.261 25.1604 427.212 24.304 424.704 24.304C422.196 24.304 420.127 25.1604 418.496 26.8733C416.866 28.5444 416.051 30.8004 416.051 33.6413C416.051 36.4822 416.866 38.7591 418.496 40.472C420.127 42.1431 422.196 42.9787 424.704 42.9787Z"/>
<path d="M503 16.784L490.772 50.4987H481.367L473.779 29.568L465.941 50.4987H456.535L444.37 16.784H453.588L461.552 39.5947L469.829 16.784H478.106L486.132 39.5947L494.347 16.784H503Z"/>
</mask>
<path d="M5 6.632H24.9404C29.706 6.632 33.9073 7.55111 37.5442 9.38933C41.223 11.1858 44.0656 13.7342 46.0722 17.0347C48.1206 20.3351 49.1448 24.1787 49.1448 28.5653C49.1448 32.952 48.1206 36.7956 46.0722 40.096C44.0656 43.3964 41.223 45.9658 37.5442 47.804C33.9073 49.6004 29.706 50.4987 24.9404 50.4987H5V6.632ZM24.4388 42.164C28.8282 42.164 32.3188 40.9524 34.9106 38.5293C37.5442 36.0644 38.8611 32.7431 38.8611 28.5653C38.8611 24.3876 37.5442 21.0871 34.9106 18.664C32.3188 16.1991 28.8282 14.9667 24.4388 14.9667H15.1583V42.164H24.4388Z" stroke="#F0F0F0" stroke-width="2.4" mask="url(#path-1-inside-1)"/>
<path d="M72.1685 51C68.6152 51 65.4172 50.2689 62.5746 48.8067C59.7737 47.3027 57.579 45.2347 55.9905 42.6027C54.4019 39.9707 53.6077 36.9836 53.6077 33.6413C53.6077 30.2991 54.4019 27.312 55.9905 24.68C57.579 22.048 59.7737 20.0009 62.5746 18.5387C65.4172 17.0347 68.6152 16.2827 72.1685 16.2827C75.7219 16.2827 78.8989 17.0347 81.6998 18.5387C84.5007 20.0009 86.6954 22.048 88.2839 24.68C89.8724 27.312 90.6667 30.2991 90.6667 33.6413C90.6667 36.9836 89.8724 39.9707 88.2839 42.6027C86.6954 45.2347 84.5007 47.3027 81.6998 48.8067C78.8989 50.2689 75.7219 51 72.1685 51ZM72.1685 42.9787C74.6768 42.9787 76.7251 42.1431 78.3137 40.472C79.944 38.7591 80.7592 36.4822 80.7592 33.6413C80.7592 30.8004 79.944 28.5444 78.3137 26.8733C76.7251 25.1604 74.6768 24.304 72.1685 24.304C69.6603 24.304 67.591 25.1604 65.9607 26.8733C64.3303 28.5444 63.5152 30.8004 63.5152 33.6413C63.5152 36.4822 64.3303 38.7591 65.9607 40.472C67.591 42.1431 69.6603 42.9787 72.1685 42.9787Z" stroke="#F0F0F0" stroke-width="2.4" mask="url(#path-1-inside-1)"/>
<path d="M150.464 16.784L138.237 50.4987H128.831L121.244 29.568L113.405 50.4987H103.999L91.8346 16.784H101.052L109.016 39.5947L117.293 16.784H125.57L133.597 39.5947L141.811 16.784H150.464Z" stroke="#F0F0F0" stroke-width="2.4" mask="url(#path-1-inside-1)"/>
<path d="M175.517 16.2827C179.697 16.2827 183.062 17.536 185.612 20.0427C188.204 22.5493 189.5 26.2676 189.5 31.1973V50.4987H179.718V32.7013C179.718 30.0276 179.133 28.0431 177.962 26.748C176.792 25.4111 175.099 24.7427 172.883 24.7427C170.417 24.7427 168.452 25.5156 166.989 27.0613C165.526 28.5653 164.794 30.8213 164.794 33.8293V50.4987H155.012V16.784H164.355V20.732C165.651 19.3116 167.261 18.2253 169.184 17.4733C171.106 16.6796 173.218 16.2827 175.517 16.2827Z" stroke="#F0F0F0" stroke-width="2.4" mask="url(#path-1-inside-1)"/>
<path d="M198.367 4H208.149V50.4987H198.367V4Z" stroke="#F0F0F0" stroke-width="2.4" mask="url(#path-1-inside-1)"/>
<path d="M233.28 51C229.727 51 226.529 50.2689 223.686 48.8067C220.886 47.3027 218.691 45.2347 217.102 42.6027C215.514 39.9707 214.72 36.9836 214.72 33.6413C214.72 30.2991 215.514 27.312 217.102 24.68C218.691 22.048 220.886 20.0009 223.686 18.5387C226.529 17.0347 229.727 16.2827 233.28 16.2827C236.834 16.2827 240.011 17.0347 242.812 18.5387C245.613 20.0009 247.807 22.048 249.396 24.68C250.984 27.312 251.779 30.2991 251.779 33.6413C251.779 36.9836 250.984 39.9707 249.396 42.6027C247.807 45.2347 245.613 47.3027 242.812 48.8067C240.011 50.2689 236.834 51 233.28 51ZM233.28 42.9787C235.789 42.9787 237.837 42.1431 239.426 40.472C241.056 38.7591 241.871 36.4822 241.871 33.6413C241.871 30.8004 241.056 28.5444 239.426 26.8733C237.837 25.1604 235.789 24.304 233.28 24.304C230.772 24.304 228.703 25.1604 227.073 26.8733C225.442 28.5444 224.627 30.8004 224.627 33.6413C224.627 36.4822 225.442 38.7591 227.073 40.472C228.703 42.1431 230.772 42.9787 233.28 42.9787Z" stroke="#F0F0F0" stroke-width="2.4" mask="url(#path-1-inside-1)"/>
<path d="M271.373 16.2827C276.599 16.2827 280.612 17.536 283.413 20.0427C286.213 22.5076 287.614 26.2467 287.614 31.26V50.4987H278.459V46.3C276.62 49.4333 273.192 51 268.175 51C265.583 51 263.326 50.5613 261.403 49.684C259.522 48.8067 258.08 47.5951 257.076 46.0493C256.073 44.5036 255.571 42.7489 255.571 40.7853C255.571 37.652 256.742 35.1871 259.083 33.3907C261.466 31.5942 265.123 30.696 270.056 30.696H277.832C277.832 28.5653 277.184 26.936 275.888 25.808C274.592 24.6382 272.648 24.0533 270.056 24.0533C268.259 24.0533 266.482 24.3458 264.726 24.9307C263.012 25.4738 261.549 26.2258 260.337 27.1867L256.825 20.356C258.665 19.0609 260.859 18.0582 263.41 17.348C266.001 16.6378 268.656 16.2827 271.373 16.2827ZM270.621 44.42C272.293 44.42 273.777 44.044 275.073 43.292C276.369 42.4982 277.288 41.3493 277.832 39.8453V36.3987H271.122C267.109 36.3987 265.103 37.7147 265.103 40.3467C265.103 41.6 265.583 42.6027 266.545 43.3547C267.548 44.0649 268.907 44.42 270.621 44.42Z" stroke="#F0F0F0" stroke-width="2.4" mask="url(#path-1-inside-1)"/>
<path d="M331.197 4V50.4987H321.854V46.6133C319.43 49.5378 315.918 51 311.32 51C308.142 51 305.258 50.2898 302.666 48.8693C300.116 47.4489 298.11 45.4227 296.646 42.7907C295.183 40.1587 294.452 37.1089 294.452 33.6413C294.452 30.1738 295.183 27.124 296.646 24.492C298.11 21.86 300.116 19.8338 302.666 18.4133C305.258 16.9929 308.142 16.2827 311.32 16.2827C315.625 16.2827 318.991 17.6404 321.415 20.356V4H331.197ZM313.013 42.9787C315.479 42.9787 317.527 42.1431 319.158 40.472C320.788 38.7591 321.603 36.4822 321.603 33.6413C321.603 30.8004 320.788 28.5444 319.158 26.8733C317.527 25.1604 315.479 24.304 313.013 24.304C310.504 24.304 308.435 25.1604 306.805 26.8733C305.174 28.5444 304.359 30.8004 304.359 33.6413C304.359 36.4822 305.174 38.7591 306.805 40.472C308.435 42.1431 310.504 42.9787 313.013 42.9787Z" stroke="#F0F0F0" stroke-width="2.4" mask="url(#path-1-inside-1)"/>
<path d="M398.956 6.632V50.4987H390.616L368.732 23.8653V50.4987H358.699V6.632H367.102L388.923 33.2653V6.632H398.956Z" stroke="#F0F0F0" stroke-width="2.4" mask="url(#path-1-inside-1)"/>
<path d="M424.704 51C421.151 51 417.953 50.2689 415.11 48.8067C412.309 47.3027 410.115 45.2347 408.526 42.6027C406.938 39.9707 406.143 36.9836 406.143 33.6413C406.143 30.2991 406.938 27.312 408.526 24.68C410.115 22.048 412.309 20.0009 415.11 18.5387C417.953 17.0347 421.151 16.2827 424.704 16.2827C428.257 16.2827 431.435 17.0347 434.235 18.5387C437.036 20.0009 439.231 22.048 440.819 24.68C442.408 27.312 443.202 30.2991 443.202 33.6413C443.202 36.9836 442.408 39.9707 440.819 42.6027C439.231 45.2347 437.036 47.3027 434.235 48.8067C431.435 50.2689 428.257 51 424.704 51ZM424.704 42.9787C427.212 42.9787 429.261 42.1431 430.849 40.472C432.48 38.7591 433.295 36.4822 433.295 33.6413C433.295 30.8004 432.48 28.5444 430.849 26.8733C429.261 25.1604 427.212 24.304 424.704 24.304C422.196 24.304 420.127 25.1604 418.496 26.8733C416.866 28.5444 416.051 30.8004 416.051 33.6413C416.051 36.4822 416.866 38.7591 418.496 40.472C420.127 42.1431 422.196 42.9787 424.704 42.9787Z" stroke="#F0F0F0" stroke-width="2.4" mask="url(#path-1-inside-1)"/>
<path d="M503 16.784L490.772 50.4987H481.367L473.779 29.568L465.941 50.4987H456.535L444.37 16.784H453.588L461.552 39.5947L469.829 16.784H478.106L486.132 39.5947L494.347 16.784H503Z" stroke="#F0F0F0" stroke-width="2.4" mask="url(#path-1-inside-1)"/>
</g>
<defs>
<filter id="filter0_bd" x="-166" y="-167" width="840" height="389" filterUnits="userSpaceOnUse" color-interpolation-filters="sRGB">
<feFlood flood-opacity="0" result="BackgroundImageFix"/>
<feGaussianBlur in="BackgroundImage" stdDeviation="85.5"/>
<feComposite in2="SourceAlpha" operator="in" result="effect1_backgroundBlur"/>
<feColorMatrix in="SourceAlpha" type="matrix" values="0 0 0 0 0 0 0 0 0 0 0 0 0 0 0 0 0 0 127 0" result="hardAlpha"/>
<feOffset dx="3" dy="4"/>
<feGaussianBlur stdDeviation="4"/>
<feColorMatrix type="matrix" values="0 0 0 0 0.728338 0 0 0 0 0.398972 0 0 0 0 0.883333 0 0 0 0.9 0"/>
<feBlend mode="normal" in2="effect1_backgroundBlur" result="effect2_dropShadow"/>
<feBlend mode="normal" in="SourceGraphic" in2="effect2_dropShadow" result="shape"/>
</filter>
</defs>
</svg>
