<svg width="195" height="52" viewBox="0 0 195 52" fill="none" xmlns="http://www.w3.org/2000/svg">
<path d="M1.60446 44.3341L19.7934 13.4152C20.1777 12.7764 19.6653 11.8821 18.8967 11.8821H10.5708C9.93038 11.8821 9.41801 11.2433 9.67419 10.7322L11.3394 3.32189C11.4675 2.9386 11.8517 2.55531 12.236 2.55531H34.3958C35.0362 2.55531 35.5486 3.19413 35.2924 3.70518L33.8834 9.71009C33.8834 9.83785 33.8834 9.83786 33.7553 9.96562L16.9754 40.3734C16.5911 41.0123 17.1035 41.7788 17.872 41.7788H26.5822C27.2227 41.7788 27.735 42.4177 27.4788 43.0565L24.917 50.4668C24.7889 50.8501 24.4047 51.1056 24.0204 51.1056H0.964008C0.323553 51.1056 -0.188811 50.4668 0.0673708 49.9557L1.34828 44.5896C1.47637 44.5896 1.47637 44.4619 1.60446 44.3341Z" fill="url(#paint0_linear)"/>
<path d="M59.7577 40.629C59.2454 42.5455 58.0926 48.1671 57.5802 50.4668C57.4521 50.9779 57.0678 51.2334 56.5555 51.2334H46.3082C45.6677 51.2334 45.2835 50.7224 45.2835 50.0835C45.4116 49.5725 45.4116 48.9337 45.5396 48.2949C42.9778 50.9779 40.416 51.7445 37.4699 51.7445C31.5777 51.7445 29.0159 47.2727 31.0654 38.7126C33.1148 30.2801 37.598 27.2138 48.6138 26.1917C48.9981 26.1917 49.3824 26.0639 49.8947 26.0639C50.279 26.0639 50.6633 25.6806 50.7914 25.2973L51.4318 22.3588C51.9442 19.9313 51.5599 19.1647 50.279 19.1647C49.1262 19.1647 48.3576 19.8035 47.8453 21.9755L47.5891 23.1254C47.461 23.5087 47.0767 23.8919 46.6925 23.8919H35.8047L36.189 22.4865C38.2385 13.9264 42.5936 11.2433 51.3037 11.2433C60.2701 11.2433 66.0342 13.7986 63.7286 23.7642L59.7577 40.629ZM48.87 33.7298C48.6138 33.7298 48.2296 33.8575 47.8453 33.8575C45.5396 34.2408 44.5149 35.1352 43.6183 38.8403C43.1059 41.5233 43.6183 42.5455 44.8992 42.5455C46.4363 42.5455 46.9486 41.3956 47.3329 40.118L48.87 33.7298Z" fill="url(#paint1_linear)"/>
<path d="M67.9557 25.2973C69.3647 19.0369 70.2614 14.9485 70.7737 12.6487C70.9018 12.1376 71.2861 11.8821 71.6704 11.8821H81.9177C82.5581 11.8821 82.9424 12.3932 82.9424 13.032C82.8143 13.9263 83.839 14.5652 84.6076 13.9263C86.2727 12.3932 88.4503 11.6266 90.6278 11.3711C91.2683 11.2433 91.9088 11.8821 91.6526 12.5209L88.9627 23.8919C88.8346 24.403 88.4503 24.6585 87.9379 24.6585C81.021 24.5308 79.8682 27.8526 78.9716 31.9411L74.6165 50.4668C74.4884 50.8501 74.1041 51.2334 73.7198 51.2334H63.2164C62.5759 51.2334 62.0635 50.5946 62.3197 50.0835L67.9557 25.2973Z" fill="url(#paint2_linear)"/>
<path d="M125.725 0.383296C126.365 0.383296 126.878 1.02211 126.621 1.53316L117.527 40.3734C116.63 44.0786 115.734 48.167 115.349 50.339C115.221 50.85 114.837 51.1056 114.325 51.1056H103.949C103.309 51.1056 102.924 50.5945 102.924 49.9557C103.053 49.1891 103.181 48.2948 103.309 47.656C100.747 50.5945 98.4413 51.6166 94.8548 51.6166C88.3221 51.6166 86.9131 46.8894 88.4502 39.7346L92.421 22.6142C93.83 16.6093 96.648 10.8599 104.205 10.8599C106.511 10.8599 108.561 11.4988 109.841 12.5209C110.354 13.0319 111.25 12.6486 111.379 12.0098L113.94 0.766582C114.068 0.38329 114.453 0 114.837 0H125.725V0.383296ZM105.102 23.5086L101.259 39.6068C100.875 41.2677 101.003 42.6731 102.54 42.6731C103.949 42.6731 104.59 41.9066 105.102 39.8623L108.945 23.5086C109.457 21.3366 108.945 20.57 107.664 20.57C106.511 20.57 105.743 21.2088 105.102 23.5086Z" fill="url(#paint3_linear)"/>
<path d="M129.695 11.8821H140.199C140.839 11.8821 141.352 12.5209 141.096 13.032L132.385 50.4668C132.257 50.8501 131.873 51.2334 131.489 51.2334H120.985C120.345 51.2334 119.832 50.5946 120.089 50.0835L128.799 12.6487C128.799 12.1376 129.183 11.8821 129.695 11.8821ZM132.257 0.383365H142.761C143.401 0.383365 143.914 1.02218 143.657 1.53323L141.992 8.68802C141.864 9.07131 141.48 9.4546 141.096 9.4546H130.592C129.952 9.4546 129.439 8.81578 129.695 8.30472L131.361 1.14995C131.489 0.638891 131.873 0.383365 132.257 0.383365Z" fill="url(#paint4_linear)"/>
<path d="M145.579 11.8819H148.141C148.653 11.8819 149.037 11.6264 149.037 11.1153L150.574 4.47161C150.702 4.08832 151.087 3.70503 151.471 3.70503H161.846C162.487 3.70503 162.999 4.34385 162.743 4.8549L161.334 10.6043C161.206 11.2431 161.59 11.7541 162.231 11.7541H164.024C164.664 11.7541 165.177 12.393 164.921 12.904L163.255 20.1866C163.127 20.5699 162.743 20.9532 162.359 20.9532H159.669C159.156 20.9532 158.772 21.2087 158.772 21.7197L154.417 39.4789C154.033 41.2676 154.545 41.7787 156.723 41.7787C156.979 41.7787 158.004 41.7787 158.516 41.6509L156.595 50.0833C156.467 50.4666 156.21 50.7222 155.826 50.8499C153.52 51.361 150.959 51.4887 149.678 51.4887C141.992 51.4887 139.687 48.5502 141.224 42.0342L146.219 22.3586C146.347 21.7197 145.963 21.2087 145.323 21.2087H144.042C143.401 21.2087 142.889 20.5699 143.145 20.0588L144.81 12.7763C144.81 12.1374 145.195 11.8819 145.579 11.8819Z" fill="url(#paint5_linear)"/>
<path d="M176.961 34.2408C176.449 34.2408 176.064 34.6241 176.064 35.0074L174.912 40.629C174.399 42.801 175.168 43.4398 176.064 43.4398C177.473 43.4398 178.114 42.6732 178.626 40.5012L179.139 38.5848C179.267 38.2015 179.651 37.8182 180.035 37.8182H191.435L191.051 39.6069C189.386 47.2727 185.671 52 174.912 52C163.255 52 160.95 46.1229 162.999 37.0516L165.945 24.5308C167.995 16.0983 172.094 11.2433 182.469 11.2433C194.125 11.2433 196.303 16.7372 194.381 25.5529L192.588 33.4742C192.46 33.8575 192.076 34.2408 191.692 34.2408H176.961ZM180.804 26.9583C181.316 26.9583 181.7 26.7027 181.7 26.1917L182.213 23.7642C182.981 20.8256 183.109 19.4202 181.316 19.4202C179.651 19.4202 179.267 20.3145 178.498 24.0197L178.114 25.8084C177.986 26.4472 178.498 26.9583 179.011 26.9583H180.804Z" fill="url(#paint6_linear)"/>
<defs>
<linearGradient id="paint0_linear" x1="43.3246" y1="120.317" x2="92.8066" y2="-25.0959" gradientUnits="userSpaceOnUse">
<stop offset="1.06556e-07" stop-color="#6E5CD9"/>
<stop offset="0.2319" stop-color="#7A63DE"/>
<stop offset="0.652" stop-color="#9B76EA"/>
<stop offset="1" stop-color="#BA88F6"/>
</linearGradient>
<linearGradient id="paint1_linear" x1="43.3246" y1="120.317" x2="92.8066" y2="-25.0959" gradientUnits="userSpaceOnUse">
<stop offset="1.06556e-07" stop-color="#6E5CD9"/>
<stop offset="0.2319" stop-color="#7A63DE"/>
<stop offset="0.652" stop-color="#9B76EA"/>
<stop offset="1" stop-color="#BA88F6"/>
</linearGradient>
<linearGradient id="paint2_linear" x1="43.3246" y1="120.317" x2="92.8066" y2="-25.0959" gradientUnits="userSpaceOnUse">
<stop offset="1.06556e-07" stop-color="#6E5CD9"/>
<stop offset="0.2319" stop-color="#7A63DE"/>
<stop offset="0.652" stop-color="#9B76EA"/>
<stop offset="1" stop-color="#BA88F6"/>
</linearGradient>
<linearGradient id="paint3_linear" x1="43.3246" y1="120.317" x2="92.8066" y2="-25.0959" gradientUnits="userSpaceOnUse">
<stop offset="1.06556e-07" stop-color="#6E5CD9"/>
<stop offset="0.2319" stop-color="#7A63DE"/>
<stop offset="0.652" stop-color="#9B76EA"/>
<stop offset="1" stop-color="#BA88F6"/>
</linearGradient>
<linearGradient id="paint4_linear" x1="43.3246" y1="120.317" x2="92.8066" y2="-25.0959" gradientUnits="userSpaceOnUse">
<stop offset="1.06556e-07" stop-color="#6E5CD9"/>
<stop offset="0.2319" stop-color="#7A63DE"/>
<stop offset="0.652" stop-color="#9B76EA"/>
<stop offset="1" stop-color="#BA88F6"/>
</linearGradient>
<linearGradient id="paint5_linear" x1="43.3246" y1="120.317" x2="92.8066" y2="-25.0959" gradientUnits="userSpaceOnUse">
<stop offset="1.06556e-07" stop-color="#6E5CD9"/>
<stop offset="0.2319" stop-color="#7A63DE"/>
<stop offset="0.652" stop-color="#9B76EA"/>
<stop offset="1" stop-color="#BA88F6"/>
</linearGradient>
<linearGradient id="paint6_linear" x1="43.3246" y1="120.317" x2="92.8066" y2="-25.0959" gradientUnits="userSpaceOnUse">
<stop offset="1.06556e-07" stop-color="#6E5CD9"/>
<stop offset="0.2319" stop-color="#7A63DE"/>
<stop offset="0.652" stop-color="#9B76EA"/>
<stop offset="1" stop-color="#BA88F6"/>
</linearGradient>
</defs>
</svg>
