<svg id="SvgjsSvg1001" width="288" height="288" xmlns="http://www.w3.org/2000/svg" version="1.1" xmlns:xlink="http://www.w3.org/1999/xlink" xmlns:svgjs="http://svgjs.com/svgjs"><defs id="SvgjsDefs1002"></defs><g id="SvgjsG1008" transform="matrix(1,0,0,1,0,0)"><svg xmlns="http://www.w3.org/2000/svg" width="288" height="288" version="1.0" viewBox="0 0 512 512"><g transform="matrix(.1 0 0 -.1 0 512)" fill="#ffffff" class="color000 svgShape"><path d="M92 3823c-94-46-121-165-55-244 54-63-134-59 2523-59 2684 0 2472-6 2526 66 24 31 29 47 29 94 0 47-5 63-29 94-54 72 159 66-2528 66-2219 0-2436-2-2466-17zM95 2706c-94-41-124-168-58-247 54-63-134-59 2523-59 2684 0 2472-6 2526 66 24 31 29 47 29 94 0 47-5 63-29 94-54 72 159 66-2528 66-2000-1-2438-3-2463-14zM1695 1586c-94-41-124-168-58-247 53-63-59-59 1724-59 1816 0 1671-6 1727 68 22 29 27 46 27 93 0 62-17 94-69 133-27 21-28 21-1674 23-1354 2-1652 0-1677-11z" fill="#ffffff" class="color000 svgShape"></path></g></svg></g></svg>