<svg width="123" height="122" viewBox="0 0 123 122" fill="none" xmlns="http://www.w3.org/2000/svg">
<path d="M1.57677 96.309L59.4184 36.6424C62.6474 33.4133 60.2607 27.7977 55.6278 27.7977H8.59638C5.78854 27.7977 3.40188 25.411 3.40188 22.6031V5.19451C3.40188 2.38667 5.78854 0 8.59638 0H112.065C114.873 0 117.26 2.38667 117.26 5.19451V24.709C117.26 26.1129 116.698 27.3765 115.716 28.3592L59.5587 85.3585C56.3297 88.5875 58.7164 94.2031 63.2089 94.2031H117.681C120.91 94.2031 123.297 97.011 122.876 100.24L120.068 117.649C119.647 120.176 117.541 122.001 114.873 122.001H5.36736C2.55952 122.001 0.172852 119.614 0.172852 116.806V99.8188C0.172852 98.5553 0.594028 97.2918 1.57677 96.309Z" fill="url(#paint0_linear)"/>
<defs>
<linearGradient id="paint0_linear" x1="0.131155" y1="61.024" x2="122.835" y2="61.024" gradientUnits="userSpaceOnUse">
<stop offset="1.06556e-07" stop-color="#6E5CD9"/>
<stop offset="0.2319" stop-color="#7A63DE"/>
<stop offset="0.652" stop-color="#9B76EA"/>
<stop offset="1" stop-color="#BA88F6"/>
</linearGradient>
</defs>
</svg>
