<svg width="447" height="479" viewBox="0 0 447 479" fill="none" xmlns="http://www.w3.org/2000/svg">
<path d="M223.3 446.6C346.625 446.6 446.6 346.625 446.6 223.3C446.6 99.9748 346.625 0 223.3 0C99.9748 0 0 99.9748 0 223.3C0 346.625 99.9748 446.6 223.3 446.6Z" fill="url(#paint0_linear)"/>
<path d="M285.58 264.69C287.38 341.83 301.42 393.69 339.2 418.4C340.72 462.94 197.9 498.16 199.14 467.31C200.38 436.46 211.46 401.42 187.77 362.31C164.08 323.2 285.58 264.69 285.58 264.69Z" fill="url(#paint1_linear)"/>
<path d="M285.58 264.69C287.38 341.83 301.42 393.69 339.2 418.4C340.72 462.94 197.9 498.16 199.14 467.31C200.38 436.46 211.46 401.42 187.77 362.31C164.08 323.2 285.58 264.69 285.58 264.69Z" fill="url(#paint2_linear)"/>
<g style="mix-blend-mode:multiply">
<path style="mix-blend-mode:multiply" d="M254.68 267.23C261 292 267 297.17 267.84 310.56C269.5 336.2 234.67 375.29 199.74 391.25C197.268 381.051 193.219 371.3 187.74 362.35C167 328.08 240 284.9 254.68 267.23Z" fill="url(#paint3_linear)"/>
</g>
<path d="M264.25 324.39C246.78 355.49 203.74 375.94 143.73 361.6C83.72 347.26 97.88 272.52 115.24 208.34C132.24 145.34 178.44 88.1399 271.93 119.24C365.42 150.34 286.35 285 264.25 324.39Z" fill="url(#paint4_linear)"/>
<path d="M264.25 324.39C246.78 355.49 203.74 375.94 143.73 361.6C83.72 347.26 97.88 272.52 115.24 208.34C132.24 145.34 178.44 88.1399 271.93 119.24C365.42 150.34 286.35 285 264.25 324.39Z" fill="url(#paint5_linear)"/>
<g style="mix-blend-mode:multiply" opacity="0.7">
<g style="mix-blend-mode:multiply" opacity="0.7">
<path d="M163.63 289.8C156.93 277.67 148.19 299.93 137.76 300.88C127.33 301.83 127.31 286.49 122.93 287C118.55 287.51 119.78 321.51 142.08 322.83C153.11 323.5 169.29 300.05 163.63 289.8Z" fill="#F3A7A4"/>
</g>
</g>
<g style="mix-blend-mode:multiply">
<path style="mix-blend-mode:multiply" d="M206.56 181.54C185.08 177.65 152.03 177.54 125.99 178.32C121.585 188.006 117.99 198.041 115.24 208.32C108.79 232.15 102.79 257.43 100.87 280.54C108.38 285.54 116.96 288.27 124.63 287.05C132.3 285.83 142.63 284.49 148.97 284.64C152.189 284.704 155.376 285.285 158.41 286.36C191.76 298.36 251.49 304.36 259.41 256.02C267.63 205.76 244.33 188.38 206.56 181.54Z" fill="url(#paint6_linear)"/>
</g>
<path d="M345.49 133.28C384.63 146.91 390.39 182.49 300.84 276.05C283.84 293.82 236.3 201.29 265.94 151.79C227.43 157.79 78.9401 175.79 83.2501 96.27C85.6401 52 167.32 19.76 206.44 73.14C249.1 131.35 354.18 64.64 345.49 133.28Z" fill="url(#paint7_linear)"/>
<path style="mix-blend-mode:multiply" opacity="0.5" d="M345.49 133.28C384.63 146.91 390.39 182.49 300.84 276.05C283.84 293.82 236.3 201.29 265.94 151.79C227.43 157.79 78.9401 175.79 83.2501 96.27C85.6401 52 167.32 19.76 206.44 73.14C249.1 131.35 354.18 64.64 345.49 133.28Z" fill="url(#paint8_linear)"/>
<path d="M345.49 133.28C384.63 146.91 390.39 182.49 300.84 276.05C283.84 293.82 236.3 201.29 265.94 151.79C227.43 157.79 78.9401 175.79 83.2501 96.27C85.6401 52 167.32 19.76 206.44 73.14C249.1 131.35 354.18 64.64 345.49 133.28Z" fill="url(#paint9_linear)"/>
<path d="M372.52 141.09C372.016 139.426 371.158 137.89 370.005 136.589C368.852 135.288 367.431 134.251 365.84 133.55C359.65 130.61 351.27 131.55 345.72 133.83L343.95 134.55L344.95 132.95C350.45 124.52 350.19 106.71 348.37 102.06L349.49 101.63C351.27 106.18 351.61 122.96 346.81 132.14C352.54 130.23 360.36 129.65 366.31 132.47C368.046 133.25 369.596 134.391 370.857 135.817C372.117 137.243 373.059 138.921 373.62 140.74L372.52 141.09Z" fill="#271135"/>
<path d="M82.3596 152.76C124.741 151.653 167.148 153.561 209.26 158.47C247.39 162.91 263.81 178.27 255.58 228.55C247.67 276.89 187.95 270.89 154.58 258.89C151.547 257.81 148.359 257.229 145.14 257.17C138.81 257.01 128.62 258.33 120.8 259.57C104.8 262.13 62.2296 248.4 56.2996 231.13C50.3696 213.86 82.3596 152.76 82.3596 152.76Z" fill="#FDFFFE"/>
<path d="M241.09 195.56L238.44 234.77L246.39 235.55C273.218 238.154 298.176 250.448 316.59 270.13L317.02 270.59L334.02 243.59C334.09 242.28 331.93 239.32 328.67 235.59C312.482 217.306 290.669 204.929 266.67 200.41L241.09 195.56Z" fill="url(#paint10_linear)"/>
<path d="M195.85 256.77L70.8504 243.7C68.0052 243.403 65.2463 242.548 62.7314 241.185C60.2165 239.821 57.9949 237.976 56.1934 235.754C54.3918 233.531 53.0457 230.976 52.2319 228.234C51.4181 225.491 51.1526 222.615 51.4504 219.77L56.4504 171.95C56.7474 169.105 57.6021 166.347 58.9657 163.832C60.3293 161.318 62.175 159.097 64.3974 157.296C66.6197 155.495 69.1751 154.15 71.9176 153.338C74.6601 152.525 77.5358 152.261 80.3804 152.56L205.38 165.62C208.226 165.917 210.984 166.772 213.499 168.135C216.014 169.499 218.236 171.344 220.037 173.566C221.839 175.788 223.185 178.344 223.999 181.086C224.813 183.829 225.078 186.705 224.78 189.55L219.78 237.37C218.53 249.33 204.12 257.39 195.85 256.77Z" fill="#A67DFF"/>
<path d="M195.85 256.77L70.8504 243.7C68.0052 243.403 65.2463 242.548 62.7314 241.185C60.2165 239.821 57.9949 237.976 56.1934 235.754C54.3918 233.531 53.0457 230.976 52.2319 228.234C51.4181 225.491 51.1526 222.615 51.4504 219.77L56.4504 171.95C56.7474 169.105 57.6021 166.347 58.9657 163.832C60.3293 161.318 62.175 159.097 64.3974 157.296C66.6197 155.495 69.1751 154.15 71.9176 153.338C74.6601 152.525 77.5358 152.261 80.3804 152.56L205.38 165.62C208.226 165.917 210.984 166.772 213.499 168.135C216.014 169.499 218.236 171.344 220.037 173.566C221.839 175.788 223.185 178.344 223.999 181.086C224.813 183.829 225.078 186.705 224.78 189.55L219.78 237.37C218.53 249.33 203.58 257.67 195.85 256.77Z" fill="url(#paint11_linear)"/>
<path opacity="0.45" d="M127 157.43L59 238.61C62.3436 241.473 66.481 243.249 70.86 243.7L79.32 244.59L150.25 159.86L127 157.43Z" fill="url(#paint12_linear)"/>
<path opacity="0.45" d="M135.68 250.47L206.58 165.78C206.18 165.72 205.78 165.66 205.38 165.62L161.12 161L90.1904 245.72L135.68 250.47Z" fill="url(#paint13_linear)"/>
<path d="M224.43 185.69L219.93 228.69C219.606 231.799 218.674 234.813 217.185 237.562C215.696 240.31 213.68 242.738 211.253 244.706C208.825 246.675 206.033 248.146 203.037 249.036C200.041 249.925 196.898 250.215 193.79 249.89L152.21 245.54C151.115 245.426 150.077 244.998 149.221 244.308C148.364 243.618 147.724 242.695 147.38 241.65L147.25 241.27C147.05 240.664 146.678 240.129 146.179 239.731C145.68 239.333 145.075 239.089 144.44 239.03L114.35 236.21C113.724 236.154 113.095 236.277 112.537 236.566C111.979 236.855 111.515 237.297 111.2 237.84C110.649 238.799 109.831 239.578 108.846 240.08C107.86 240.583 106.75 240.788 105.65 240.67L72.8397 237.24C67.5781 236.69 62.6502 234.4 58.8359 230.734C55.0215 227.069 52.5385 222.236 51.7797 217L51.6997 217.8C51.3742 220.909 51.6644 224.051 52.5538 227.047C53.4432 230.044 54.9144 232.835 56.8832 235.263C58.852 237.69 61.2798 239.706 64.028 241.195C66.7762 242.684 69.7909 243.617 72.8997 243.94L105.73 247.37L150.83 252.09L193.83 256.59C196.942 256.915 200.088 256.624 203.088 255.733C206.088 254.843 208.883 253.369 211.314 251.398C213.744 249.426 215.762 246.995 217.252 244.243C218.743 241.491 219.676 238.473 220 235.36L224.58 191.56C224.771 189.605 224.72 187.633 224.43 185.69Z" fill="#D0BAFF"/>
<path d="M190.44 242.87C189.606 242.878 188.771 242.841 187.94 242.76L154.36 239.12C153.237 239.023 152.163 238.611 151.263 237.932C150.363 237.253 149.672 236.334 149.27 235.28L149.16 234.96C149.021 234.603 148.782 234.293 148.472 234.068C148.161 233.843 147.793 233.712 147.41 233.69L111.15 231.43C110.764 231.388 110.373 231.452 110.021 231.616C109.668 231.78 109.367 232.037 109.15 232.36C108.532 233.321 107.658 234.091 106.626 234.584C105.595 235.077 104.447 235.273 103.31 235.15L79.4503 232.26C69.3103 231.26 61.2303 224 59.7803 214.57V214.45V214.33L63.7803 178.41C65.1203 167 76.0803 158.73 88.2703 159.9L196.75 170.41C206.89 171.41 214.99 178.66 216.43 188.09V188.21V188.33L212.37 224.25C211.19 234.85 201.6 242.78 190.44 242.87ZM110.91 229.61H111.28L147.54 231.87C148.271 231.92 148.972 232.178 149.56 232.614C150.149 233.05 150.6 233.646 150.86 234.33L150.97 234.65C151.255 235.384 151.741 236.022 152.373 236.491C153.004 236.959 153.756 237.24 154.54 237.3L188.12 241C199.35 242.09 209.41 234.5 210.59 224.09L214.59 188.29C213.22 179.73 205.81 173.14 196.59 172.24L88.1003 161.7C76.8703 160.62 66.8003 168.2 65.6203 178.62L61.6203 214.42C62.9903 222.98 70.4003 229.57 79.6803 230.42L103.53 233.31C104.332 233.391 105.141 233.247 105.865 232.894C106.589 232.54 107.201 231.992 107.63 231.31C107.995 230.778 108.485 230.345 109.057 230.048C109.629 229.752 110.266 229.601 110.91 229.61Z" fill="url(#paint14_linear)"/>
<path d="M194.35 186.51H194.13L88.3196 174.51C87.8535 174.428 87.4361 174.172 87.1522 173.794C86.8683 173.415 86.7394 172.943 86.7917 172.472C86.8439 172.002 87.0734 171.57 87.4334 171.263C87.7935 170.956 88.257 170.797 88.7296 170.82L194.54 182.82C195.013 182.869 195.45 183.099 195.76 183.461C196.07 183.822 196.229 184.289 196.205 184.765C196.18 185.241 195.974 185.689 195.629 186.018C195.284 186.346 194.826 186.529 194.35 186.53V186.51Z" fill="#D0BAFF"/>
<path d="M303.09 299.31C291.4 307.61 281.03 310.86 266.09 304.05C251.15 297.24 262.99 280.73 272.45 265.75C281.91 250.77 300.58 233.57 314.84 246.12C331.38 260.71 312.9 292.34 303.09 299.31Z" fill="url(#paint15_linear)"/>
<g style="mix-blend-mode:multiply" opacity="0.5">
<g style="mix-blend-mode:multiply" opacity="0.5">
<path d="M297 256.23C287.06 261.83 277 276.53 276.47 294.14C276.467 294.332 276.503 294.522 276.575 294.7C276.646 294.877 276.753 295.039 276.888 295.175C277.023 295.311 277.184 295.418 277.361 295.491C277.538 295.564 277.728 295.601 277.92 295.6H278.63C279.005 295.598 279.364 295.449 279.631 295.185C279.898 294.922 280.052 294.565 280.06 294.19C280.325 286.323 282.585 278.653 286.63 271.9C286.788 271.656 287.009 271.459 287.27 271.33C292.83 268.68 295.88 268.77 297.48 269.33C297.927 269.487 298.339 269.731 298.69 270.05C298.89 270.24 299.139 270.37 299.41 270.427C299.68 270.483 299.96 270.464 300.22 270.37L300.9 270.1C301.121 270.023 301.32 269.894 301.479 269.722C301.638 269.551 301.753 269.343 301.813 269.117C301.873 268.891 301.877 268.654 301.824 268.426C301.771 268.198 301.663 267.986 301.51 267.81C300.8 267.034 299.92 266.431 298.94 266.05C297.643 265.555 296.256 265.34 294.87 265.42C294.573 265.43 294.281 265.348 294.033 265.186C293.784 265.023 293.592 264.788 293.483 264.512C293.374 264.236 293.352 263.933 293.421 263.645C293.49 263.356 293.647 263.096 293.87 262.9C295.353 261.529 296.987 260.332 298.74 259.33C302.69 257.1 306.45 256.6 309.48 257.87C309.796 258.009 310.153 258.028 310.483 257.923C310.812 257.818 311.092 257.597 311.27 257.3L311.64 256.69C311.748 256.517 311.818 256.322 311.845 256.119C311.872 255.917 311.856 255.711 311.797 255.515C311.739 255.319 311.639 255.138 311.505 254.984C311.371 254.829 311.206 254.705 311.02 254.62C306.91 252.86 302 253.4 297 256.23Z" fill="#F3A7A4"/>
</g>
</g>
<g style="mix-blend-mode:multiply" opacity="0.5">
<g style="mix-blend-mode:multiply" opacity="0.5">
<path d="M125.6 273.53L135.37 281.03L162.73 277.17C162.73 277.17 160.58 270.68 149.78 267.69C141.67 265.45 137.84 269.63 127.63 268.58C127.026 268.503 126.413 268.628 125.886 268.934C125.36 269.241 124.949 269.713 124.718 270.277C124.487 270.841 124.448 271.465 124.607 272.053C124.767 272.641 125.116 273.16 125.6 273.53Z" fill="#F3A7A4"/>
</g>
</g>
<defs>
<linearGradient id="paint0_linear" x1="208.72" y1="582.24" x2="223.85" y2="209.66" gradientUnits="userSpaceOnUse">
<stop stop-color="#3856DA"/>
<stop offset="0.21" stop-color="#3856DA" stop-opacity="0.71"/>
<stop offset="0.41" stop-color="#3856DA" stop-opacity="0.45"/>
<stop offset="0.59" stop-color="#3856DA" stop-opacity="0.26"/>
<stop offset="0.76" stop-color="#3856DA" stop-opacity="0.12"/>
<stop offset="0.9" stop-color="#3856DA" stop-opacity="0.03"/>
<stop offset="1" stop-color="#3856DA" stop-opacity="0"/>
</linearGradient>
<linearGradient id="paint1_linear" x1="308.71" y1="569.21" x2="242.92" y2="360.44" gradientUnits="userSpaceOnUse">
<stop stop-color="#FDE3E2"/>
<stop offset="1" stop-color="#ED827E"/>
</linearGradient>
<linearGradient id="paint2_linear" x1="39648.4" y1="117345" x2="41826.5" y2="78661.1" gradientUnits="userSpaceOnUse">
<stop stop-color="#3856DA"/>
<stop offset="0.21" stop-color="#3856DA" stop-opacity="0.71"/>
<stop offset="0.41" stop-color="#3856DA" stop-opacity="0.45"/>
<stop offset="0.59" stop-color="#3856DA" stop-opacity="0.26"/>
<stop offset="0.76" stop-color="#3856DA" stop-opacity="0.12"/>
<stop offset="0.9" stop-color="#3856DA" stop-opacity="0.03"/>
<stop offset="1" stop-color="#3856DA" stop-opacity="0"/>
</linearGradient>
<linearGradient id="paint3_linear" x1="217.02" y1="406.7" x2="226.19" y2="329.31" gradientUnits="userSpaceOnUse">
<stop offset="0.01" stop-color="#FDE3E2" stop-opacity="0"/>
<stop offset="1" stop-color="#ED827E"/>
</linearGradient>
<linearGradient id="paint4_linear" x1="22445.1" y1="117018" x2="67886.5" y2="32593.6" gradientUnits="userSpaceOnUse">
<stop stop-color="#FDE3E2"/>
<stop offset="1" stop-color="#ED827E"/>
</linearGradient>
<linearGradient id="paint5_linear" x1="20111.1" y1="115199" x2="49036" y2="68004.3" gradientUnits="userSpaceOnUse">
<stop stop-color="#3856DA"/>
<stop offset="0.21" stop-color="#3856DA" stop-opacity="0.71"/>
<stop offset="0.41" stop-color="#3856DA" stop-opacity="0.45"/>
<stop offset="0.59" stop-color="#3856DA" stop-opacity="0.26"/>
<stop offset="0.76" stop-color="#3856DA" stop-opacity="0.12"/>
<stop offset="0.9" stop-color="#3856DA" stop-opacity="0.03"/>
<stop offset="1" stop-color="#3856DA" stop-opacity="0"/>
</linearGradient>
<linearGradient id="paint6_linear" x1="29088.4" y1="36513.9" x2="29088.4" y2="26931.5" gradientUnits="userSpaceOnUse">
<stop offset="0.01" stop-color="#FDE3E2" stop-opacity="0"/>
<stop offset="1" stop-color="#ED827E"/>
</linearGradient>
<linearGradient id="paint7_linear" x1="220.74" y1="297.21" x2="230.41" y2="72.9" gradientUnits="userSpaceOnUse">
<stop stop-color="#501F07"/>
<stop offset="1" stop-color="#6B2909"/>
</linearGradient>
<linearGradient id="paint8_linear" x1="226.09" y1="137.25" x2="205.63" y2="191.28" gradientUnits="userSpaceOnUse">
<stop stop-color="#3E3B32" stop-opacity="0"/>
<stop offset="0.96" stop-color="#050504" stop-opacity="0.92"/>
<stop offset="1"/>
</linearGradient>
<linearGradient id="paint9_linear" x1="25087" y1="65257.9" x2="74166.3" y2="6643.88" gradientUnits="userSpaceOnUse">
<stop stop-color="#3856DA"/>
<stop offset="0.21" stop-color="#3856DA" stop-opacity="0.71"/>
<stop offset="0.41" stop-color="#3856DA" stop-opacity="0.45"/>
<stop offset="0.59" stop-color="#3856DA" stop-opacity="0.26"/>
<stop offset="0.76" stop-color="#3856DA" stop-opacity="0.12"/>
<stop offset="0.9" stop-color="#3856DA" stop-opacity="0.03"/>
<stop offset="1" stop-color="#3856DA" stop-opacity="0"/>
</linearGradient>
<linearGradient id="paint10_linear" x1="269.27" y1="215.47" x2="307.25" y2="267.27" gradientUnits="userSpaceOnUse">
<stop stop-color="#A67DFF"/>
<stop offset="0.19" stop-color="#956EEA"/>
<stop offset="0.52" stop-color="#7C58CB"/>
<stop offset="0.8" stop-color="#6D4BB9"/>
<stop offset="0.99" stop-color="#6846B2"/>
</linearGradient>
<linearGradient id="paint11_linear" x1="171.21" y1="315.96" x2="96.1604" y2="63.4299" gradientUnits="userSpaceOnUse">
<stop stop-color="#574D4E"/>
<stop offset="0.19" stop-color="#4D4445"/>
<stop offset="0.53" stop-color="#312B2C"/>
<stop offset="0.96" stop-color="#040404"/>
<stop offset="1"/>
</linearGradient>
<linearGradient id="paint12_linear" x1="91.89" y1="176.26" x2="132.75" y2="249.81" gradientUnits="userSpaceOnUse">
<stop stop-color="#F2F2F2"/>
<stop offset="0.21" stop-color="#F2F2F2" stop-opacity="0.79"/>
<stop offset="0.89" stop-color="#F2F2F2" stop-opacity="0"/>
</linearGradient>
<linearGradient id="paint13_linear" x1="15458.3" y1="15936.3" x2="19319.1" y2="24978" gradientUnits="userSpaceOnUse">
<stop stop-color="#F2F2F2"/>
<stop offset="0.21" stop-color="#F2F2F2" stop-opacity="0.79"/>
<stop offset="0.89" stop-color="#F2F2F2" stop-opacity="0"/>
</linearGradient>
<linearGradient id="paint14_linear" x1="9421.18" y1="16886.6" x2="33966.7" y2="16886.6" gradientUnits="userSpaceOnUse">
<stop stop-color="#A67DFF"/>
<stop offset="0.19" stop-color="#956EEA"/>
<stop offset="0.52" stop-color="#7C58CB"/>
<stop offset="0.8" stop-color="#6D4BB9"/>
<stop offset="0.99" stop-color="#6846B2"/>
</linearGradient>
<linearGradient id="paint15_linear" x1="16435.1" y1="18361.9" x2="20339.4" y2="18361.9" gradientUnits="userSpaceOnUse">
<stop stop-color="#FDE3E2"/>
<stop offset="1" stop-color="#ED827E"/>
</linearGradient>
</defs>
</svg>
