<svg width="853" height="801" viewBox="0 0 853 801" fill="none" xmlns="http://www.w3.org/2000/svg">
<path d="M124.915 738.875C291.469 820.599 561.581 820.599 728.037 738.875C894.494 657.151 894.572 524.618 728.037 442.894C561.503 361.169 291.469 361.15 124.915 442.894C-41.6385 524.637 -41.6385 657.19 124.915 738.875Z" fill="#F5F5F5"/>
<path d="M218.071 728.182C268.126 728.182 308.703 708.84 308.703 684.981C308.703 661.122 268.126 641.78 218.071 641.78C168.016 641.78 127.438 661.122 127.438 684.981C127.438 708.84 168.016 728.182 218.071 728.182Z" fill="#E0E0E0"/>
<path d="M673.95 601.102C724.005 601.102 764.582 581.761 764.582 557.901C764.582 534.042 724.005 514.701 673.95 514.701C623.895 514.701 583.317 534.042 583.317 557.901C583.317 581.761 623.895 601.102 673.95 601.102Z" fill="#E0E0E0"/>
<path d="M329.955 371.901L253.082 416.285C249.953 418.325 247.734 421.496 246.891 425.135L227.795 535.427C227.581 537.146 227.858 538.891 228.593 540.46C229.328 542.029 230.49 543.359 231.948 544.296L281.514 572.903C283.113 573.716 284.882 574.139 286.676 574.139C288.471 574.139 290.239 573.716 291.839 572.903L397.764 511.75C399.324 510.925 400.629 509.691 401.54 508.179C402.45 506.668 402.931 504.937 402.931 503.172C402.931 501.407 402.45 499.676 401.54 498.165C400.629 496.653 399.324 495.419 397.764 494.594L359.648 472.586C358.107 471.593 356.792 470.287 355.789 468.752C354.785 467.217 354.117 465.488 353.826 463.678L345.345 380.459C345.099 378.703 344.486 377.017 343.547 375.513C342.607 374.008 341.362 372.718 339.891 371.726C338.336 370.978 336.628 370.604 334.902 370.635C333.177 370.665 331.483 371.099 329.955 371.901Z" fill="#263238"/>
<path d="M286.676 553.534V574.164C288.474 574.19 290.249 573.763 291.838 572.922L397.763 511.769C399.237 510.845 400.472 509.586 401.369 508.096C402.265 506.606 402.799 504.926 402.926 503.191C402.824 501.165 402.113 499.218 400.888 497.602H383.557L286.676 553.534Z" fill="#455A64"/>
<path d="M339.639 377.529L262.767 421.894C259.638 423.939 257.425 427.119 256.595 430.764L239.206 530.867C238.99 532.586 239.266 534.332 240.001 535.901C240.736 537.471 241.9 538.8 243.359 539.736L281.475 561.744C283.077 562.548 284.845 562.967 286.638 562.967C288.43 562.967 290.198 562.548 291.8 561.744L397.764 500.572C400.617 498.922 400.617 496.263 397.764 494.614L359.648 472.606C358.107 471.613 356.792 470.306 355.789 468.772C354.785 467.237 354.117 465.508 353.826 463.698L345.345 380.479C345.361 379.809 345.189 379.148 344.848 378.572C344.507 377.995 344.01 377.527 343.415 377.219C342.82 376.911 342.15 376.777 341.482 376.832C340.815 376.887 340.176 377.128 339.639 377.529Z" fill="#263238"/>
<path d="M397.764 494.613L359.648 472.605C358.12 471.641 356.827 470.348 355.863 468.82L239.982 535.737C240.678 537.391 241.872 538.789 243.398 539.735L281.514 561.743C283.116 562.547 284.884 562.965 286.676 562.965C288.469 562.965 290.236 562.547 291.838 561.743L397.764 500.571C400.617 498.921 400.617 496.262 397.764 494.613Z" fill="#37474F"/>
<path d="M85.6744 591.204L80.7643 588.37C78.6567 586.997 76.9027 585.146 75.6449 582.968C74.3871 580.789 73.6609 578.345 73.5254 575.833V245.753C73.6623 243.247 74.3894 240.808 75.6474 238.636C76.9053 236.465 78.6586 234.621 80.7643 233.255L484.049 1.72497C486.29 0.590907 488.766 0 491.278 0C493.79 0 496.266 0.590907 498.507 1.72497L502.272 3.8986C504.378 5.26739 506.13 7.11514 507.385 9.29078C508.64 11.4664 509.362 13.9082 509.492 16.4163V346.671C509.357 349.178 508.633 351.618 507.379 353.793C506.124 355.968 504.375 357.817 502.272 359.189L100.133 591.204C97.8931 592.342 95.4161 592.936 92.9036 592.936C90.3911 592.936 87.9141 592.342 85.6744 591.204Z" fill="#455A64"/>
<path d="M102.597 254.254L75.6597 238.728C74.3507 240.881 73.6157 243.333 73.5249 245.85V575.911C73.6604 578.423 74.3866 580.867 75.6444 583.046C76.9023 585.224 78.6562 587.075 80.7638 588.448L85.6739 591.204C87.9136 592.343 90.3906 592.936 92.9031 592.936C95.4157 592.936 97.8926 592.343 100.132 591.204L102.597 589.787V254.254Z" fill="#263238"/>
<path d="M92.9131 587.108V257.009C93.0495 254.502 93.7741 252.062 95.0283 249.888C96.2825 247.713 98.0311 245.864 100.133 244.491L502.272 12.3207C506.27 10.0112 509.492 11.8743 509.492 16.4933V346.671C509.357 349.178 508.633 351.618 507.379 353.793C506.124 355.967 504.375 357.816 502.272 359.188L100.133 591.203C96.1541 593.59 92.9131 591.708 92.9131 587.108Z" fill="#37474F"/>
<path d="M281.746 464.066L319.843 442.058C322.696 440.408 325.025 441.592 325.025 444.678C324.894 446.414 324.357 448.095 323.457 449.585C322.557 451.075 321.319 452.333 319.843 453.256L281.746 475.245C278.893 476.894 276.584 475.73 276.584 472.644C276.711 470.909 277.244 469.229 278.141 467.739C279.038 466.249 280.273 464.99 281.746 464.066Z" fill="#E0E0E0"/>
<path d="M111.428 254.582L490.162 35.279C492.433 33.9593 494.276 35.0072 494.276 37.6466V325.322C494.201 326.755 493.789 328.149 493.074 329.394C492.359 330.638 491.362 331.696 490.162 332.483L111.447 551.184C109.157 552.504 107.313 551.437 107.313 548.817V261.743C107.389 260.31 107.801 258.916 108.516 257.671C109.231 256.427 110.228 255.369 111.428 254.582Z" fill="white"/>
<path d="M125.556 260.095L473.026 59.4423C479.333 55.8132 484.495 58.7825 484.495 66.0602V315.93C484.393 317.776 483.858 319.571 482.935 321.173C482.011 322.774 480.724 324.136 479.178 325.148L123.499 530.459C120.569 532.167 118.182 530.769 118.182 527.392V272.923C118.318 270.356 119.057 267.857 120.338 265.629C121.619 263.4 123.407 261.504 125.556 260.095Z" fill="#E6E6E6"/>
<path d="M268.026 216.468L459.518 105.904V144.369L268.026 254.914V216.468Z" fill="#F5F5F5"/>
<path d="M268.026 270.149L459.518 159.585V255.923L268.026 366.487V270.149Z" fill="#F0F0F0"/>
<path d="M484.495 72.1146V66.1177C484.495 58.84 479.333 55.8706 473.026 59.4998L125.634 260.094C123.49 261.5 121.705 263.39 120.424 265.611C119.143 267.832 118.402 270.323 118.259 272.884V283.577L484.495 72.1146Z" fill="#9765D7"/>
<path d="M436.404 85.7396C435.267 86.499 434.323 87.5142 433.649 88.7039C432.975 89.8936 432.589 91.2247 432.522 92.5904C432.522 95.1134 434.288 96.1226 436.404 94.8611C437.542 94.107 438.486 93.0957 439.16 91.9089C439.835 90.722 440.22 89.3931 440.285 88.0297C440.363 85.5068 438.597 84.4976 436.404 85.7396Z" fill="white"/>
<path d="M452.085 76.6969C450.946 77.454 450.001 78.4687 449.326 79.6589C448.652 80.849 448.267 82.1812 448.204 83.5477C448.204 86.0512 449.97 87.0798 452.085 85.8183C453.22 85.0609 454.162 84.0487 454.835 82.8626C455.509 81.6765 455.897 80.3493 455.967 78.987C456.025 76.464 454.259 75.4354 452.085 76.6969Z" fill="white"/>
<path d="M467.747 67.6531C466.612 68.4105 465.67 69.4227 464.996 70.6088C464.322 71.7949 463.935 73.1221 463.865 74.4845C463.865 77.0074 465.631 78.036 467.747 76.7745C468.886 76.0174 469.831 75.0027 470.505 73.8125C471.18 72.6224 471.564 71.2902 471.628 69.9237C471.706 67.4202 469.94 66.3916 467.747 67.6531Z" fill="white"/>
<path d="M134.814 420.42C134.46 420.417 134.113 420.324 133.805 420.149C133.493 419.971 133.234 419.714 133.053 419.404C132.873 419.094 132.777 418.742 132.776 418.383V293.399C132.765 293.04 132.853 292.685 133.031 292.373C133.209 292.062 133.47 291.805 133.786 291.633L241.846 229.025C242.16 228.848 242.514 228.755 242.874 228.755C243.235 228.755 243.589 228.848 243.903 229.025C244.216 229.206 244.476 229.466 244.657 229.78C244.837 230.093 244.932 230.449 244.931 230.811V355.891C244.931 356.25 244.835 356.602 244.655 356.912C244.474 357.222 244.215 357.479 243.903 357.657L135.843 420.149C135.529 420.326 135.175 420.42 134.814 420.42ZM136.871 294.583V414.909L240.837 354.746V234.42L136.871 294.583Z" fill="#FAFAFA"/>
<path d="M172.057 375.296C168.276 375.336 164.552 374.372 161.266 372.501C153.503 368.018 149.214 358.741 149.214 346.34C149.214 321.731 166.526 291.65 187.816 279.326C198.509 273.135 208.678 272.184 216.441 276.668C224.204 281.151 228.493 290.427 228.493 302.829C228.493 327.476 211.163 357.538 189.873 369.862C184.511 373.198 178.368 375.071 172.057 375.296ZM205.651 277.987C200.054 278.209 194.614 279.895 189.873 282.878C169.709 294.522 153.309 323.032 153.309 346.34C153.309 357.208 156.861 365.243 163.304 368.95C169.747 372.656 178.461 371.725 187.816 366.31C207.98 354.666 224.398 326.176 224.398 302.829C224.398 291.961 220.847 283.926 214.384 280.219C211.723 278.713 208.709 277.942 205.651 277.987Z" fill="#FAFAFA"/>
<path d="M597.31 437.167L589.799 432.82C589.62 432.725 589.42 432.675 589.217 432.675C589.014 432.675 588.814 432.725 588.635 432.82L575.05 438.934C574.835 439.036 574.601 439.089 574.364 439.09C574.127 439.091 573.892 439.04 573.677 438.94C573.462 438.839 573.272 438.693 573.12 438.511C572.968 438.329 572.858 438.115 572.798 437.886C572.065 435.527 571.048 433.265 569.771 431.151C569.484 430.658 569.315 430.105 569.278 429.536C569.241 428.967 569.337 428.397 569.557 427.871L578.601 409.628C578.824 409.166 578.866 408.637 578.719 408.145C578.572 407.653 578.246 407.234 577.805 406.97L567.985 401.303C567.768 401.164 567.525 401.07 567.271 401.026C567.018 400.983 566.757 400.99 566.506 401.048C566.255 401.106 566.018 401.213 565.809 401.363C565.6 401.514 565.422 401.704 565.288 401.924L554.012 418.886C553.659 419.333 553.211 419.697 552.702 419.952C552.192 420.207 551.632 420.347 551.062 420.361C549.766 420.326 548.469 420.385 547.181 420.535V408.134L539.631 403.787C539.435 403.699 539.219 403.663 539.004 403.683C538.79 403.704 538.585 403.78 538.409 403.903L523.154 412.714C522.668 413.032 522.255 413.448 521.94 413.937C521.626 414.425 521.418 414.974 521.33 415.548L519.816 432.529C519.641 433.728 519.083 434.838 518.225 435.693C515.203 438.491 512.37 441.486 509.744 444.659C509.379 445.071 508.903 445.37 508.374 445.521C507.845 445.673 507.283 445.67 506.755 445.513L496.954 442.097C496.451 441.939 495.909 441.952 495.414 442.135C494.919 442.318 494.498 442.659 494.218 443.106L483.001 462.513C482.748 462.981 482.659 463.519 482.747 464.043C482.835 464.566 483.095 465.046 483.486 465.405L491.346 472.178C491.746 472.559 492.03 473.046 492.164 473.582C492.298 474.118 492.277 474.681 492.103 475.206C490.663 479.061 489.489 483.01 488.59 487.025C488.272 488.189 487.593 489.222 486.649 489.975L472.715 499.776C472.26 500.141 471.887 500.597 471.62 501.115C471.352 501.633 471.196 502.202 471.162 502.784V520.386C471.144 520.608 471.184 520.831 471.28 521.032C471.375 521.233 471.522 521.405 471.705 521.531L479.216 525.859L490.375 520.58C490.788 521.471 491.248 522.339 491.753 523.181C492.04 523.674 492.209 524.227 492.246 524.796C492.283 525.365 492.187 525.935 491.967 526.461L482.923 544.704C482.7 545.166 482.658 545.695 482.805 546.187C482.952 546.679 483.278 547.099 483.719 547.362L493.539 553.029C493.985 553.28 494.509 553.355 495.008 553.24C495.507 553.126 495.945 552.829 496.236 552.408L507.512 535.446C507.865 534.999 508.313 534.635 508.823 534.38C509.332 534.125 509.892 533.986 510.462 533.971C512.935 534.023 515.404 533.776 517.817 533.234C518.047 533.17 518.288 533.158 518.523 533.199C518.758 533.239 518.981 533.332 519.176 533.469C519.371 533.607 519.533 533.786 519.651 533.993C519.768 534.201 519.838 534.432 519.855 534.67L521.33 549.478C521.336 549.689 521.395 549.894 521.5 550.077C521.604 550.26 521.753 550.414 521.932 550.526L529.442 554.854L538.447 541.618C538.936 541.298 539.351 540.878 539.665 540.387C539.979 539.895 540.186 539.342 540.272 538.765L541.785 521.803C541.874 521.249 542.097 520.726 542.436 520.28C542.774 519.833 543.217 519.476 543.726 519.241C548.196 517.298 552.224 514.465 555.565 510.915C555.957 510.525 556.445 510.245 556.981 510.106C557.516 509.966 558.079 509.971 558.612 510.12L564.628 512.235C565.133 512.395 565.678 512.38 566.174 512.194C566.67 512.007 567.089 511.66 567.364 511.207L578.582 491.799C578.834 491.332 578.923 490.794 578.835 490.27C578.748 489.746 578.488 489.267 578.097 488.907L572.934 484.444C572.535 484.057 572.246 483.571 572.096 483.036C571.946 482.5 571.941 481.935 572.08 481.397C573.208 476.796 573.685 472.06 573.497 467.327C573.503 466.752 573.637 466.185 573.889 465.668C574.14 465.152 574.504 464.697 574.953 464.338L588.887 454.518C589.342 454.157 589.716 453.705 589.983 453.189C590.251 452.674 590.406 452.108 590.44 451.529L597.096 443.553L597.31 437.167ZM530.704 507.034C516.478 515.263 507.628 509.421 507.628 493.002C507.628 476.584 519.389 456.439 533.615 448.23C547.841 440.02 556.477 445.978 556.477 462.416C556.477 478.854 544.929 498.747 530.704 506.956V507.034Z" fill="#9765D7"/>
<path opacity="0.1" d="M597.31 437.167L589.799 432.82C589.62 432.725 589.42 432.675 589.217 432.675C589.014 432.675 588.814 432.725 588.635 432.82L575.05 438.934C574.835 439.036 574.601 439.089 574.364 439.09C574.127 439.091 573.892 439.04 573.677 438.94C573.462 438.839 573.272 438.693 573.12 438.511C572.968 438.329 572.858 438.115 572.798 437.886C572.065 435.527 571.048 433.265 569.771 431.151C569.484 430.658 569.315 430.105 569.278 429.536C569.241 428.967 569.337 428.397 569.557 427.871L578.601 409.628C578.824 409.166 578.866 408.637 578.719 408.145C578.572 407.653 578.246 407.234 577.805 406.97L567.985 401.303C567.768 401.164 567.525 401.07 567.271 401.026C567.018 400.983 566.757 400.99 566.506 401.048C566.255 401.106 566.018 401.213 565.809 401.363C565.6 401.514 565.422 401.704 565.288 401.924L554.012 418.886C553.659 419.333 553.211 419.697 552.702 419.952C552.192 420.207 551.632 420.347 551.062 420.361C549.766 420.326 548.469 420.385 547.181 420.535V408.134L539.631 403.787C539.435 403.699 539.219 403.663 539.004 403.683C538.79 403.704 538.585 403.78 538.409 403.903L523.154 412.714C522.668 413.032 522.255 413.448 521.94 413.937C521.626 414.425 521.418 414.974 521.33 415.548L519.816 432.529C519.641 433.728 519.083 434.838 518.225 435.693C515.203 438.491 512.37 441.486 509.744 444.659C509.379 445.071 508.903 445.37 508.374 445.521C507.845 445.673 507.283 445.67 506.755 445.513L496.954 442.097C496.451 441.939 495.909 441.952 495.414 442.135C494.919 442.318 494.498 442.659 494.218 443.106L483.001 462.513C482.748 462.981 482.659 463.519 482.747 464.043C482.835 464.566 483.095 465.046 483.486 465.405L491.346 472.178C491.746 472.559 492.03 473.046 492.164 473.582C492.298 474.118 492.277 474.681 492.103 475.206C490.663 479.061 489.489 483.01 488.59 487.025C488.272 488.189 487.593 489.222 486.649 489.975L472.715 499.776C472.26 500.141 471.887 500.597 471.62 501.115C471.352 501.633 471.196 502.202 471.162 502.784V520.386C471.144 520.608 471.184 520.831 471.28 521.032C471.375 521.233 471.522 521.405 471.705 521.531L479.216 525.859L490.375 520.58C490.788 521.471 491.248 522.339 491.753 523.181C492.04 523.674 492.209 524.227 492.246 524.796C492.283 525.365 492.187 525.935 491.967 526.461L482.923 544.704C482.7 545.166 482.658 545.695 482.805 546.187C482.952 546.679 483.278 547.099 483.719 547.362L493.539 553.029C493.985 553.28 494.509 553.355 495.008 553.24C495.507 553.126 495.945 552.829 496.236 552.408L507.512 535.446C507.865 534.999 508.313 534.635 508.823 534.38C509.332 534.125 509.892 533.986 510.462 533.971C512.935 534.023 515.404 533.776 517.817 533.234C518.047 533.17 518.288 533.158 518.523 533.199C518.758 533.239 518.981 533.332 519.176 533.469C519.371 533.607 519.533 533.786 519.651 533.993C519.768 534.201 519.838 534.432 519.855 534.67L521.33 549.478C521.336 549.689 521.395 549.894 521.5 550.077C521.604 550.26 521.753 550.414 521.932 550.526L529.442 554.854L538.447 541.618C538.936 541.298 539.351 540.878 539.665 540.387C539.979 539.895 540.186 539.342 540.272 538.765L541.785 521.803C541.874 521.249 542.097 520.726 542.436 520.28C542.774 519.833 543.217 519.476 543.726 519.241C548.196 517.298 552.224 514.465 555.565 510.915C555.957 510.525 556.445 510.245 556.981 510.106C557.516 509.966 558.079 509.971 558.612 510.12L564.628 512.235C565.133 512.395 565.678 512.38 566.174 512.194C566.67 512.007 567.089 511.66 567.364 511.207L578.582 491.799C578.834 491.332 578.923 490.794 578.835 490.27C578.748 489.746 578.488 489.267 578.097 488.907L572.934 484.444C572.535 484.057 572.246 483.571 572.096 483.036C571.946 482.5 571.941 481.935 572.08 481.397C573.208 476.796 573.685 472.06 573.497 467.327C573.503 466.752 573.637 466.185 573.889 465.668C574.14 465.152 574.504 464.697 574.953 464.338L588.887 454.518C589.342 454.157 589.716 453.705 589.983 453.189C590.251 452.674 590.406 452.108 590.44 451.529L597.096 443.553L597.31 437.167ZM530.704 507.034C516.478 515.263 507.628 509.421 507.628 493.002C507.628 476.584 519.389 456.439 533.615 448.23C547.841 440.02 556.477 445.978 556.477 462.416C556.477 478.854 544.929 498.747 530.704 506.956V507.034Z" fill="black"/>
<path d="M575.593 415.703L578.582 409.667C578.805 409.204 578.847 408.675 578.7 408.183C578.553 407.691 578.227 407.272 577.786 407.008L567.966 401.341C567.749 401.203 567.506 401.109 567.252 401.065C566.998 401.021 566.738 401.028 566.487 401.086C566.236 401.144 565.999 401.251 565.79 401.402C565.58 401.552 565.403 401.743 565.268 401.962L553.993 418.924C553.78 419.202 553.524 419.444 553.236 419.642L565.851 426.939L575.593 415.703Z" fill="#9765D7"/>
<path d="M487.62 488.887C487.337 489.33 486.975 489.718 486.553 490.032L472.618 499.833C472.246 500.124 471.936 500.487 471.706 500.9L480.206 505.81L498.702 495.272L487.62 488.887Z" fill="#9765D7"/>
<path d="M496.101 442.018C495.71 442.033 495.328 442.143 494.99 442.339C494.651 442.535 494.366 442.812 494.16 443.144L482.942 462.551C482.715 462.986 482.626 463.481 482.69 463.968L492.394 469.557L507.745 448.791L496.101 442.018Z" fill="#9765D7"/>
<path d="M521.562 414.595L533.517 421.504L547.103 413.741V408.269L539.553 403.921C539.357 403.833 539.141 403.797 538.926 403.818C538.712 403.838 538.507 403.914 538.33 404.038L523.076 412.849C522.413 413.272 521.887 413.879 521.562 414.595Z" fill="#9765D7"/>
<path d="M597.309 437.168C597.125 437.066 596.918 437.012 596.708 437.012C596.497 437.012 596.29 437.066 596.106 437.168L582.521 443.301C582.307 443.403 582.073 443.456 581.836 443.457C581.598 443.458 581.364 443.407 581.149 443.307C580.934 443.206 580.743 443.06 580.591 442.878C580.44 442.696 580.33 442.482 580.27 442.253C579.765 440.607 579.115 439.01 578.329 437.478L588.537 432.84C588.721 432.748 588.924 432.7 589.129 432.7C589.335 432.7 589.538 432.748 589.721 432.84L597.309 437.168Z" fill="#9765D7"/>
<g opacity="0.4">
<path opacity="0.4" d="M575.593 415.703L578.581 409.667C578.805 409.204 578.847 408.675 578.699 408.183C578.552 407.691 578.226 407.272 577.786 407.008L567.966 401.341C567.748 401.203 567.506 401.109 567.252 401.065C566.998 401.021 566.738 401.028 566.487 401.086C566.235 401.144 565.998 401.251 565.789 401.402C565.58 401.552 565.403 401.743 565.268 401.962L553.992 418.924C553.779 419.202 553.524 419.444 553.235 419.642L565.85 426.939L575.593 415.703Z" fill="white"/>
<path opacity="0.4" d="M487.62 488.887C487.336 489.33 486.974 489.718 486.552 490.032L472.618 499.833C472.245 500.124 471.935 500.487 471.706 500.9L480.206 505.81L498.701 495.272L487.62 488.887Z" fill="white"/>
<path opacity="0.4" d="M496.1 442.019C495.709 442.034 495.328 442.144 494.989 442.34C494.651 442.536 494.366 442.813 494.159 443.145L482.942 462.552C482.714 462.987 482.626 463.482 482.69 463.969L492.393 469.558L507.744 448.793L496.1 442.019Z" fill="white"/>
<path opacity="0.4" d="M521.563 414.595L533.518 421.504L547.104 413.741V408.269L539.554 403.921C539.358 403.833 539.142 403.797 538.927 403.818C538.713 403.838 538.508 403.914 538.331 404.038L523.077 412.849C522.414 413.272 521.888 413.879 521.563 414.595Z" fill="white"/>
<path opacity="0.4" d="M597.31 437.167C597.126 437.065 596.919 437.011 596.709 437.011C596.498 437.011 596.291 437.065 596.107 437.167L582.522 443.299C582.308 443.401 582.074 443.455 581.837 443.456C581.599 443.457 581.365 443.405 581.15 443.305C580.935 443.205 580.744 443.059 580.592 442.877C580.44 442.694 580.331 442.481 580.271 442.251C579.766 440.606 579.116 439.008 578.33 437.477L588.538 432.839C588.722 432.747 588.925 432.699 589.13 432.699C589.336 432.699 589.538 432.747 589.722 432.839L597.31 437.167Z" fill="white"/>
</g>
<path d="M597.853 455.915V438.293C597.883 438.077 597.851 437.857 597.76 437.658C597.669 437.459 597.523 437.291 597.339 437.173C597.156 437.054 596.942 436.991 596.723 436.99C596.505 436.989 596.291 437.051 596.106 437.168L582.521 443.3C582.305 443.402 582.07 443.456 581.832 443.457C581.593 443.458 581.357 443.407 581.141 443.307C580.924 443.207 580.732 443.061 580.579 442.879C580.425 442.696 580.313 442.483 580.25 442.252C579.517 439.894 578.5 437.632 577.223 435.518C576.943 435.022 576.781 434.469 576.747 433.901C576.713 433.332 576.81 432.764 577.029 432.238L586.073 413.976C586.293 413.514 586.332 412.986 586.181 412.497C586.03 412.008 585.7 411.594 585.258 411.337L575.437 405.65C574.989 405.401 574.464 405.329 573.964 405.448C573.465 405.566 573.029 405.867 572.74 406.291L561.464 423.253C561.118 423.706 560.671 424.073 560.159 424.326C559.648 424.578 559.085 424.709 558.514 424.708C556.047 424.663 553.584 424.917 551.178 425.465C550.948 425.529 550.707 425.541 550.472 425.5C550.237 425.46 550.014 425.367 549.819 425.23C549.624 425.092 549.462 424.913 549.345 424.706C549.227 424.498 549.158 424.267 549.14 424.029L547.646 409.202C547.651 408.986 547.594 408.773 547.483 408.588C547.372 408.403 547.21 408.253 547.018 408.155C546.825 408.058 546.608 408.017 546.393 408.037C546.178 408.058 545.974 408.138 545.802 408.27L530.568 417.081C530.08 417.397 529.665 417.813 529.35 418.301C529.036 418.79 528.829 419.34 528.743 419.915L527.21 436.896C527.03 438.093 526.472 439.201 525.619 440.059C522.598 442.853 519.771 445.849 517.157 449.026C516.789 449.439 516.31 449.74 515.777 449.891C515.245 450.042 514.68 450.038 514.149 449.88L504.445 446.464C503.939 446.301 503.393 446.312 502.894 446.495C502.395 446.678 501.971 447.022 501.689 447.473L490.491 466.88C490.236 467.347 490.145 467.886 490.233 468.41C490.321 468.935 490.583 469.415 490.977 469.772L498.837 476.545C499.235 476.923 499.518 477.406 499.653 477.939C499.787 478.472 499.766 479.032 499.594 479.553C498.159 483.418 496.979 487.373 496.061 491.392C495.746 492.557 495.066 493.591 494.121 494.342L480.206 504.045C479.744 504.405 479.364 504.86 479.093 505.379C478.822 505.898 478.665 506.469 478.634 507.054V524.656C478.603 524.872 478.636 525.093 478.727 525.291C478.818 525.49 478.964 525.658 479.147 525.777C479.331 525.895 479.545 525.958 479.763 525.959C479.982 525.96 480.196 525.899 480.38 525.782L493.965 519.668C494.18 519.563 494.416 519.507 494.656 519.504C494.895 519.501 495.133 519.551 495.35 519.652C495.568 519.752 495.76 519.9 495.913 520.084C496.067 520.268 496.177 520.484 496.236 520.716C496.952 523.112 497.969 525.408 499.264 527.548C499.537 528.05 499.696 528.605 499.729 529.176C499.763 529.746 499.67 530.317 499.458 530.847L490.414 549.09C490.195 549.553 490.155 550.081 490.302 550.572C490.449 551.063 490.772 551.482 491.21 551.749L501.03 557.416C501.48 557.67 502.01 557.745 502.513 557.627C503.017 557.508 503.457 557.204 503.747 556.775L515.022 539.833C515.376 539.385 515.823 539.021 516.333 538.766C516.843 538.511 517.402 538.372 517.972 538.358C520.438 538.41 522.902 538.162 525.308 537.62C525.538 537.556 525.779 537.544 526.014 537.585C526.249 537.626 526.472 537.718 526.667 537.856C526.862 537.993 527.024 538.172 527.142 538.38C527.259 538.587 527.329 538.818 527.346 539.056L528.84 553.864C528.832 554.082 528.886 554.297 528.995 554.485C529.105 554.673 529.266 554.826 529.46 554.926C529.653 555.026 529.871 555.069 530.088 555.049C530.305 555.029 530.512 554.948 530.684 554.815L545.919 546.004C546.407 545.684 546.822 545.265 547.136 544.773C547.451 544.281 547.658 543.729 547.743 543.151L549.276 526.189C549.462 524.988 550.018 523.875 550.868 523.006C553.888 520.213 556.715 517.217 559.329 514.04C559.699 513.635 560.176 513.342 560.704 513.195C561.233 513.047 561.792 513.051 562.318 513.206L572.119 516.621C572.627 516.779 573.173 516.763 573.672 516.577C574.171 516.391 574.594 516.045 574.875 515.593L586.073 496.185C586.323 495.721 586.412 495.186 586.324 494.666C586.236 494.146 585.977 493.669 585.587 493.313L577.727 486.54C577.329 486.158 577.046 485.671 576.912 485.135C576.779 484.6 576.799 484.037 576.971 483.512C578.408 479.655 579.588 475.707 580.503 471.693C580.818 470.528 581.498 469.494 582.443 468.743L596.378 458.923C596.824 458.556 597.186 458.097 597.441 457.579C597.695 457.06 597.835 456.493 597.853 455.915ZM538.195 511.284C523.969 519.513 512.441 512.837 512.441 496.418C512.441 480 523.969 460.01 538.195 451.781C552.42 443.553 563.968 450.229 563.968 466.667C563.968 483.105 552.44 503.075 538.195 511.284Z" fill="#9765D7"/>
<path d="M522.204 575.193C521.995 575.086 521.76 575.04 521.527 575.06C521.293 575.081 521.07 575.167 520.884 575.309L514.46 579.559C514.036 579.807 513.534 579.884 513.055 579.776C512.576 579.668 512.156 579.383 511.879 578.977C511.502 578.437 511.087 577.925 510.637 577.444C510.258 577.045 509.989 576.554 509.857 576.02C509.724 575.486 509.732 574.927 509.88 574.397L520.088 567.934L512.461 563.529C512.308 563.427 512.137 563.354 511.957 563.315L507.124 562.229C506.592 562.136 506.044 562.21 505.554 562.439C505.065 562.668 504.658 563.041 504.388 563.509L499.827 572.165C499.205 573.174 498.23 573.915 497.09 574.242H496.799C496.997 573.609 497.134 572.959 497.207 572.301L489.56 567.915C489.335 567.791 489.075 567.744 488.82 567.779C488.565 567.814 488.328 567.929 488.144 568.109L480.885 573.737C480.452 574.126 480.106 574.602 479.868 575.133C479.631 575.665 479.508 576.241 479.507 576.823L479.934 583.712C479.948 584.92 479.551 586.097 478.809 587.05C477.614 588.48 476.494 589.97 475.451 591.514C475.108 591.974 474.663 592.347 474.151 592.607C473.64 592.866 473.075 593.003 472.501 593.009L467.844 592.776C467.288 592.772 466.742 592.925 466.268 593.217C465.795 593.508 465.413 593.927 465.165 594.425L460.779 604.245C460.614 604.664 460.599 605.127 460.737 605.555C460.875 605.984 461.157 606.351 461.536 606.594L466.699 609.563C466.863 609.99 466.903 610.454 466.815 610.902C466.453 612.451 466.18 614.019 466 615.599C465.82 616.797 465.27 617.91 464.428 618.782L458.004 624.604C457.602 625.018 457.298 625.518 457.113 626.065C456.928 626.612 456.868 627.194 456.937 627.767L458.14 634.773C458.16 634.965 458.223 635.15 458.324 635.314C458.425 635.479 458.561 635.619 458.722 635.724L466.388 640.149L466.485 631.377C466.909 631.129 467.411 631.052 467.89 631.16C468.369 631.268 468.79 631.554 469.066 631.959C469.445 632.503 469.867 633.016 470.328 633.492C470.706 633.895 470.974 634.39 471.103 634.928C471.232 635.465 471.219 636.028 471.065 636.559L467.785 645.544C467.651 645.892 467.642 646.275 467.758 646.629C467.875 646.983 468.111 647.286 468.426 647.485L476.092 651.91L478.168 646.204L481.118 638.868C481.749 637.859 482.73 637.119 483.874 636.792C484.886 636.542 485.879 636.217 486.843 635.821C487.059 635.715 487.294 635.659 487.534 635.654C487.774 635.65 488.012 635.699 488.23 635.797C488.449 635.895 488.643 636.041 488.799 636.223C488.956 636.405 489.07 636.619 489.133 636.85L490.783 642.284C490.823 642.461 490.899 642.628 491.006 642.775C491.113 642.921 491.248 643.045 491.404 643.138L499.167 647.563L497.809 639.082L500.157 637.238C500.597 636.855 500.948 636.38 501.186 635.847C501.424 635.314 501.543 634.736 501.535 634.152L501.108 627.263C501.106 626.056 501.502 624.883 502.233 623.924C503.417 622.508 505.222 621.751 506.27 620.198C506.872 619.325 507.512 617.928 508.56 617.966L513.218 618.199C513.772 618.202 514.315 618.051 514.788 617.764C515.261 617.476 515.645 617.062 515.896 616.569L520.263 606.73C520.449 606.27 520.452 605.756 520.272 605.294C520.091 604.832 519.741 604.457 519.293 604.245L515.527 602.654C515.051 602.429 514.666 602.05 514.433 601.577C514.2 601.105 514.135 600.568 514.247 600.053C514.595 598.503 514.861 596.935 515.042 595.357C515.222 594.158 515.772 593.045 516.614 592.174L523.038 586.352C523.62 585.755 523.995 584.986 524.105 584.159L529.928 579.617L522.204 575.193ZM493.093 620.509C485.33 626.68 477.722 624.992 476.305 616.744C474.889 608.496 481.312 597.996 489.172 591.825C497.032 585.653 503.34 586.119 504.698 594.367C506.057 602.615 500.894 614.318 493.034 620.509H493.093Z" fill="#9765D7"/>
<path opacity="0.1" d="M522.204 575.193C521.995 575.086 521.76 575.04 521.527 575.06C521.293 575.081 521.07 575.167 520.884 575.309L514.46 579.559C514.036 579.807 513.534 579.884 513.055 579.776C512.576 579.668 512.156 579.383 511.879 578.977C511.502 578.437 511.087 577.925 510.637 577.444C510.258 577.045 509.989 576.554 509.857 576.02C509.724 575.486 509.732 574.927 509.88 574.397L520.088 567.934L512.461 563.529C512.308 563.427 512.137 563.354 511.957 563.315L507.124 562.229C506.592 562.136 506.044 562.21 505.554 562.439C505.065 562.668 504.658 563.041 504.388 563.509L499.827 572.165C499.205 573.174 498.23 573.915 497.09 574.242H496.799C496.997 573.609 497.134 572.959 497.207 572.301L489.56 567.915C489.335 567.791 489.075 567.744 488.82 567.779C488.565 567.814 488.328 567.929 488.144 568.109L480.885 573.737C480.452 574.126 480.106 574.602 479.868 575.133C479.631 575.665 479.508 576.241 479.507 576.823L479.934 583.712C479.948 584.92 479.551 586.097 478.809 587.05C477.614 588.48 476.494 589.97 475.451 591.514C475.108 591.974 474.663 592.347 474.151 592.607C473.64 592.866 473.075 593.003 472.501 593.009L467.844 592.776C467.288 592.772 466.742 592.925 466.268 593.217C465.795 593.508 465.413 593.927 465.165 594.425L460.779 604.245C460.614 604.664 460.599 605.127 460.737 605.555C460.875 605.984 461.157 606.351 461.536 606.594L466.699 609.563C466.863 609.99 466.903 610.454 466.815 610.902C466.453 612.451 466.18 614.019 466 615.599C465.82 616.797 465.27 617.91 464.428 618.782L458.004 624.604C457.602 625.018 457.298 625.518 457.113 626.065C456.928 626.612 456.868 627.194 456.937 627.767L458.14 634.773C458.16 634.965 458.223 635.15 458.324 635.314C458.425 635.479 458.561 635.619 458.722 635.724L466.388 640.149L466.485 631.377C466.909 631.129 467.411 631.052 467.89 631.16C468.369 631.268 468.79 631.554 469.066 631.959C469.445 632.503 469.867 633.016 470.328 633.492C470.706 633.895 470.974 634.39 471.103 634.928C471.232 635.465 471.219 636.028 471.065 636.559L467.785 645.544C467.651 645.892 467.642 646.275 467.758 646.629C467.875 646.983 468.111 647.286 468.426 647.485L476.092 651.91L478.168 646.204L481.118 638.868C481.749 637.859 482.73 637.119 483.874 636.792C484.886 636.542 485.879 636.217 486.843 635.821C487.059 635.715 487.294 635.659 487.534 635.654C487.774 635.65 488.012 635.699 488.23 635.797C488.449 635.895 488.643 636.041 488.799 636.223C488.956 636.405 489.07 636.619 489.133 636.85L490.783 642.284C490.823 642.461 490.899 642.628 491.006 642.775C491.113 642.921 491.248 643.045 491.404 643.138L499.167 647.563L497.809 639.082L500.157 637.238C500.597 636.855 500.948 636.38 501.186 635.847C501.424 635.314 501.543 634.736 501.535 634.152L501.108 627.263C501.106 626.056 501.502 624.883 502.233 623.924C503.417 622.508 505.222 621.751 506.27 620.198C506.872 619.325 507.512 617.928 508.56 617.966L513.218 618.199C513.772 618.202 514.315 618.051 514.788 617.764C515.261 617.476 515.645 617.062 515.896 616.569L520.263 606.73C520.449 606.27 520.452 605.756 520.272 605.294C520.091 604.832 519.741 604.457 519.293 604.245L515.527 602.654C515.051 602.429 514.666 602.05 514.433 601.577C514.2 601.105 514.135 600.568 514.247 600.053C514.595 598.503 514.861 596.935 515.042 595.357C515.222 594.158 515.772 593.045 516.614 592.174L523.038 586.352C523.62 585.755 523.995 584.986 524.105 584.159L529.928 579.617L522.204 575.193ZM493.093 620.509C485.33 626.68 477.722 624.992 476.305 616.744C474.889 608.496 481.312 597.996 489.172 591.825C497.032 585.653 503.34 586.119 504.698 594.367C506.057 602.615 500.894 614.318 493.034 620.509H493.093Z" fill="black"/>
<path d="M464.331 618.936L457.965 624.758C457.478 625.264 457.142 625.896 456.995 626.582L466.427 632.036V631.531C466.851 631.284 467.353 631.206 467.832 631.314C468.311 631.422 468.731 631.708 469.008 632.113L478.09 626.854L464.331 618.936Z" fill="#9765D7"/>
<path d="M480.555 601.256C481.268 600.138 482.046 599.062 482.884 598.035L473.821 592.795C473.41 592.993 472.958 593.092 472.501 593.086L467.844 592.853C467.134 592.848 466.446 593.096 465.903 593.552L479.837 601.606L480.555 601.256Z" fill="#9765D7"/>
<path d="M529.831 579.56C529.617 579.463 529.382 579.426 529.149 579.453C528.916 579.481 528.696 579.571 528.511 579.715L522.087 583.946C521.665 584.188 521.167 584.262 520.693 584.154C520.218 584.047 519.802 583.764 519.525 583.364C519.141 582.824 518.719 582.312 518.264 581.831C517.883 581.429 517.614 580.935 517.481 580.397C517.348 579.86 517.357 579.297 517.507 578.764L518.128 577.134L520.884 575.31C521.07 575.168 521.293 575.082 521.527 575.061C521.76 575.04 521.995 575.086 522.203 575.193L529.831 579.56Z" fill="#9765D7"/>
<path d="M510.908 577.716C510.842 577.621 510.771 577.531 510.695 577.444C510.316 577.045 510.047 576.554 509.915 576.02C509.782 575.486 509.79 574.927 509.938 574.397L520.146 567.934L512.519 563.529C512.366 563.427 512.195 563.354 512.015 563.315L507.182 562.229C506.65 562.136 506.102 562.21 505.613 562.439C505.123 562.668 504.716 563.041 504.446 563.509L499.885 572.165C499.63 572.623 499.279 573.02 498.856 573.33L509.123 579.268L510.908 577.716Z" fill="#9765D7"/>
<path d="M479.701 575.678L489.133 581.132L496.896 574.028C497.039 573.454 497.143 572.87 497.207 572.282L489.56 567.915C489.334 567.792 489.075 567.744 488.82 567.779C488.565 567.814 488.328 567.93 488.143 568.109L480.885 573.737C480.31 574.255 479.899 574.93 479.701 575.678Z" fill="#9765D7"/>
<g opacity="0.4">
<path opacity="0.4" d="M464.33 618.935L457.965 624.758C457.477 625.263 457.141 625.895 456.994 626.582L466.426 632.035V631.531C466.85 631.283 467.352 631.206 467.831 631.314C468.31 631.422 468.731 631.707 469.007 632.113L478.09 626.854L464.33 618.935Z" fill="white"/>
<path opacity="0.4" d="M480.554 601.256C481.267 600.137 482.045 599.062 482.883 598.034L473.82 592.794C473.409 592.992 472.957 593.092 472.5 593.085L467.843 592.853C467.133 592.848 466.445 593.095 465.902 593.551L479.836 601.605L480.554 601.256Z" fill="white"/>
<path opacity="0.4" d="M529.83 579.56C529.616 579.462 529.381 579.425 529.148 579.453C528.915 579.48 528.695 579.571 528.51 579.715L522.086 583.946C521.664 584.188 521.166 584.262 520.692 584.154C520.217 584.046 519.801 583.764 519.524 583.363C519.14 582.824 518.718 582.312 518.263 581.83C517.882 581.428 517.613 580.934 517.48 580.397C517.347 579.86 517.356 579.297 517.506 578.764L518.127 577.134L520.883 575.309C521.069 575.167 521.292 575.081 521.526 575.061C521.759 575.04 521.994 575.086 522.203 575.193L529.83 579.56Z" fill="white"/>
<path opacity="0.4" d="M510.907 577.715C510.841 577.621 510.77 577.53 510.694 577.444C510.315 577.044 510.046 576.554 509.914 576.02C509.781 575.486 509.789 574.927 509.937 574.397L520.145 567.934L512.518 563.528C512.365 563.426 512.194 563.354 512.014 563.315L507.181 562.228C506.649 562.136 506.101 562.209 505.612 562.438C505.122 562.667 504.715 563.041 504.445 563.509L499.884 572.165C499.629 572.623 499.278 573.02 498.855 573.329L509.122 579.268L510.907 577.715Z" fill="white"/>
<path opacity="0.4" d="M479.701 575.678L489.133 581.131L496.896 574.028C497.039 573.454 497.142 572.87 497.206 572.281L489.56 567.915C489.334 567.791 489.074 567.744 488.819 567.779C488.564 567.813 488.327 567.929 488.143 568.109L480.885 573.737C480.31 574.255 479.898 574.929 479.701 575.678Z" fill="white"/>
</g>
<path d="M531.636 587.576L530.433 580.57C530.426 580.348 530.357 580.132 530.232 579.948C530.107 579.765 529.933 579.621 529.729 579.533C529.525 579.445 529.3 579.418 529.081 579.453C528.862 579.489 528.657 579.587 528.492 579.735L522.068 583.966C521.646 584.208 521.148 584.282 520.674 584.174C520.199 584.066 519.782 583.784 519.506 583.384C519.123 582.843 518.701 582.331 518.245 581.85C517.869 581.449 517.602 580.959 517.47 580.425C517.338 579.892 517.344 579.334 517.488 578.804L520.768 569.934C520.858 569.712 520.898 569.473 520.884 569.234C520.871 568.995 520.804 568.761 520.688 568.551C520.573 568.341 520.412 568.159 520.218 568.019C520.023 567.879 519.8 567.784 519.564 567.741L514.732 566.655C514.199 566.556 513.649 566.627 513.159 566.857C512.668 567.086 512.261 567.464 511.996 567.935L507.454 576.591C506.816 577.593 505.837 578.33 504.698 578.668C503.679 578.924 502.68 579.255 501.71 579.657C501.494 579.759 501.259 579.813 501.02 579.814C500.782 579.815 500.546 579.764 500.33 579.664C500.113 579.564 499.921 579.418 499.767 579.236C499.613 579.053 499.501 578.84 499.439 578.609L497.789 573.175C497.751 572.958 497.654 572.756 497.509 572.59C497.363 572.425 497.175 572.302 496.965 572.236C496.755 572.17 496.531 572.163 496.317 572.216C496.103 572.268 495.907 572.379 495.752 572.535L488.493 578.221C488.06 578.61 487.714 579.086 487.476 579.618C487.239 580.149 487.116 580.725 487.115 581.307L487.562 588.197C487.558 589.402 487.163 590.573 486.436 591.535C485.229 592.959 484.102 594.45 483.059 595.998C482.708 596.449 482.261 596.817 481.751 597.075C481.241 597.334 480.681 597.476 480.109 597.493L475.452 597.26C474.895 597.257 474.35 597.409 473.876 597.701C473.403 597.993 473.02 598.411 472.773 598.91L468.407 608.671C468.222 609.133 468.221 609.649 468.405 610.111C468.59 610.574 468.944 610.947 469.396 611.156L473.161 612.766C473.634 612.99 474.017 613.367 474.249 613.835C474.481 614.303 474.549 614.836 474.442 615.348C474.096 616.898 473.83 618.466 473.647 620.044C473.458 621.24 472.91 622.35 472.075 623.227L465.651 629.049C465.245 629.462 464.937 629.96 464.749 630.508C464.561 631.055 464.498 631.638 464.564 632.213L465.767 639.219C465.774 639.441 465.843 639.656 465.968 639.84C466.093 640.023 466.267 640.168 466.471 640.255C466.675 640.343 466.9 640.371 467.119 640.335C467.338 640.299 467.543 640.201 467.708 640.053L474.132 635.822C474.554 635.581 475.052 635.506 475.526 635.614C476.001 635.722 476.417 636.004 476.694 636.405C477.072 636.949 477.494 637.461 477.955 637.938C478.332 638.342 478.6 638.836 478.732 639.372C478.865 639.909 478.858 640.471 478.712 641.004L475.432 649.854C475.342 650.076 475.302 650.315 475.316 650.554C475.329 650.794 475.396 651.027 475.511 651.237C475.627 651.447 475.787 651.629 475.982 651.769C476.176 651.909 476.4 652.004 476.635 652.047L481.468 653.134C482 653.232 482.551 653.161 483.041 652.931C483.532 652.702 483.938 652.325 484.204 651.853L488.746 643.197C489.384 642.196 490.363 641.458 491.501 641.121C492.518 640.862 493.516 640.538 494.49 640.15C494.704 640.048 494.938 639.994 495.176 639.992C495.413 639.989 495.648 640.039 495.865 640.137C496.081 640.235 496.273 640.379 496.428 640.559C496.583 640.739 496.696 640.95 496.761 641.179L498.41 646.613C498.449 646.83 498.546 647.032 498.691 647.198C498.836 647.364 499.024 647.486 499.235 647.552C499.445 647.618 499.669 647.625 499.883 647.573C500.097 647.52 500.293 647.409 500.448 647.253L507.707 641.567C508.14 641.178 508.486 640.702 508.724 640.17C508.961 639.639 509.084 639.063 509.084 638.481L508.638 631.592C508.642 630.386 509.037 629.215 509.764 628.253C510.971 626.829 512.098 625.339 513.141 623.79C513.492 623.339 513.938 622.971 514.448 622.713C514.958 622.454 515.519 622.312 516.091 622.295L520.748 622.528C521.304 622.532 521.85 622.379 522.324 622.087C522.797 621.796 523.179 621.377 523.427 620.879L527.813 611.059C527.998 610.597 527.998 610.081 527.814 609.619C527.63 609.157 527.275 608.783 526.823 608.574L523.058 606.964C522.586 606.739 522.203 606.363 521.97 605.895C521.738 605.427 521.67 604.894 521.777 604.382C522.124 602.832 522.389 601.264 522.573 599.686C522.766 598.491 523.313 597.382 524.145 596.503L530.568 590.681C530.962 590.273 531.262 589.783 531.447 589.247C531.631 588.71 531.696 588.14 531.636 587.576ZM500.681 624.896C492.821 631.087 485.291 629.398 483.874 621.15C482.458 612.902 487.756 601.2 495.519 595.028C503.282 588.857 510.909 590.526 512.326 598.774C513.742 607.022 508.522 618.724 500.681 624.896Z" fill="#9765D7"/>
<path d="M459.809 562.345L452.298 558.017C452.114 557.926 451.911 557.879 451.706 557.879C451.501 557.879 451.298 557.926 451.114 558.017L437.529 564.13C437.317 564.236 437.083 564.293 436.846 564.297C436.609 564.301 436.374 564.252 436.158 564.153C435.942 564.055 435.751 563.909 435.599 563.727C435.446 563.545 435.337 563.331 435.278 563.102C434.548 560.741 433.531 558.479 432.25 556.367C431.974 555.867 431.812 555.312 431.775 554.741C431.738 554.171 431.827 553.6 432.037 553.068L441.042 534.922C441.263 534.457 441.302 533.926 441.152 533.434C441.001 532.942 440.671 532.524 440.227 532.263L430.407 526.596C429.958 526.348 429.433 526.275 428.934 526.394C428.435 526.512 427.998 526.813 427.709 527.237L416.433 544.199C416.087 544.652 415.64 545.019 415.129 545.272C414.617 545.524 414.054 545.655 413.483 545.654C412.187 545.626 410.889 545.691 409.602 545.848V533.37L402.072 529.1C401.872 529.01 401.653 528.973 401.435 528.994C401.218 529.014 401.009 529.091 400.83 529.216L385.576 538.008C385.087 538.325 384.672 538.744 384.361 539.237C384.049 539.729 383.848 540.283 383.771 540.861L382.238 557.823C382.052 559.024 381.496 560.137 380.646 561.006C377.626 563.799 374.799 566.795 372.185 569.972C371.812 570.38 371.333 570.676 370.802 570.827C370.271 570.978 369.708 570.977 369.176 570.826L359.473 567.391C358.964 567.237 358.419 567.254 357.921 567.44C357.423 567.625 357 567.97 356.717 568.419L345.499 587.827C345.253 588.297 345.169 588.835 345.26 589.358C345.351 589.881 345.613 590.359 346.004 590.718L353.767 597.472C354.165 597.855 354.449 598.341 354.586 598.875C354.723 599.41 354.708 599.973 354.543 600.5C353.097 604.354 351.917 608.303 351.011 612.319C350.696 613.489 350.016 614.529 349.07 615.288L335.136 625.089C334.681 625.449 334.307 625.902 334.04 626.417C333.772 626.932 333.617 627.498 333.583 628.077V645.699C333.566 645.918 333.608 646.138 333.703 646.335C333.799 646.533 333.945 646.702 334.127 646.825L341.637 651.172L352.797 645.874C353.224 646.786 353.689 647.659 354.175 648.474C354.462 648.971 354.63 649.527 354.667 650.099C354.704 650.671 354.609 651.244 354.388 651.774L345.344 670.017C345.121 670.479 345.079 671.008 345.226 671.5C345.373 671.992 345.699 672.412 346.14 672.675L355.96 678.342C356.409 678.591 356.934 678.663 357.433 678.545C357.932 678.426 358.369 678.126 358.658 677.702L369.933 660.74C370.283 660.285 370.733 659.917 371.248 659.665C371.763 659.412 372.329 659.282 372.903 659.284C375.369 659.329 377.833 659.075 380.239 658.527C380.468 658.467 380.708 658.458 380.942 658.5C381.176 658.542 381.397 658.635 381.591 658.772C381.785 658.909 381.947 659.086 382.066 659.292C382.184 659.498 382.256 659.727 382.276 659.964L383.771 674.791C383.773 674.998 383.827 675.2 383.929 675.38C384.031 675.56 384.177 675.711 384.353 675.819L391.844 680.147L400.849 666.931C401.336 666.609 401.75 666.189 402.064 665.698C402.378 665.206 402.586 664.655 402.673 664.078L404.207 647.097C404.288 646.541 404.509 646.015 404.848 645.567C405.188 645.119 405.634 644.764 406.147 644.535C410.625 642.604 414.661 639.777 418.005 636.228C418.387 635.829 418.872 635.542 419.405 635.398C419.939 635.255 420.502 635.26 421.033 635.413L427.049 637.529C427.552 637.69 428.095 637.678 428.591 637.495C429.087 637.313 429.507 636.969 429.786 636.52L441.003 617.112C441.255 616.645 441.345 616.107 441.257 615.583C441.169 615.059 440.909 614.58 440.518 614.22L435.355 609.776C434.96 609.387 434.674 608.9 434.528 608.365C434.381 607.83 434.379 607.266 434.521 606.729C435.633 602.126 436.103 597.391 435.918 592.659C435.921 592.081 436.054 591.511 436.306 590.99C436.558 590.47 436.922 590.012 437.374 589.651L451.308 579.85C451.766 579.487 452.141 579.032 452.408 578.513C452.676 577.994 452.83 577.425 452.861 576.842L459.518 568.866L459.809 562.345ZM393.203 632.211C378.977 640.42 370.127 634.598 370.127 618.16C370.127 601.722 381.888 581.597 396.114 573.387C410.339 565.178 418.976 571.156 418.976 587.574C418.976 603.993 407.428 623.944 393.203 632.153V632.211Z" fill="#9765D7"/>
<path opacity="0.1" d="M459.809 562.345L452.298 558.017C452.114 557.926 451.911 557.879 451.706 557.879C451.501 557.879 451.298 557.926 451.114 558.017L437.529 564.13C437.317 564.236 437.083 564.293 436.846 564.297C436.609 564.301 436.374 564.252 436.158 564.153C435.942 564.055 435.751 563.909 435.599 563.727C435.446 563.545 435.337 563.331 435.278 563.102C434.548 560.741 433.531 558.479 432.25 556.367C431.974 555.867 431.812 555.312 431.775 554.741C431.738 554.171 431.827 553.6 432.037 553.068L441.042 534.922C441.263 534.457 441.302 533.926 441.152 533.434C441.001 532.942 440.671 532.524 440.227 532.263L430.407 526.596C429.958 526.348 429.433 526.275 428.934 526.394C428.435 526.512 427.998 526.813 427.709 527.237L416.433 544.199C416.087 544.652 415.64 545.019 415.129 545.272C414.617 545.524 414.054 545.655 413.483 545.654C412.187 545.626 410.889 545.691 409.602 545.848V533.37L402.072 529.1C401.872 529.01 401.653 528.973 401.435 528.994C401.218 529.014 401.009 529.091 400.83 529.216L385.576 538.008C385.087 538.325 384.672 538.744 384.361 539.237C384.049 539.729 383.848 540.283 383.771 540.861L382.238 557.823C382.052 559.024 381.496 560.137 380.646 561.006C377.626 563.799 374.799 566.795 372.185 569.972C371.812 570.38 371.333 570.676 370.802 570.827C370.271 570.978 369.708 570.977 369.176 570.826L359.473 567.391C358.964 567.237 358.419 567.254 357.921 567.44C357.423 567.625 357 567.97 356.717 568.419L345.499 587.827C345.253 588.297 345.169 588.835 345.26 589.358C345.351 589.881 345.613 590.359 346.004 590.718L353.767 597.472C354.165 597.855 354.449 598.341 354.586 598.875C354.723 599.41 354.708 599.973 354.543 600.5C353.097 604.354 351.917 608.303 351.011 612.319C350.696 613.489 350.016 614.529 349.07 615.288L335.136 625.089C334.681 625.449 334.307 625.902 334.04 626.417C333.772 626.932 333.617 627.498 333.583 628.077V645.699C333.566 645.918 333.608 646.138 333.703 646.335C333.799 646.533 333.945 646.702 334.127 646.825L341.637 651.172L352.797 645.874C353.224 646.786 353.689 647.659 354.175 648.474C354.462 648.971 354.63 649.527 354.667 650.099C354.704 650.671 354.609 651.244 354.388 651.774L345.344 670.017C345.121 670.479 345.079 671.008 345.226 671.5C345.373 671.992 345.699 672.412 346.14 672.675L355.96 678.342C356.409 678.591 356.934 678.663 357.433 678.545C357.932 678.426 358.369 678.126 358.658 677.702L369.933 660.74C370.283 660.285 370.733 659.917 371.248 659.665C371.763 659.412 372.329 659.282 372.903 659.284C375.369 659.329 377.833 659.075 380.239 658.527C380.468 658.467 380.708 658.458 380.942 658.5C381.176 658.542 381.397 658.635 381.591 658.772C381.785 658.909 381.947 659.086 382.066 659.292C382.184 659.498 382.256 659.727 382.276 659.964L383.771 674.791C383.773 674.998 383.827 675.2 383.929 675.38C384.031 675.56 384.177 675.711 384.353 675.819L391.844 680.147L400.849 666.931C401.336 666.609 401.75 666.189 402.064 665.698C402.378 665.206 402.586 664.655 402.673 664.078L404.207 647.097C404.288 646.541 404.509 646.015 404.848 645.567C405.188 645.119 405.634 644.764 406.147 644.535C410.625 642.604 414.661 639.777 418.005 636.228C418.387 635.829 418.872 635.542 419.405 635.398C419.939 635.255 420.502 635.26 421.033 635.413L427.049 637.529C427.552 637.69 428.095 637.678 428.591 637.495C429.087 637.313 429.507 636.969 429.786 636.52L441.003 617.112C441.255 616.645 441.345 616.107 441.257 615.583C441.169 615.059 440.909 614.58 440.518 614.22L435.355 609.776C434.96 609.387 434.674 608.9 434.528 608.365C434.381 607.83 434.379 607.266 434.521 606.729C435.633 602.126 436.103 597.391 435.918 592.659C435.921 592.081 436.054 591.511 436.306 590.99C436.558 590.47 436.922 590.012 437.374 589.651L451.308 579.85C451.766 579.487 452.141 579.032 452.408 578.513C452.676 577.994 452.83 577.425 452.861 576.842L459.518 568.866L459.809 562.345ZM393.203 632.211C378.977 640.42 370.127 634.598 370.127 618.16C370.127 601.722 381.888 581.597 396.114 573.387C410.339 565.178 418.976 571.156 418.976 587.574C418.976 603.993 407.428 623.944 393.203 632.153V632.211Z" fill="black"/>
<path d="M438.092 540.88L441.042 534.922C441.263 534.457 441.302 533.926 441.151 533.434C441.001 532.942 440.67 532.524 440.227 532.263L430.406 526.596C429.958 526.348 429.433 526.275 428.934 526.394C428.434 526.512 427.998 526.813 427.709 527.237L416.433 544.199C416.23 544.485 415.973 544.729 415.676 544.917L428.31 552.195L438.092 540.88Z" fill="#9765D7"/>
<path d="M350.138 614.085C349.837 614.52 349.47 614.906 349.051 615.23L335.117 625.03C334.745 625.314 334.435 625.671 334.205 626.078L342.705 630.988L361.2 620.47L350.138 614.085Z" fill="#9765D7"/>
<path d="M358.599 567.217C358.208 567.23 357.826 567.339 357.487 567.535C357.149 567.732 356.864 568.009 356.659 568.343L345.441 587.75C345.211 588.184 345.123 588.68 345.189 589.167L354.893 594.737L370.244 573.971L358.599 567.217Z" fill="#9765D7"/>
<path d="M384.062 539.775L396.016 546.684L409.602 538.921V533.37L402.072 529.101C401.872 529.011 401.653 528.974 401.435 528.994C401.217 529.015 401.009 529.092 400.829 529.217L385.575 538.008C384.911 538.439 384.386 539.053 384.062 539.775Z" fill="#9765D7"/>
<path d="M459.808 562.345C459.625 562.239 459.418 562.183 459.207 562.183C458.996 562.183 458.788 562.239 458.605 562.345L445.02 568.458C444.804 568.56 444.569 568.613 444.331 568.614C444.092 568.615 443.856 568.564 443.64 568.464C443.423 568.364 443.231 568.218 443.077 568.036C442.924 567.854 442.812 567.64 442.749 567.41C442.248 565.769 441.598 564.178 440.809 562.655L451.094 558.017C451.279 557.926 451.481 557.879 451.686 557.879C451.892 557.879 452.094 557.926 452.278 558.017L459.808 562.345Z" fill="#9765D7"/>
<g opacity="0.4">
<path opacity="0.4" d="M438.092 540.881L441.042 534.923C441.263 534.458 441.302 533.927 441.151 533.435C441.001 532.943 440.67 532.525 440.227 532.264L430.406 526.597C429.958 526.348 429.433 526.276 428.934 526.395C428.434 526.513 427.998 526.814 427.709 527.238L416.433 544.2C416.23 544.486 415.973 544.73 415.676 544.918L428.31 552.196L438.092 540.881Z" fill="white"/>
<path opacity="0.4" d="M350.139 614.086C349.837 614.521 349.471 614.907 349.052 615.231L335.117 625.031C334.745 625.315 334.435 625.672 334.205 626.079L342.706 630.989L361.201 620.471L350.139 614.086Z" fill="white"/>
<path opacity="0.4" d="M358.6 567.217C358.209 567.229 357.826 567.339 357.488 567.535C357.149 567.732 356.864 568.009 356.659 568.342L345.442 587.75C345.211 588.184 345.123 588.68 345.189 589.167L354.893 594.736L370.244 573.971L358.6 567.217Z" fill="white"/>
<path opacity="0.4" d="M384.063 539.775L396.018 546.684L409.603 538.922V533.371L402.073 529.101C401.874 529.012 401.654 528.975 401.437 528.995C401.219 529.016 401.01 529.092 400.831 529.218L385.577 538.009C384.913 538.44 384.387 539.053 384.063 539.775Z" fill="white"/>
<path opacity="0.4" d="M459.809 562.346C459.626 562.24 459.418 562.184 459.207 562.184C458.996 562.184 458.789 562.24 458.606 562.346L445.02 568.459C444.805 568.561 444.57 568.614 444.331 568.615C444.093 568.616 443.857 568.565 443.64 568.465C443.424 568.365 443.232 568.219 443.078 568.037C442.924 567.855 442.812 567.641 442.75 567.411C442.248 565.77 441.599 564.179 440.809 562.656L451.095 558.018C451.279 557.927 451.482 557.88 451.687 557.88C451.892 557.88 452.095 557.927 452.279 558.018L459.809 562.346Z" fill="white"/>
</g>
<path d="M460.449 581.093V563.491C460.48 563.274 460.447 563.054 460.356 562.855C460.265 562.657 460.119 562.488 459.936 562.37C459.752 562.252 459.538 562.188 459.32 562.187C459.101 562.187 458.887 562.248 458.703 562.365L445.118 568.478C444.903 568.584 444.667 568.64 444.427 568.643C444.188 568.646 443.95 568.595 443.733 568.495C443.515 568.394 443.323 568.247 443.17 568.063C443.016 567.879 442.906 567.662 442.847 567.43C442.122 565.074 441.105 562.819 439.819 560.715C439.546 560.214 439.387 559.658 439.354 559.087C439.32 558.517 439.413 557.946 439.625 557.416L448.669 539.173C448.892 538.711 448.934 538.181 448.787 537.689C448.64 537.197 448.314 536.778 447.873 536.514L438.053 530.847C437.603 530.593 437.073 530.518 436.57 530.636C436.066 530.755 435.626 531.059 435.336 531.488L423.983 548.508C423.63 548.956 423.182 549.32 422.672 549.575C422.163 549.829 421.603 549.969 421.033 549.983C418.567 549.932 416.104 550.18 413.697 550.721C413.474 550.768 413.243 550.768 413.02 550.719C412.797 550.671 412.586 550.576 412.403 550.44C412.219 550.304 412.067 550.131 411.955 549.932C411.844 549.733 411.776 549.512 411.756 549.284L410.262 534.477C410.276 534.259 410.226 534.043 410.119 533.853C410.012 533.664 409.852 533.509 409.659 533.408C409.466 533.308 409.248 533.265 409.031 533.286C408.814 533.307 408.608 533.39 408.438 533.526L393.184 542.337C392.695 542.656 392.28 543.076 391.966 543.568C391.651 544.059 391.445 544.612 391.359 545.19L389.826 562.152C389.646 563.35 389.097 564.463 388.254 565.334C385.228 568.128 382.394 571.123 379.773 574.301C379.403 574.705 378.927 574.998 378.398 575.146C377.87 575.293 377.311 575.29 376.784 575.135L366.984 571.719C366.475 571.562 365.929 571.577 365.43 571.764C364.932 571.95 364.509 572.296 364.228 572.748L353.03 592.155C352.779 592.62 352.69 593.155 352.778 593.675C352.866 594.195 353.125 594.671 353.515 595.028L361.375 601.801C361.773 602.183 362.056 602.67 362.19 603.205C362.324 603.741 362.304 604.304 362.132 604.828C360.695 608.686 359.515 612.634 358.6 616.647C358.285 617.813 357.605 618.847 356.659 619.597L342.724 629.417C342.266 629.774 341.89 630.226 341.622 630.742C341.354 631.258 341.2 631.826 341.172 632.406V650.028C341.145 650.241 341.178 650.458 341.268 650.654C341.359 650.849 341.502 651.015 341.682 651.133C341.863 651.25 342.073 651.314 342.288 651.318C342.503 651.322 342.715 651.265 342.899 651.154L356.484 645.021C356.7 644.919 356.935 644.866 357.174 644.864C357.412 644.863 357.648 644.914 357.864 645.014C358.081 645.114 358.273 645.261 358.427 645.443C358.581 645.625 358.693 645.839 358.755 646.069C359.488 648.428 360.505 650.689 361.782 652.803C362.066 653.301 362.232 653.858 362.265 654.43C362.299 655.002 362.2 655.575 361.977 656.103L352.933 674.345C352.712 674.807 352.674 675.335 352.825 675.824C352.976 676.313 353.305 676.728 353.748 676.985L363.413 682.613C363.861 682.862 364.387 682.934 364.886 682.815C365.385 682.697 365.821 682.396 366.11 681.972L377.386 665.01C377.732 664.557 378.179 664.19 378.691 663.938C379.202 663.685 379.765 663.554 380.336 663.555C382.803 663.6 385.266 663.346 387.672 662.798C387.895 662.75 388.126 662.751 388.349 662.799C388.572 662.848 388.782 662.943 388.966 663.079C389.149 663.214 389.302 663.388 389.414 663.587C389.525 663.786 389.593 664.007 389.613 664.234L391.107 679.061C391.102 679.277 391.159 679.49 391.27 679.675C391.381 679.861 391.543 680.011 391.735 680.108C391.928 680.205 392.145 680.246 392.36 680.226C392.575 680.206 392.78 680.125 392.951 679.993L408.205 671.182C408.691 670.866 409.103 670.45 409.414 669.961C409.726 669.472 409.929 668.922 410.01 668.349L411.543 651.367C411.723 650.17 412.281 649.062 413.134 648.204C416.155 645.41 418.982 642.415 421.596 639.238C421.966 638.826 422.444 638.527 422.977 638.376C423.509 638.225 424.073 638.227 424.604 638.384L434.308 641.799C434.814 641.962 435.36 641.951 435.859 641.768C436.358 641.585 436.782 641.241 437.064 640.79L448.281 621.383C448.531 620.913 448.617 620.374 448.526 619.85C448.434 619.326 448.171 618.848 447.776 618.491L439.916 611.718C439.518 611.34 439.235 610.857 439.1 610.324C438.966 609.791 438.987 609.231 439.16 608.71C440.603 604.848 441.783 600.893 442.692 596.871C443.007 595.706 443.687 594.672 444.632 593.921L458.567 584.121C459.086 583.787 459.524 583.343 459.849 582.819C460.175 582.295 460.38 581.706 460.449 581.093ZM400.811 636.482C386.566 644.691 375.038 638.034 375.038 621.596C375.038 605.158 386.566 585.188 400.811 576.959C415.056 568.731 426.564 575.407 426.564 591.825C426.564 608.244 414.939 628.253 400.714 636.482H400.811Z" fill="#9765D7"/>
<path d="M635.969 251.089H699.334V194.303C699.334 185.898 695.995 177.837 690.052 171.894C684.108 165.95 676.047 162.611 667.642 162.611C659.24 162.616 651.184 165.958 645.245 171.9C639.306 177.843 635.969 185.901 635.969 194.303V251.089Z" fill="#263238"/>
<path d="M655.901 235.68L610.546 237.427C608.974 236.068 599.989 225.356 599.989 225.356C599.989 225.356 575.341 222.192 575.206 223.085C575.07 223.978 599.445 250.081 601.852 252.701C602.54 253.587 603.423 254.302 604.433 254.79C605.443 255.278 606.552 255.526 607.674 255.515L649.186 258.115L655.901 235.68Z" fill="#FFA8A7"/>
<path d="M422.295 440.118L420.937 439.341C419.804 438.591 418.863 437.586 418.189 436.406C417.515 435.227 417.126 433.905 417.055 432.549V293.223C417.126 291.867 417.515 290.545 418.189 289.366C418.863 288.186 419.804 287.181 420.937 286.431L599.911 183.125C601.114 182.517 602.444 182.199 603.793 182.199C605.141 182.199 606.471 182.517 607.674 183.125L609.013 183.902C610.148 184.645 611.091 185.647 611.765 186.824C612.439 188 612.827 189.32 612.895 190.675V330.02C612.828 331.375 612.442 332.695 611.767 333.872C611.092 335.049 610.149 336.05 609.013 336.793L430.039 440.118C428.836 440.717 427.511 441.029 426.167 441.029C424.823 441.029 423.498 440.717 422.295 440.118Z" fill="#9765D7"/>
<path opacity="0.4" d="M612.973 190.053C612.701 188.015 611.032 187.278 609.091 188.404L430.117 291.748C428.955 292.462 427.999 293.465 427.341 294.659L418.181 289.361C418.843 288.165 419.798 287.156 420.956 286.43L599.912 183.125C601.115 182.516 602.444 182.199 603.793 182.199C605.142 182.199 606.471 182.516 607.674 183.125L609.014 183.901C610.079 184.579 610.985 185.48 611.668 186.543C612.352 187.605 612.797 188.802 612.973 190.053Z" fill="white"/>
<path opacity="0.1" d="M429.398 440.428C428.254 440.884 427.025 441.092 425.794 441.039C424.563 440.985 423.357 440.671 422.256 440.117L420.879 439.341C419.746 438.591 418.805 437.586 418.131 436.406C417.457 435.226 417.068 433.905 416.997 432.548V293.223C417.029 291.851 417.424 290.511 418.142 289.342L427.302 294.64C426.599 295.816 426.205 297.151 426.157 298.521V437.885C426.196 440.098 427.613 441.146 429.398 440.428Z" fill="black"/>
<path d="M444.284 299.413L457.752 291.65C458.723 291.088 459.518 291.534 459.518 292.679V307.856C459.486 308.472 459.307 309.071 458.997 309.605C458.686 310.138 458.253 310.59 457.733 310.922L444.303 318.51C443.313 319.073 442.518 318.51 442.518 317.462V302.557C442.536 301.93 442.706 301.315 443.013 300.768C443.321 300.22 443.757 299.755 444.284 299.413Z" fill="#FAFAFA"/>
<path d="M456.006 308.711C455.833 308.823 455.63 308.883 455.424 308.883C455.217 308.883 455.015 308.823 454.841 308.711L450.746 305.606C450.184 305.198 450.261 304.034 450.902 303.024C451.542 302.015 452.513 301.53 453.056 301.957L455.967 304.15L464.021 286.839C464.526 285.752 465.477 285.034 466.175 285.208C466.874 285.383 466.99 286.431 466.505 287.498L457.306 307.255C457.053 307.83 456.643 308.321 456.122 308.672L456.006 308.711Z" fill="#37474F"/>
<path d="M444.284 332.406L457.752 324.643C458.723 324.081 459.518 324.643 459.518 325.672V340.849C459.486 341.465 459.307 342.065 458.997 342.598C458.686 343.131 458.253 343.583 457.733 343.915L444.303 351.523C443.313 352.066 442.518 351.523 442.518 350.475V335.55C442.536 334.923 442.706 334.309 443.013 333.761C443.321 333.213 443.757 332.748 444.284 332.406Z" fill="#FAFAFA"/>
<path d="M456.006 341.682C455.833 341.795 455.63 341.855 455.424 341.855C455.217 341.855 455.015 341.795 454.841 341.682L450.746 338.596C450.184 338.169 450.261 337.005 450.902 335.995C451.542 334.986 452.513 334.501 453.056 334.928L455.967 337.121L464.021 319.81C464.526 318.723 465.477 318.005 466.175 318.199C466.874 318.393 466.99 319.402 466.505 320.489L457.306 340.246C457.053 340.815 456.642 341.3 456.122 341.643L456.006 341.682Z" fill="#37474F"/>
<path d="M444.284 365.378L457.752 357.615C458.723 357.033 459.518 357.499 459.518 358.625V373.84C459.483 374.453 459.303 375.049 458.992 375.578C458.682 376.108 458.25 376.556 457.733 376.887L444.303 384.495C443.313 385.057 442.518 384.592 442.518 383.447V368.522C442.536 367.895 442.706 367.28 443.013 366.733C443.321 366.185 443.757 365.72 444.284 365.378Z" fill="#FAFAFA"/>
<path d="M456.006 374.657C455.837 374.78 455.633 374.846 455.424 374.846C455.214 374.846 455.011 374.78 454.841 374.657L450.746 371.571C450.184 371.164 450.261 369.999 450.902 368.99C451.542 367.981 452.513 367.496 453.056 367.903L455.967 370.096L464.021 352.785C464.526 351.717 465.477 350.98 466.175 351.174C466.874 351.368 466.99 352.377 466.505 353.464L457.306 373.221C457.053 373.795 456.643 374.287 456.122 374.637L456.006 374.657Z" fill="#37474F"/>
<path d="M444.284 398.45L457.752 390.687C458.723 390.124 459.518 390.687 459.518 391.716V406.834C459.483 407.447 459.303 408.043 458.992 408.572C458.682 409.102 458.25 409.55 457.733 409.881L444.303 417.489C443.313 418.051 442.518 417.586 442.518 416.441V401.516C442.548 400.902 442.724 400.303 443.031 399.77C443.338 399.237 443.767 398.784 444.284 398.45Z" fill="#FAFAFA"/>
<path d="M456.006 407.725C455.837 407.848 455.633 407.914 455.424 407.914C455.214 407.914 455.011 407.848 454.841 407.725L450.746 404.639C450.184 404.212 450.261 403.067 450.902 402.038C451.542 401.01 452.513 400.563 453.056 400.971L455.967 403.164L464.021 385.853C464.526 384.785 465.477 384.048 466.175 384.242C466.874 384.436 466.99 385.445 466.505 386.532L457.306 406.289C457.053 406.858 456.642 407.343 456.122 407.686L456.006 407.725Z" fill="#37474F"/>
<path d="M476.17 285.226C476.17 287.05 477.761 287.613 479.721 286.488L530.899 256.93C531.866 256.375 532.691 255.601 533.307 254.671C533.924 253.742 534.315 252.681 534.45 251.574C534.45 249.749 532.859 249.167 530.899 250.312L479.721 279.85C478.753 280.409 477.927 281.186 477.311 282.119C476.694 283.052 476.304 284.116 476.17 285.226Z" fill="#455A64"/>
<path d="M476.17 296.328C476.17 298.171 477.761 298.734 479.721 297.609L589.179 234.496C590.149 233.938 590.975 233.162 591.591 232.229C592.208 231.295 592.598 230.231 592.73 229.12C592.73 227.296 591.139 226.733 589.179 227.859L479.721 290.971C478.754 291.527 477.929 292.3 477.313 293.23C476.697 294.16 476.305 295.22 476.17 296.328Z" fill="#F0F0F0"/>
<path d="M476.17 317.56C476.17 319.384 477.761 319.966 479.721 318.821L530.899 289.283C531.867 288.724 532.693 287.948 533.309 287.015C533.926 286.081 534.316 285.018 534.45 283.907C534.45 282.083 532.859 281.52 530.899 282.646L479.721 312.125C478.744 312.689 477.914 313.474 477.297 314.418C476.68 315.362 476.294 316.439 476.17 317.56Z" fill="#455A64"/>
<path d="M476.17 328.601C476.17 330.426 477.761 330.989 479.721 329.863L589.179 266.75C590.146 266.195 590.971 265.421 591.587 264.492C592.204 263.562 592.595 262.501 592.73 261.394C592.73 259.57 591.139 258.987 589.179 260.132L479.721 323.226C478.753 323.784 477.927 324.561 477.311 325.494C476.694 326.427 476.304 327.491 476.17 328.601Z" fill="#F0F0F0"/>
<path d="M476.17 351.795C476.17 353.736 477.761 354.202 479.721 353.057L530.899 323.519C531.868 322.961 532.695 322.185 533.311 321.252C533.928 320.318 534.318 319.254 534.45 318.143C534.45 316.319 532.859 315.756 530.899 316.881L479.721 346.439C478.754 346.994 477.929 347.768 477.313 348.698C476.697 349.627 476.305 350.688 476.17 351.795Z" fill="#455A64"/>
<path d="M476.17 362.914C476.17 364.738 477.761 365.301 479.721 364.176L589.179 301.063C590.146 300.507 590.971 299.734 591.587 298.804C592.204 297.874 592.595 296.814 592.73 295.707C592.73 293.882 591.139 293.3 589.179 294.445L479.721 357.558C478.754 358.113 477.929 358.887 477.313 359.816C476.697 360.746 476.305 361.807 476.17 362.914Z" fill="#F0F0F0"/>
<path d="M476.17 386.106C476.17 388.047 477.761 388.513 479.721 387.387L530.899 357.83C531.866 357.274 532.691 356.501 533.307 355.571C533.924 354.641 534.315 353.581 534.45 352.473C534.45 350.532 532.859 350.067 530.899 351.192L479.721 380.75C478.754 381.305 477.929 382.079 477.313 383.008C476.697 383.938 476.305 384.999 476.17 386.106Z" fill="#455A64"/>
<path d="M476.17 397.226C476.17 399.051 477.761 399.633 479.721 398.488L589.179 335.395C590.146 334.834 590.97 334.056 591.586 333.124C592.202 332.191 592.594 331.128 592.73 330.019C592.73 328.194 591.139 327.632 589.179 328.757L479.721 391.87C478.754 392.426 477.929 393.199 477.313 394.129C476.697 395.058 476.305 396.119 476.17 397.226Z" fill="#F0F0F0"/>
<path d="M635.388 543.812C631.765 547.695 627.774 551.218 623.472 554.331C622.789 554.77 622.218 555.361 621.803 556.058C621.24 557.242 620.347 560.153 625.684 562.035C628.402 562.975 631.291 563.319 634.154 563.044C637.017 562.769 639.787 561.883 642.277 560.444C646.683 557.669 646.896 551.924 651.049 548.644C654.135 546.218 657.997 545.597 660.481 542.434C662.228 540.221 661.762 537.272 660.87 533.642C659.88 529.664 659.414 526.656 658.114 526.966L658.327 528.791C656.678 531.41 648.177 532.187 644.393 530.382C641.628 535.013 638.622 539.496 635.388 543.812Z" fill="#263238"/>
<path d="M631.661 547.538C632.965 546.373 634.208 545.143 635.387 543.851C637.914 540.59 640.235 537.174 642.335 533.623C643.797 531.477 644.481 528.895 644.275 526.307C643.984 523.551 643.227 516.506 643.227 516.506L656.696 515.555L658.268 528.771C658.598 531.76 656.114 534.419 651.728 538.203C647.342 541.988 641.772 550.799 637.813 553.011C633.854 555.223 631.001 555.146 629.312 554.001C627.624 552.856 627.352 551.905 631.661 547.538Z" fill="#FFA8A7"/>
<path d="M695.919 545.015V543.074C695.124 545.461 691.417 555.689 685.808 560.812C681.344 564.888 675.25 569.584 673.698 574.126C672.145 578.667 682.179 580.433 686.351 579.695C691.917 578.771 697.024 576.044 700.888 571.933C703.294 568.983 704.769 565.489 706.535 563.16C708.301 560.831 712.202 558.25 713.134 555.572C713.411 553.065 713.133 550.527 712.318 548.139C711.659 545.636 710.941 542.88 710.087 543.113V544.665C708.068 546.247 705.568 547.09 703.003 547.052C700.946 547.013 695.919 546.567 695.919 545.015Z" fill="#263238"/>
<path d="M681.694 564.305C683.091 563.083 684.489 561.86 685.75 560.715C689.632 557.125 692.659 551.011 694.386 546.916C695.359 544.552 695.86 542.02 695.861 539.464V531.39H710.029V544.626V544.976C709.33 547.926 702.848 555.747 699.141 560.851C696.676 564.266 691.96 568.614 686.352 569.371C680.743 570.128 678.298 568.342 681.694 564.305Z" fill="#FFA8A7"/>
<path d="M707.273 324.936C718.258 348.904 706.885 433.384 706.885 433.384C707.215 437.265 711.659 444.931 713.309 462.048C715.25 482.29 710.243 533.099 710.243 533.099C708.082 534.352 705.649 535.06 703.153 535.162C700.658 535.263 698.175 534.755 695.92 533.681C695.92 533.681 682.432 457.138 679.89 437.032C677.677 419.469 673.427 378.189 673.427 378.189L660.676 437.052C662.192 442.755 663.025 448.619 663.16 454.518C662.966 466.415 657.435 518.563 657.435 518.563C657.435 518.563 652.506 521.435 643.229 520.076C643.229 520.076 634.282 451.627 634.554 435.674C634.69 427.135 638.435 336.231 638.435 336.231L707.273 324.936Z" fill="#9765D7"/>
<g opacity="0.15">
<path opacity="0.15" d="M673.426 378.189L669.855 358.588C669.855 358.588 654.776 355.463 647.944 349.02C652.669 354.556 658.846 358.663 665.78 360.878L669.778 378.034L662.539 428.493L673.426 378.189Z" fill="#263238"/>
</g>
<path d="M674.746 164.553L675.484 156.247C674.941 156.168 674.388 156.201 673.859 156.343C673.329 156.485 672.834 156.733 672.404 157.073C671.973 157.412 671.617 157.836 671.355 158.318C671.094 158.8 670.934 159.33 670.884 159.876C670.806 161.002 671.163 162.115 671.882 162.985C672.601 163.855 673.626 164.416 674.746 164.553Z" fill="#263238"/>
<path d="M675.192 165.387L681.907 160.458C681.605 159.993 681.211 159.595 680.75 159.288C680.288 158.981 679.768 158.772 679.223 158.674C678.677 158.575 678.117 158.59 677.577 158.717C677.038 158.843 676.53 159.079 676.085 159.41C675.202 160.105 674.618 161.11 674.452 162.221C674.286 163.333 674.551 164.465 675.192 165.387Z" fill="#263238"/>
<path d="M682.179 236.282C682.179 236.282 698.345 237.699 700.616 238.708C688.971 251.42 706.671 256.699 706.671 256.699L694.58 299.938C701.839 311.02 706.457 319.579 709.194 330.485C701.043 344.847 655.222 346.846 638.415 336.133C639.89 316.085 643.151 301.724 642.064 295.688C636.339 271.099 636.552 265.898 637.29 260.27C638.765 249.285 649.672 239.698 655.901 235.681H661.723L682.179 236.282Z" fill="#37474F"/>
<path d="M649.303 178.098C645.887 180.038 641.676 188.694 642.083 206.704C642.432 221.958 647.381 225.723 649.846 226.81C652.311 227.897 657.124 227.237 661.782 226.461V235.621C661.782 235.621 655.338 243.093 655.746 247.266C656.153 251.438 665.042 252.447 671.058 248.352C675.413 244.969 679.166 240.874 682.159 236.242L682.043 215.185C682.043 215.185 684.779 217.863 689.437 213.788C693.319 210.43 694.561 204.783 691.572 201.755C690.798 201.032 689.862 200.503 688.843 200.213C687.824 199.923 686.751 199.879 685.712 200.086C684.673 200.293 683.698 200.744 682.867 201.402C682.037 202.06 681.375 202.906 680.937 203.871C679.656 206.646 676.745 206.685 676.725 203.521C676.589 187.297 674.668 186.443 673.038 179.786C663.354 176.662 656.464 177.826 649.303 178.098Z" fill="#FFA8A7"/>
<path d="M659.122 202.864C659.109 203.119 659.147 203.374 659.233 203.614C659.318 203.854 659.451 204.075 659.622 204.265C659.793 204.454 660 204.608 660.23 204.717C660.461 204.826 660.711 204.889 660.966 204.902C661.221 204.914 661.475 204.877 661.716 204.791C661.956 204.705 662.177 204.573 662.366 204.402C662.556 204.231 662.709 204.024 662.819 203.793C662.928 203.563 662.991 203.313 663.004 203.058C663.016 202.803 662.979 202.548 662.893 202.308C662.807 202.068 662.675 201.847 662.504 201.657C662.333 201.468 662.126 201.314 661.895 201.205C661.665 201.096 661.415 201.033 661.16 201.02C660.905 201.008 660.65 201.045 660.41 201.131C660.169 201.217 659.948 201.349 659.759 201.52C659.57 201.691 659.416 201.898 659.307 202.129C659.198 202.359 659.135 202.609 659.122 202.864Z" fill="#263238"/>
<path d="M658.599 215.808L654.154 217.225C654.232 217.524 654.37 217.804 654.559 218.048C654.749 218.292 654.987 218.495 655.257 218.644C655.528 218.793 655.826 218.885 656.134 218.914C656.441 218.944 656.752 218.911 657.046 218.816C657.649 218.62 658.15 218.195 658.441 217.631C658.731 217.068 658.788 216.413 658.599 215.808Z" fill="#F28F8F"/>
<path d="M643.693 197.777L647.575 195.099C647.411 194.836 647.196 194.609 646.943 194.432C646.689 194.254 646.402 194.13 646.1 194.066C645.797 194.003 645.484 194.001 645.181 194.062C644.877 194.123 644.589 194.244 644.334 194.42C643.821 194.794 643.47 195.349 643.351 195.972C643.233 196.595 643.355 197.24 643.693 197.777Z" fill="#263238"/>
<path d="M664.713 198.4L660.831 195.702C660.994 195.442 661.208 195.217 661.461 195.041C661.714 194.866 661.999 194.744 662.3 194.682C662.602 194.62 662.912 194.621 663.214 194.683C663.515 194.744 663.8 194.867 664.053 195.043C664.568 195.414 664.923 195.968 665.046 196.591C665.168 197.214 665.049 197.861 664.713 198.4Z" fill="#263238"/>
<path d="M644.276 201.485C644.276 201.869 644.39 202.244 644.603 202.563C644.817 202.882 645.12 203.131 645.474 203.278C645.829 203.425 646.219 203.463 646.596 203.388C646.972 203.314 647.318 203.129 647.589 202.857C647.861 202.586 648.046 202.24 648.121 201.864C648.195 201.487 648.157 201.097 648.01 200.742C647.863 200.388 647.614 200.085 647.295 199.871C646.976 199.658 646.601 199.544 646.217 199.544C645.702 199.544 645.209 199.749 644.845 200.113C644.481 200.477 644.276 200.97 644.276 201.485Z" fill="#263238"/>
<path d="M653.34 200.38L653.03 211.927L646.955 210.045L653.34 200.38Z" fill="#F28F8F"/>
<path d="M661.801 226.463C666.711 225.822 676.803 222.93 678.375 218.933C677.743 220.953 676.502 222.728 674.824 224.017C671.815 226.618 661.801 229.529 661.801 229.529V226.463Z" fill="#F28F8F"/>
<path d="M659.414 164.729C655.914 164.729 652.447 165.42 649.214 166.762C645.981 168.104 643.044 170.07 640.572 172.549C638.101 175.028 636.142 177.971 634.81 181.208C633.477 184.445 632.797 187.913 632.807 191.414V194.849H645.829C648.759 194.852 651.589 193.79 653.795 191.863C656.001 189.935 657.433 187.272 657.823 184.369L658.308 194.849C660.711 194.831 663.022 193.922 664.793 192.297C666.564 190.673 667.669 188.45 667.895 186.057L668.051 184.35C668.28 187.209 669.577 189.876 671.685 191.822C673.792 193.768 676.555 194.848 679.423 194.849H680.588L681.907 176.063L659.414 164.729Z" fill="#263238"/>
<path d="M690.019 245.753C686.409 251.109 665.818 296.212 665.818 296.212C665.818 296.212 634.766 294.116 621.647 292.719C617.513 292.272 618.425 287.848 616.776 283.461C615.126 279.075 613.011 279.929 613.011 279.929V285.752C613.146 289.633 606.645 291.807 603.85 292.893C599.27 294.679 594.244 295.805 589.508 297.28C587.846 297.594 586.355 298.505 585.316 299.841C584.965 300.517 584.792 301.271 584.816 302.033C584.84 302.794 585.059 303.536 585.452 304.189C586.588 306.033 588.143 307.583 589.991 308.713C591.839 309.842 593.928 310.52 596.087 310.69C601.366 311.33 606.49 309.817 611.613 308.885C617.688 307.818 622.326 306.944 628.342 307.74C634.359 308.536 641.656 310.108 647.381 311.156C654.721 312.43 662.127 313.285 669.564 313.718C673.697 313.912 676.706 313.097 680.276 308.051C683.847 303.005 703.565 262.385 703.565 262.385C711.775 250.741 707.059 240.882 700.965 238.805C697.219 237.563 693.648 240.474 690.019 245.753Z" fill="#FFA8A7"/>
<path d="M564.706 202.358C566.273 202.568 567.814 202.939 569.305 203.464C573.133 204.769 576.404 207.335 578.582 210.742C579.527 212.423 579.927 214.355 579.727 216.273C579.671 216.776 579.519 217.263 579.281 217.709C578.736 218.477 577.991 219.081 577.127 219.456C575.757 220.395 574.142 220.91 572.482 220.938C570.823 220.965 569.191 220.504 567.792 219.611C563.999 217.413 559.994 215.606 555.837 214.216C553.739 213.566 551.568 213.181 549.374 213.071C548.11 213.103 546.89 213.546 545.9 214.333C545.554 213.469 545.452 212.527 545.607 211.609C545.761 210.692 546.164 209.835 546.774 209.131C548.92 206.226 551.95 204.095 555.41 203.057C558.418 202.138 561.594 201.899 564.706 202.358Z" fill="#FFA8A7"/>
<path d="M221.37 336.037C232.614 336.037 241.728 326.922 241.728 315.679C241.728 304.435 232.614 295.32 221.37 295.32C210.126 295.32 201.012 304.435 201.012 315.679C201.012 326.922 210.126 336.037 221.37 336.037Z" fill="#263238"/>
<path d="M172.638 684.533H186.98V660.002H172.638V684.533Z" fill="#FFA8A7"/>
<path d="M222.34 658.683L236.663 659.169L237.381 633.202L222.34 632.716V658.683Z" fill="#FFA8A7"/>
<path d="M173.59 449.687C173.59 463.369 171.824 562.113 171.824 562.113C171.494 565.995 167.787 573.311 168.602 588.449C169.67 609.002 172.037 672.269 172.037 672.269C174.512 673.484 177.223 674.141 179.979 674.194C182.735 674.248 185.47 673.697 187.99 672.58C187.99 672.58 200.644 588.527 203.205 568.149C205.457 550.391 209.261 502.164 209.261 502.164L217.023 560.173C215.366 567.647 214.772 575.317 215.257 582.957C215.917 592.369 221.448 650.708 221.448 650.708C223.942 652.12 226.717 652.965 229.575 653.183C232.433 653.402 235.304 652.987 237.983 651.969C237.983 651.969 245.242 568.828 245.397 560.173C245.591 550.333 240.623 449.745 240.623 449.745L173.59 449.687Z" fill="#37474F"/>
<path d="M238.662 366.37C247.065 373.279 262.242 387.311 262.242 387.311L238.565 400.333L223.505 359.946C223.505 359.946 229.502 358.782 238.662 366.37Z" fill="#9765D7"/>
<path opacity="0.1" d="M238.662 366.37C247.065 373.279 262.242 387.311 262.242 387.311L238.565 400.333L223.505 359.946C223.505 359.946 229.502 358.782 238.662 366.37Z" fill="black"/>
<path d="M178.461 369.786C178.461 369.786 173.104 375.162 173.104 388.164V416.247L172.697 469.287C193.269 480.136 219.274 480.757 241.185 464.726C241.185 464.726 240.137 396.568 240.137 385.389C240.137 374.211 233.927 359.713 216.848 358.724L194.744 363.866L178.461 369.786Z" fill="#9765D7"/>
<path d="M186.205 330.136C186.205 330.136 189.504 345.662 190.824 348.185C191.705 349.753 193.158 350.921 194.88 351.445L194.647 340.558L186.205 330.136Z" fill="#263238"/>
<path d="M190.338 307.954C189.187 307.815 188.02 307.943 186.927 308.326C185.833 308.71 184.842 309.339 184.03 310.167C181.313 312.942 182.827 321.636 186.204 330.137L192.414 330.855L190.338 307.954Z" fill="#263238"/>
<path d="M194.278 330.855C193.035 331.612 191.25 329.205 189.717 327.614C188.184 326.022 183.177 323.732 180.673 329.069C178.169 334.406 182.924 341.548 186.806 342.79C193.598 344.925 194.569 340.578 194.569 340.578L195.093 365.109C195.093 365.109 200.915 374.812 216.033 377.141C223.796 378.344 225.62 370.853 217.217 364.468V356.996C220.252 357.479 223.329 357.635 226.397 357.462C231.404 356.686 234.548 352.746 236.1 347.332C238.546 338.637 239.458 331.612 237.401 314.494C235.13 295.747 213.316 295.553 201.536 302.966C189.756 310.38 194.278 330.855 194.278 330.855Z" fill="#FFA8A7"/>
<path d="M194.278 332.95C193.657 332.95 191.27 329.069 189.717 327.613C187.563 325.673 190.338 307.954 190.338 307.954C189.777 306.419 189.675 304.754 190.044 303.162C190.412 301.57 191.236 300.119 192.415 298.987C195.365 295.766 200.275 295.397 208.678 294.077C213.084 293.379 219.76 292.137 224.204 291.341C229.444 290.351 233.791 289.4 237.518 292.544C238.966 293.81 239.99 295.492 240.448 297.36C240.907 299.228 240.778 301.193 240.079 302.985C239.696 303.8 239.192 304.552 238.585 305.217C237.593 306.413 236.29 307.313 234.82 307.818C234.82 307.818 232.53 309.856 224.553 310.826C217.194 311.377 209.8 311.234 202.468 310.399C200.158 310.088 199.673 312.34 198.431 318.434C197.286 323.809 196.374 332.912 194.278 332.95Z" fill="#263238"/>
<path d="M190.357 309.332L182.924 305.276C183.16 304.764 183.497 304.305 183.916 303.927C184.335 303.55 184.826 303.261 185.36 303.08C185.894 302.898 186.459 302.827 187.021 302.871C187.584 302.915 188.131 303.073 188.63 303.335C189.637 303.918 190.379 304.868 190.701 305.986C191.023 307.104 190.9 308.303 190.357 309.332Z" fill="#263238"/>
<path d="M217.275 356.976C217.275 356.976 206.116 354.724 202.215 352.648C199.92 351.453 198.04 349.593 196.82 347.311C197.404 349.593 198.448 351.733 199.886 353.599C202.739 357.247 217.353 359.945 217.353 359.945L217.275 356.976Z" fill="#F28F8F"/>
<path d="M214.598 328.058C214.583 328.501 214.437 328.929 214.18 329.289C213.923 329.649 213.565 329.926 213.151 330.084C212.738 330.242 212.287 330.274 211.855 330.177C211.423 330.08 211.029 329.858 210.723 329.538C210.416 329.218 210.211 328.816 210.132 328.38C210.054 327.944 210.105 327.495 210.281 327.089C210.456 326.682 210.748 326.336 211.118 326.095C211.489 325.853 211.923 325.726 212.366 325.729C212.666 325.734 212.962 325.799 213.237 325.919C213.511 326.039 213.76 326.212 213.967 326.429C214.175 326.645 214.337 326.901 214.446 327.18C214.554 327.46 214.606 327.758 214.598 328.058Z" fill="#263238"/>
<path d="M212.229 319.618L207.436 322.257C207.253 321.93 207.137 321.569 207.094 321.197C207.051 320.825 207.082 320.448 207.184 320.087C207.287 319.727 207.46 319.39 207.693 319.096C207.926 318.803 208.214 318.558 208.542 318.376C208.863 318.205 209.217 318.101 209.58 318.072C209.943 318.042 210.308 318.087 210.653 318.203C210.998 318.319 211.316 318.505 211.587 318.748C211.858 318.991 212.076 319.287 212.229 319.618Z" fill="#263238"/>
<path d="M216.266 343.527L221.37 345.468C221.259 345.809 221.08 346.124 220.845 346.395C220.609 346.665 220.322 346.886 220 347.043C219.678 347.201 219.327 347.292 218.969 347.311C218.611 347.331 218.253 347.278 217.915 347.156C217.221 346.887 216.66 346.356 216.351 345.678C216.043 345 216.012 344.228 216.266 343.527Z" fill="#F28F8F"/>
<path d="M234.548 321.442L230.182 318.085C230.386 317.776 230.652 317.513 230.964 317.314C231.276 317.115 231.627 316.984 231.993 316.929C232.359 316.874 232.732 316.897 233.089 316.995C233.446 317.094 233.778 317.267 234.063 317.502C234.631 317.973 234.998 318.643 235.088 319.376C235.179 320.108 234.985 320.848 234.548 321.442Z" fill="#263238"/>
<path d="M233.209 327.438C233.19 327.88 233.041 328.306 232.782 328.663C232.522 329.021 232.163 329.294 231.749 329.449C231.336 329.604 230.885 329.634 230.455 329.535C230.024 329.436 229.632 329.212 229.328 328.892C229.024 328.572 228.82 328.169 228.743 327.734C228.666 327.299 228.719 326.851 228.894 326.445C229.07 326.04 229.361 325.695 229.732 325.454C230.102 325.213 230.535 325.087 230.977 325.09C231.583 325.11 232.156 325.368 232.574 325.807C232.991 326.246 233.219 326.832 233.209 327.438Z" fill="#263238"/>
<path d="M221.816 325.305L222.534 338.773L229.56 336.367L221.816 325.305Z" fill="#F28F8F"/>
<path d="M186.98 677.45V675.412C188.358 676.014 191.541 688.163 197.228 693.345C201.749 697.478 207.921 702.233 209.493 706.833C211.065 711.432 200.896 714.246 196.665 713.509C191.774 712.636 183.254 709.181 181.139 705.979C179.023 702.777 178.014 698.041 176.268 695.693C174.521 693.345 170.445 690.725 169.591 687.93C169.312 685.396 169.597 682.831 170.426 680.419C171.086 677.877 171.804 675.102 172.677 675.335V676.887C174.711 678.502 177.242 679.359 179.839 679.313C181.915 679.468 187 679.061 186.98 677.45Z" fill="#263238"/>
<path d="M236.818 654.762C237.575 654.762 238.176 655.83 239.807 657.615C242.268 660.085 245.12 662.131 248.249 663.67C253.605 666.368 264.046 670.502 268.762 672.617C271.732 673.956 271.576 677.527 268.529 679.545C265.483 681.564 258.127 683.039 249.277 681.059C244.464 679.972 238.196 675.528 234.217 675.78C230.239 676.033 222.825 675.955 219.895 673.937C216.964 671.918 218.148 667.61 218.983 663.903C219.875 659.847 220.923 653.559 222.34 653.831V655.247C224.067 657.848 232.956 658.915 236.74 656.994L236.818 654.762Z" fill="#263238"/>
<path d="M209.26 502.105C216.665 499.787 223.474 495.879 229.211 490.654C229.211 490.654 225.33 497.874 213.918 504.569L216.363 555.145L209.26 502.105Z" fill="#263238"/>
<path d="M227.134 556.408L225.776 555.631C224.644 554.88 223.704 553.875 223.03 552.695C222.356 551.516 221.967 550.195 221.894 548.839V409.513C221.967 408.157 222.356 406.837 223.03 405.657C223.704 404.478 224.644 403.472 225.776 402.721L346.45 333.087C347.655 332.484 348.984 332.171 350.332 332.171C351.679 332.171 353.008 332.484 354.213 333.087L355.572 333.883C356.705 334.628 357.647 335.629 358.322 336.806C358.996 337.983 359.384 339.302 359.453 340.656V480.001C359.381 481.355 358.992 482.673 358.317 483.849C357.643 485.025 356.703 486.027 355.572 486.774L234.897 556.447C233.689 557.043 232.358 557.351 231.011 557.344C229.663 557.337 228.336 557.017 227.134 556.408Z" fill="#F5F5F5"/>
<path d="M293.022 389.873C313.924 377.802 330.886 387.603 330.886 411.746C330.886 435.888 313.924 465.252 293.022 477.323C272.121 489.394 255.139 479.613 255.139 455.47C255.139 431.328 272.198 401.964 293.022 389.873Z" fill="#455A64"/>
<path d="M292.751 408.892C299.524 405.01 305.036 408.135 305.036 415.976C304.814 420.25 303.586 424.412 301.451 428.122C299.316 431.832 296.335 434.984 292.751 437.324C285.958 441.205 280.466 438.081 280.466 430.24C280.687 425.966 281.915 421.804 284.05 418.094C286.185 414.384 289.166 411.231 292.751 408.892Z" fill="#9765D7"/>
<path d="M316.951 450.655C316.951 437.788 307.927 432.567 296.768 439.011L289.8 443.028C278.661 449.471 269.617 465.113 269.617 477.961V481.435C276.06 483.57 284.172 482.405 293.022 477.301C302.699 471.336 310.884 463.238 316.951 453.624V450.655Z" fill="#9765D7"/>
<path d="M359.531 339.995C359.26 337.957 357.591 337.22 355.65 338.346L234.975 408.037C233.818 408.757 232.863 409.759 232.2 410.948L223.04 405.65C223.702 404.454 224.657 403.446 225.815 402.72L346.451 333.086C347.653 332.474 348.983 332.155 350.332 332.155C351.681 332.155 353.011 332.474 354.214 333.086L355.572 333.862C356.632 334.542 357.534 335.442 358.217 336.5C358.9 337.557 359.348 338.749 359.531 339.995Z" fill="#FAFAFA"/>
<path d="M234.295 556.717C233.147 557.174 231.916 557.382 230.681 557.328C229.447 557.275 228.238 556.961 227.134 556.407L225.756 555.63C224.624 554.879 223.684 553.873 223.01 552.694C222.336 551.515 221.947 550.194 221.875 548.838V409.512C221.906 408.14 222.301 406.801 223.02 405.631L232.18 410.929C231.476 412.105 231.082 413.441 231.035 414.81V554.175C231.035 556.387 232.452 557.435 234.295 556.717Z" fill="#E0E0E0"/>
<path d="M251.394 521.668C251.394 525.55 254.169 527.238 257.604 525.259L328.48 484.464C330.288 483.288 331.793 481.701 332.872 479.832C333.952 477.964 334.574 475.867 334.69 473.713C334.69 469.831 331.915 468.143 328.48 470.122L257.662 511.014C255.86 512.179 254.354 513.749 253.266 515.599C252.178 517.448 251.536 519.527 251.394 521.668Z" fill="#9765D7"/>
<path d="M155.463 453.721C148.108 448.598 148.205 440.99 150.553 432.373C166.564 373.181 171.474 372.851 178.461 369.862L184.069 393.151L169.106 441.669C179.13 449.028 190.506 454.337 202.584 457.292C205.101 457.714 207.685 457.439 210.056 456.496C214.617 453.935 217.178 453.935 221.856 452.615V460.261C226.037 460.79 230.276 460.646 234.412 459.835C244.116 458.03 248.327 460.048 242.408 471.11C238.701 478.039 231.501 480.329 213.452 477.223C206.875 475.978 200.391 474.286 194.045 472.158C180.444 467.701 167.475 461.504 155.463 453.721Z" fill="#FFA8A7"/>
<path d="M178.461 369.786C178.461 369.786 185.35 374.114 186.825 384.963C188.3 395.811 177.859 425.33 177.859 425.33C177.859 425.33 160.994 423.719 154.007 415.413C154.007 415.413 163.711 388.417 165.652 382.323C166.49 379.289 168.117 376.531 170.367 374.329C172.617 372.127 175.409 370.56 178.461 369.786Z" fill="#9765D7"/>
<path opacity="0.1" d="M178.461 369.786C178.461 369.786 185.35 374.114 186.825 384.963C188.3 395.811 177.859 425.33 177.859 425.33C177.859 425.33 160.994 423.719 154.007 415.413C154.007 415.413 163.711 388.417 165.652 382.323C166.49 379.289 168.117 376.531 170.367 374.329C172.617 372.127 175.409 370.56 178.461 369.786Z" fill="black"/>
<path d="M359.532 373.591V382.227C359.532 382.227 354.874 389.311 349.828 391.931C344.782 394.551 344.86 405.011 351.089 406.486C357.319 407.961 365.897 400.256 366.615 396.025C367.333 391.795 365.8 373.144 359.532 373.591Z" fill="#FFA8A7"/>
</svg>
