<svg width="854" height="830" viewBox="0 0 854 830" fill="none" xmlns="http://www.w3.org/2000/svg">
<path d="M428.5 830C663.497 830 854 720.086 854 584.5C854 448.914 663.497 339 428.5 339C193.503 339 3 448.914 3 584.5C3 720.086 193.503 830 428.5 830Z" fill="#F5F5F5"/>
<path d="M758.074 629.046L645.66 564.802C645.176 564.639 644.756 564.33 644.458 563.919C644.16 563.507 644 563.013 644 562.507C644 562.001 644.16 561.507 644.458 561.096C644.756 560.684 645.176 560.375 645.66 560.213L717.922 518.949C719.165 518.325 720.54 518 721.933 518C723.327 518 724.702 518.325 725.945 518.949L838.34 583.194C838.824 583.357 839.244 583.665 839.542 584.077C839.84 584.488 840 584.982 840 585.488C840 585.995 839.84 586.488 839.542 586.9C839.244 587.311 838.824 587.62 838.34 587.783L766.078 629.064C764.836 629.683 763.464 630.003 762.074 630C760.683 629.997 759.313 629.67 758.074 629.046Z" fill="#E0E0E0"/>
<path d="M274 751C377.829 751 462 702.647 462 643C462 583.353 377.829 535 274 535C170.17 535 86 583.353 86 643C86 702.647 170.17 751 274 751Z" fill="#E0E0E0"/>
<path d="M452 692C519.379 692 574 660.436 574 621.5C574 582.564 519.379 551 452 551C384.621 551 330 582.564 330 621.5C330 660.436 384.621 692 452 692Z" fill="#E0E0E0"/>
<path d="M87.7616 551.688L89.2859 527.658C89.2859 527.658 87.8545 496.954 57.2561 468.636C38.6666 451.426 23.293 460.687 19.445 470.059C15.5969 479.431 18.7943 493.646 36.8634 506.936C65.1567 527.732 88.9141 560.654 92 584L87.7616 551.688Z" fill="#37474F"/>
<path d="M86.9921 544.995C86.7417 545.019 86.4906 544.957 86.2808 544.82C86.071 544.683 85.9153 544.478 85.8397 544.241C71.9187 498.613 31.9398 471.237 31.438 470.961C31.3219 470.879 31.224 470.775 31.1503 470.654C31.0766 470.533 31.0286 470.399 31.0095 470.259C30.9903 470.12 31.0003 469.978 31.0388 469.842C31.0774 469.706 31.1437 469.58 31.2336 469.47C31.3923 469.237 31.6375 469.076 31.9159 469.021C32.1943 468.966 32.4834 469.021 32.7205 469.176C33.1294 469.452 73.8145 497.233 87.9586 543.597C88.0353 543.865 88.0047 544.152 87.8732 544.399C87.7417 544.646 87.5194 544.833 87.2523 544.921L86.9921 544.995Z" fill="white"/>
<path d="M88.8245 552.233C88.6482 549.63 87.6822 547.143 86.0555 545.103C83.1213 541.712 77.9866 540.612 75.511 536.854C74.5298 534.985 73.7432 533.019 73.1637 530.989C71.3262 526.614 67.8995 523.097 63.5728 521.146C59.2433 519.262 54.4726 518.627 49.8007 519.313C46.2614 519.753 42.8322 520.834 39.2929 521.329C27.6848 522.997 16.9386 512.348 5.38544 519.496C-1.54642 523.822 -1.06962 531.374 2.78141 537.697C4.79606 540.915 7.32339 543.782 10.2634 546.184C13.3809 548.823 16.6635 550.418 16.9936 555.001C17.2136 558.337 16.1683 561.654 16.205 565.008C16.337 567.761 17.0604 570.453 18.3262 572.901C19.5919 575.349 21.3703 577.496 23.5403 579.196C27.9228 582.562 33.0808 584.774 38.541 585.629C42.5571 586.399 47.1783 587.004 49.3973 590.432C50.3241 592.306 50.9433 594.318 51.2311 596.389C52.1938 599.704 53.851 602.777 56.0926 605.403C58.3342 608.029 61.1091 610.148 64.2329 611.621C70.5362 614.514 77.5252 615.58 84.405 614.7C90.3316 614.295 96.0136 612.181 100.763 608.615C108.612 602.199 104.1 590.083 98.9289 583.338C96.6733 580.369 93.8859 577.839 91.8137 574.741C87.6692 568.601 88.3477 563.286 88.7329 556.265C88.8743 554.926 88.905 553.577 88.8245 552.233Z" fill="#455A64"/>
<path d="M95.2735 597.984C95.0929 598.019 94.9058 597.997 94.7387 597.921C94.5715 597.845 94.4328 597.72 94.3424 597.562C65.8318 546.982 20.0956 532.851 19.63 532.704C19.4068 532.636 19.2195 532.485 19.1081 532.283C18.9968 532.08 18.9702 531.843 19.0341 531.622C19.1071 531.4 19.2642 531.215 19.4726 531.106C19.681 530.996 19.9243 530.971 20.1515 531.034C20.617 531.181 67.0236 545.533 95.888 596.717C95.9443 596.816 95.9802 596.925 95.9939 597.038C96.0075 597.15 95.9984 597.264 95.9673 597.373C95.9362 597.482 95.8835 597.584 95.8124 597.673C95.7413 597.762 95.6531 597.837 95.5528 597.892C95.4697 597.947 95.3732 597.978 95.2735 597.984Z" fill="white"/>
<path d="M68.1887 562.695H67.9887C55.7548 562.207 37.2494 566.914 37.0858 566.967C36.9759 566.998 36.8605 567.007 36.7467 566.994C36.633 566.981 36.5233 566.945 36.4244 566.89C36.3255 566.834 36.2396 566.76 36.172 566.671C36.1044 566.582 36.0566 566.481 36.0314 566.374C36.0011 566.27 35.9926 566.161 36.0064 566.053C36.0202 565.946 36.056 565.842 36.1118 565.748C36.1675 565.654 36.2422 565.572 36.3313 565.506C36.4205 565.439 36.5224 565.391 36.6313 565.363C37.3948 565.171 55.5912 560.533 68.0796 561.039C68.3062 561.022 68.5302 561.093 68.7024 561.235C68.8746 561.378 68.9808 561.58 68.9976 561.797C69.0145 562.014 68.9407 562.229 68.7924 562.394C68.6441 562.559 68.4335 562.661 68.2069 562.677L68.1887 562.695Z" fill="white"/>
<path d="M59.5932 553.996C59.3362 554.017 59.0795 553.952 58.8754 553.814C58.6712 553.676 58.5347 553.474 58.4937 553.251C57.6829 547.071 57.8715 540.822 59.0538 534.688C59.104 534.466 59.2522 534.271 59.4659 534.145C59.6797 534.019 59.9418 533.973 60.1948 534.015C60.3218 534.035 60.4431 534.077 60.5516 534.138C60.6602 534.199 60.7538 534.278 60.8272 534.371C60.9005 534.464 60.952 534.568 60.9788 534.679C61.0055 534.789 61.007 534.904 60.9831 535.015C59.8595 540.971 59.685 547.035 60.4645 553.033C60.4937 553.262 60.4185 553.492 60.2553 553.672C60.0921 553.852 59.8541 553.969 59.5932 553.996Z" fill="white"/>
<path opacity="0.3" d="M816.791 197.758L476.209 1.25993C471.089 -1.68523 467 0.707715 467 6.61645V276.173C467.168 279.385 468.088 282.513 469.688 285.305C471.288 288.096 473.522 290.472 476.209 292.242L816.791 488.74C821.911 491.685 826 489.292 826 483.384V213.827C825.832 210.615 824.912 207.487 823.312 204.695C821.712 201.904 819.478 199.528 816.791 197.758Z" fill="#9765D7"/>
<path opacity="0.5" d="M816.791 197.758L476.209 1.25993C471.089 -1.68523 467 0.707715 467 6.61645V276.173C467.168 279.385 468.088 282.513 469.688 285.305C471.288 288.096 473.522 290.472 476.209 292.242L816.791 488.74C821.911 491.685 826 489.292 826 483.384V213.827C825.832 210.615 824.912 207.487 823.312 204.695C821.712 201.904 819.478 199.528 816.791 197.758Z" fill="white"/>
<path opacity="0.3" d="M818.597 438.073V403.596L796.149 390.731V416.608L788.728 412.234V369.118L773.757 360.499V377.738L766.28 373.419V407.896L751.272 399.369V373.419L743.796 369.118V360.499L736.301 356.18V347.561L728.824 343.26V351.88L721.348 347.561V356.18L713.871 351.88V360.499L698.9 351.88V326.022L676.47 313.157V356.18L669.031 351.88V326.022L654.059 317.384V343.26L646.583 338.941V330.322L631.63 321.703V304.464L616.659 295.845V304.464L609.145 300.127V326.04L601.669 321.721V287.262L594.192 282.943V274.324L586.697 270.023V261.404L579.221 257.085V265.704L571.744 261.404V270.023L564.268 265.704V308.765L556.791 304.464V287.262L534.601 274.397V283.164L519.372 274.397V257.159L511.877 252.858V244.239L504.401 239.92V231.3L496.924 227V235.601L489.448 231.3V239.92L481.971 235.601V252.858L467 244.22V276.621C467.168 279.828 468.088 282.952 469.688 285.738C471.287 288.525 473.52 290.898 476.207 292.665L816.793 488.742C821.912 491.683 826 489.293 826 483.394V442.392L818.597 438.073Z" fill="#9765D7"/>
<g opacity="0.3">
<path opacity="0.3" d="M472.137 1.84079C473.28 1.89773 474.389 2.24627 475.359 2.85322L815.8 199.339C818.214 200.948 820.225 203.092 821.675 205.605C823.124 208.118 823.975 210.931 824.159 213.826V483.392C824.159 484.827 823.827 488.159 820.863 488.159C819.72 488.102 818.611 487.754 817.641 487.147L477.2 290.624C474.782 289.019 472.768 286.876 471.318 284.362C469.868 281.849 469.02 279.033 468.841 276.137V6.60843C468.841 5.17262 469.172 1.84079 472.137 1.84079ZM472.137 0C469.099 0 467 2.41143 467 6.60843V276.174C467.168 279.386 468.088 282.514 469.687 285.306C471.286 288.097 473.519 290.474 476.206 292.244L816.721 488.748C817.971 489.516 819.398 489.947 820.863 490C823.901 490 826 487.589 826 483.392V213.826C825.832 210.614 824.912 207.486 823.313 204.694C821.714 201.903 819.481 199.526 816.794 197.756L476.279 1.25173C475.029 0.484392 473.602 0.0531937 472.137 0Z" fill="#9765D7"/>
</g>
<path opacity="0.5" d="M564.989 140.195L713.011 225.777C721.855 230.879 729 243.285 729 253.509V294.571C729 304.777 721.855 308.918 713.011 303.815L564.989 218.233C556.164 213.131 549 200.725 549 190.501V149.439C549.037 139.178 556.164 135.092 564.989 140.195Z" fill="white"/>
<g opacity="0.5">
<path opacity="0.5" d="M720.225 307C717.527 306.904 714.901 306.099 712.611 304.667L564.465 218.983C555.392 213.725 548 200.913 548 190.396V149.276C548 143.981 549.848 140.019 553.156 138.167C556.463 136.316 560.824 136.649 565.389 139.297L713.535 224.981C722.627 230.239 730 243.051 730 253.568V294.688C730 299.983 728.152 303.945 724.863 305.797C723.449 306.599 721.849 307.014 720.225 307ZM557.794 138.741C556.498 138.723 555.221 139.055 554.098 139.704C551.382 141.278 549.866 144.666 549.866 149.276V190.396C549.866 200.32 556.833 212.41 565.407 217.372L713.554 303.075C717.527 305.371 721.222 305.76 723.957 304.186C726.692 302.612 728.171 299.205 728.171 294.614V253.493C728.171 243.57 721.204 231.48 712.63 226.518L564.465 140.852C562.463 139.579 560.163 138.851 557.794 138.741Z" fill="#9765D7"/>
</g>
<g opacity="0.5">
<path opacity="0.5" d="M588.289 174.4C589.785 175.283 591.137 176.389 592.298 177.68C593.486 179.003 594.537 180.441 595.437 181.974C596.286 183.412 596.979 184.936 597.504 186.521C597.96 187.799 598.229 189.135 598.303 190.489C598.315 190.611 598.301 190.735 598.26 190.851C598.219 190.967 598.153 191.072 598.067 191.16C598 191.221 597.913 191.255 597.822 191.255C597.731 191.255 597.644 191.221 597.577 191.16L593.115 188.605C592.83 188.426 592.573 188.206 592.353 187.953C592.134 187.639 591.934 187.312 591.754 186.974C591.754 186.829 591.591 186.594 591.446 186.268C591.263 185.877 591.051 185.502 590.811 185.144C590.507 184.695 590.167 184.271 589.795 183.876C589.352 183.419 588.845 183.029 588.289 182.716C587.893 182.493 587.481 182.3 587.056 182.137C586.721 182.005 586.363 181.943 586.004 181.956C585.857 181.961 585.713 181.998 585.582 182.064C585.45 182.129 585.335 182.222 585.242 182.336C585.021 182.674 584.919 183.075 584.952 183.477C584.954 183.99 585.065 184.497 585.278 184.963C585.565 185.543 585.931 186.079 586.367 186.558C587.002 187.275 587.68 187.952 588.398 188.587L591.518 191.395C592.702 192.441 593.8 193.58 594.802 194.801C595.715 195.917 596.5 197.133 597.142 198.425C597.763 199.681 598.231 201.007 598.538 202.375C598.855 203.863 599.008 205.382 598.992 206.904C599.051 208.381 598.785 209.853 598.212 211.216C597.771 212.22 596.996 213.04 596.017 213.535C594.968 213.998 593.8 214.119 592.679 213.88C591.198 213.585 589.78 213.033 588.489 212.249C586.919 211.343 585.495 210.207 584.262 208.879C583.017 207.537 581.917 206.067 580.979 204.494C580.09 203.001 579.366 201.416 578.821 199.766C578.328 198.354 578.053 196.875 578.004 195.381C577.992 195.258 578.006 195.133 578.043 195.015C578.08 194.896 578.141 194.787 578.222 194.693C578.289 194.631 578.376 194.598 578.467 194.598C578.557 194.598 578.645 194.631 578.712 194.693L583.174 197.265C583.462 197.416 583.716 197.626 583.918 197.881C584.128 198.146 584.31 198.431 584.462 198.733L584.879 199.657C585.09 200.132 585.332 200.592 585.605 201.034C585.934 201.588 586.323 202.105 586.766 202.574C587.268 203.112 587.849 203.57 588.489 203.933C589.398 204.523 590.426 204.906 591.5 205.056C592.298 205.129 592.697 204.639 592.697 203.589C592.692 203.04 592.542 202.502 592.262 202.03C591.893 201.377 591.449 200.769 590.938 200.219C590.339 199.584 589.595 198.86 588.67 198.044C587.745 197.229 586.675 196.233 585.423 195.127C583.24 193.239 581.489 190.903 580.29 188.279C579.178 185.719 578.628 182.951 578.675 180.162C578.646 178.828 578.868 177.501 579.328 176.248C579.697 175.237 580.368 174.364 581.251 173.748C582.157 173.172 583.23 172.917 584.299 173.023C585.715 173.179 587.079 173.649 588.289 174.4Z" fill="#9765D7"/>
<path opacity="0.5" d="M623.03 194.77C623.335 194.959 623.573 195.235 623.711 195.561C623.892 195.928 623.989 196.33 623.995 196.737V202.455C624.01 202.607 623.992 202.76 623.943 202.906C623.894 203.051 623.815 203.186 623.711 203.3C623.617 203.382 623.496 203.427 623.37 203.427C623.245 203.427 623.123 203.382 623.03 203.3L616.784 199.789V227.015C616.799 227.17 616.781 227.327 616.733 227.475C616.684 227.624 616.605 227.761 616.5 227.879C616.405 227.957 616.284 228 616.159 228C616.035 228 615.914 227.957 615.819 227.879L611.181 225.269C610.876 225.08 610.638 224.804 610.5 224.478C610.319 224.111 610.222 223.709 610.216 223.302V196.075L603.97 192.564C603.665 192.375 603.427 192.099 603.289 191.774C603.108 191.406 603.011 191.005 603.005 190.597V184.972C602.99 184.819 603.008 184.666 603.057 184.52C603.106 184.375 603.185 184.241 603.289 184.126C603.383 184.045 603.504 184 603.63 184C603.755 184 603.876 184.045 603.97 184.126L623.03 194.77Z" fill="#9765D7"/>
<path opacity="0.5" d="M639.802 204.297C640.265 204.577 640.631 204.99 640.85 205.481C641.067 205.941 641.234 206.424 641.347 206.919L648.868 244.353C648.939 244.633 648.982 244.92 648.996 245.208C649.007 245.332 648.993 245.457 648.956 245.576C648.918 245.695 648.857 245.805 648.776 245.9C648.702 245.964 648.607 246 648.509 246C648.411 246 648.316 245.964 648.242 245.9L643.903 243.406C643.474 243.19 643.131 242.837 642.928 242.405C642.746 242.069 642.622 241.706 642.561 241.33L641.586 236.415L632.392 231.171L631.436 234.976C631.385 235.232 631.257 235.467 631.068 235.65C630.884 235.832 630.553 235.795 630.094 235.522L625.772 233.174C625.526 233.015 625.333 232.787 625.221 232.518C625.078 232.229 625.003 231.912 625 231.59C625.015 231.347 625.064 231.108 625.147 230.88L632.668 202.058C632.747 201.726 632.919 201.424 633.164 201.184C633.403 200.929 633.753 200.947 634.212 201.184L639.802 204.297ZM634.286 224.088L639.802 227.275L637.007 213.146L634.286 224.088Z" fill="#9765D7"/>
<path opacity="0.5" d="M664.642 218.549C666.172 219.404 667.584 220.439 668.848 221.63C670.085 222.811 671.148 224.15 672.007 225.61C672.903 227.146 673.576 228.794 674.006 230.507C674.49 232.397 674.726 234.338 674.71 236.284C674.823 238.333 674.445 240.378 673.606 242.263C673.319 242.86 672.881 243.378 672.332 243.769C671.784 244.159 671.142 244.411 670.466 244.501L674.881 259.577C674.951 259.784 674.99 260.001 674.995 260.219C675.008 260.341 674.995 260.465 674.955 260.582C674.916 260.698 674.852 260.806 674.767 260.898C674.687 260.963 674.586 261 674.481 261C674.377 261 674.275 260.963 674.196 260.898L669.343 258.201C668.897 257.968 668.543 257.601 668.334 257.156C668.141 256.766 667.982 256.361 667.859 255.946L663.9 242.392L660.608 240.558V251.892C660.623 252.044 660.605 252.197 660.556 252.343C660.507 252.488 660.427 252.621 660.323 252.736C660.228 252.817 660.106 252.862 659.98 252.862C659.854 252.862 659.732 252.817 659.637 252.736L654.975 250.132C654.67 249.932 654.432 249.652 654.29 249.325C654.105 248.965 654.008 248.57 654.004 248.169V213.963C653.991 213.812 654.009 213.659 654.058 213.514C654.107 213.369 654.186 213.235 654.29 213.12C654.386 213.042 654.507 213 654.632 213C654.758 213 654.879 213.042 654.975 213.12L664.642 218.549ZM660.608 232.359L664.642 234.597C664.995 234.844 665.396 235.019 665.822 235.111C666.248 235.202 666.688 235.208 667.116 235.129C667.783 234.927 668.106 234.083 668.106 232.598C668.177 231.306 667.831 230.025 667.116 228.93C666.482 228.015 665.635 227.255 664.642 226.71L660.608 224.454V232.359Z" fill="#9765D7"/>
<path opacity="0.5" d="M698.074 237.782C698.357 237.985 698.577 238.266 698.708 238.592C698.888 238.952 698.987 239.349 698.997 239.753V245.406C699.008 245.56 698.987 245.714 698.938 245.86C698.888 246.005 698.81 246.139 698.708 246.253C698.619 246.329 698.507 246.371 698.391 246.371C698.275 246.371 698.162 246.329 698.074 246.253L692.098 242.754V270.026C692.111 270.178 692.093 270.332 692.047 270.478C692 270.623 691.925 270.758 691.826 270.873C691.736 270.955 691.62 271 691.5 271C691.38 271 691.264 270.955 691.174 270.873L686.81 268.35C686.527 268.147 686.307 267.866 686.176 267.54C686.001 267.179 685.908 266.782 685.905 266.38V239.09L679.929 235.591C679.639 235.391 679.412 235.109 679.277 234.781C679.101 234.42 679.008 234.023 679.005 233.621V227.986C678.991 227.83 679.007 227.674 679.054 227.525C679.101 227.376 679.176 227.239 679.277 227.12C679.368 227.042 679.483 227 679.603 227C679.722 227 679.837 227.042 679.929 227.12L698.074 237.782Z" fill="#9765D7"/>
</g>
<path opacity="0.3" d="M500.5 31.5193C503.556 33.6553 506.1 36.5308 507.924 39.9131C509.748 43.2953 510.802 47.0892 511 50.9879C511 58.1411 506.293 61.054 500.5 57.4589C497.44 55.3313 494.894 52.4603 493.069 49.0801C491.244 45.6999 490.193 41.9063 490 38.0088C490 30.9109 494.69 27.9427 500.5 31.5193Z" fill="#9765D7"/>
<path d="M507 46.6055C506.998 45.3547 506.728 44.1177 506.205 42.9719C505.732 41.7648 504.886 40.7252 503.781 39.9923C502.114 39.0476 500.732 40.9552 500.504 43.2081C500.315 40.719 498.951 37.2671 497.285 36.3223C496.915 36.0769 496.466 35.9659 496.018 36.0092C495.57 36.0524 495.153 36.2472 494.842 36.5585C494.24 37.3451 493.945 38.3097 494.009 39.2838C494.009 43.0991 496.376 46.551 498.364 50.1847L500.485 54L502.606 52.5647C504.595 51.1658 507 50.4209 507 46.6055Z" fill="#FAFAFA"/>
<path opacity="0.3" d="M533.91 51.5404C537.13 53.66 539.812 56.526 541.739 59.9046C543.667 63.2832 544.784 67.0787 545 70.9816C545 78.15 540.069 81.0432 534.001 77.4682C530.797 75.3353 528.131 72.4617 526.22 69.0805C524.309 65.6994 523.206 61.906 523.001 58.0085C522.911 50.8585 527.824 47.9469 533.91 51.5404Z" fill="#9765D7"/>
<path d="M541 65.6087C540.981 64.3584 540.705 63.1241 540.188 61.9766C539.712 60.7626 538.862 59.7172 537.752 58.9801C536.11 58.0539 534.712 59.9607 534.505 62.2127C534.297 59.7247 532.938 56.256 531.295 55.3298C530.924 55.0795 530.472 54.9657 530.022 55.009C529.571 55.0524 529.152 55.25 528.84 55.5659C528.237 56.3507 527.942 57.316 528.009 58.29C528.009 62.1037 530.37 65.5542 532.352 69.1863L534.448 73L536.657 71.529C538.545 70.167 540.981 69.4042 541 65.6087Z" fill="#FAFAFA"/>
<path opacity="0.3" d="M568.045 70.5296C571.235 72.6629 573.889 75.5361 575.792 78.916C577.696 82.296 578.795 86.0878 579 89.9839C579 97.1503 574.089 100.043 568.045 96.4686C564.846 94.3549 562.178 91.4985 560.259 88.1311C558.34 84.7637 557.224 80.9803 557 77.088C557 69.8479 561.983 66.9556 568.045 70.5296Z" fill="#9765D7"/>
<path d="M574 85.1947C573.985 83.8739 573.709 82.5696 573.189 81.3592C572.706 80.0867 571.859 78.991 570.756 78.2141C569.097 77.2169 567.72 79.2305 567.513 81.6085C567.306 78.9812 565.948 75.3375 564.288 74.3403C563.92 74.0812 563.473 73.964 563.027 74.0097C562.581 74.0553 562.166 74.2609 561.856 74.5896C561.249 75.4172 560.949 76.4357 561.007 77.4662C561.007 81.4935 563.364 85.1372 565.363 88.9727L567.456 93L569.569 91.485C571.586 90.0083 573.981 89.222 574 85.1947Z" fill="#FAFAFA"/>
<path d="M599.979 92.1498L757.021 182.605C759.297 184.029 761.206 185.968 762.592 188.264C763.978 190.561 764.803 193.15 765 195.824C765 200.586 761.425 202.387 757.021 199.85L599.979 109.395C597.703 107.971 595.794 106.032 594.408 103.736C593.022 101.439 592.197 98.8497 592 96.1762C592.055 91.4144 595.63 89.6127 599.979 92.1498Z" fill="#FAFAFA"/>
<path opacity="0.5" d="M597 98.5853C597.096 99.9258 597.505 101.225 598.194 102.377C598.882 103.53 599.831 104.503 600.963 105.22L758.037 196.424C760.22 197.696 762 196.793 762 194.397C761.901 193.059 761.491 191.764 760.802 190.615C760.114 189.466 759.167 188.495 758.037 187.781L600.963 96.5765C598.78 95.3049 597 96.208 597 98.5853Z" fill="#9765D7"/>
<g opacity="0.3">
<path opacity="0.3" d="M774.027 196.443C773.991 196.253 773.991 196.055 774.027 195.865C774.024 195.793 774.037 195.72 774.065 195.656C774.093 195.592 774.134 195.538 774.185 195.5L777.226 193.246L777.509 193.054C777.568 193.018 777.633 193 777.698 193C777.764 193 777.829 193.018 777.887 193.054L779.605 194.267C779.729 194.361 779.823 194.504 779.872 194.671C779.949 194.857 779.992 195.061 779.998 195.268V212.504C780.004 212.581 779.995 212.659 779.973 212.733C779.952 212.806 779.917 212.872 779.872 212.927C779.872 213.024 779.715 213.024 779.605 212.927L777.745 211.618C777.626 211.518 777.533 211.378 777.478 211.214C777.411 211.031 777.374 210.835 777.367 210.636V198.966L775.682 200.179C775.608 200.256 775.513 200.256 775.398 200.179C775.281 200.064 775.194 199.91 775.146 199.736L774.027 196.443Z" fill="#9765D7"/>
<path opacity="0.3" d="M788.5 199.689C789.261 200.172 789.934 200.803 790.485 201.551C791.045 202.272 791.511 203.075 791.871 203.935C792.234 204.819 792.509 205.743 792.692 206.691C792.861 207.637 792.964 208.595 793 209.558C793 210.303 793 211.085 793 211.905C793 212.724 793 213.45 793 214.158C792.975 214.987 792.872 215.81 792.692 216.616C792.554 217.258 792.271 217.853 791.871 218.348C791.505 218.754 791.007 218.988 790.485 219C789.778 218.97 789.092 218.732 788.5 218.311C787.742 217.823 787.07 217.192 786.515 216.448C785.966 215.722 785.506 214.92 785.146 214.065C784.768 213.187 784.492 212.261 784.325 211.309C784.142 210.365 784.033 209.405 784 208.441C784 207.733 784 206.97 784 206.151C784 205.331 784 204.568 784 203.841C784.022 203.011 784.131 202.186 784.325 201.383C784.453 200.737 784.736 200.139 785.146 199.651C785.507 199.248 785.998 199.015 786.515 199C787.224 199.017 787.913 199.257 788.5 199.689ZM790.211 212.184C790.211 210.732 790.211 209.298 790.211 207.845C790.211 207.398 790.211 206.97 790.108 206.579C790.045 206.199 789.954 205.825 789.835 205.462C789.713 205.126 789.546 204.812 789.338 204.53C789.123 204.241 788.862 203.995 788.568 203.804C788.342 203.636 788.072 203.551 787.798 203.562C787.7 203.572 787.604 203.606 787.518 203.661C787.433 203.716 787.359 203.79 787.302 203.879C787.169 204.113 787.076 204.372 787.029 204.642C786.974 205.012 786.94 205.385 786.926 205.759C786.926 207.156 786.926 208.609 786.926 210.098C786.932 210.516 786.967 210.933 787.029 211.346C787.071 211.731 787.163 212.107 787.302 212.463C787.42 212.807 787.587 213.128 787.798 213.413C788.014 213.702 788.275 213.948 788.568 214.139C788.795 214.307 789.065 214.392 789.338 214.381C789.438 214.372 789.534 214.339 789.619 214.284C789.705 214.23 789.779 214.155 789.835 214.065C789.983 213.837 790.082 213.576 790.125 213.301C790.159 212.93 790.165 212.556 790.143 212.184H790.211Z" fill="#9765D7"/>
<path opacity="0.3" d="M804.783 215.538C804.786 216.01 804.755 216.482 804.692 216.947C804.646 217.355 804.554 217.753 804.417 218.127C804.285 218.482 804.11 218.81 803.898 219.098C803.667 219.396 803.399 219.647 803.105 219.841L801.182 221.25L804.631 223.744C804.747 223.843 804.837 223.982 804.89 224.144C804.961 224.321 804.998 224.517 804.997 224.715V227.514C805.004 227.589 804.998 227.665 804.98 227.737C804.961 227.81 804.931 227.876 804.89 227.933C804.873 227.954 804.853 227.971 804.831 227.982C804.809 227.994 804.785 228 804.761 228C804.736 228 804.713 227.994 804.69 227.982C804.668 227.971 804.648 227.954 804.631 227.933L797.382 222.716C797.261 222.623 797.17 222.482 797.122 222.316C797.046 222.14 797.004 221.945 797 221.745V219.46C796.999 219.196 797.03 218.933 797.092 218.68C797.113 218.578 797.152 218.484 797.204 218.402C797.257 218.32 797.322 218.252 797.397 218.204L801.502 215.519C801.783 215.356 802.002 215.062 802.113 214.7C802.192 214.373 802.233 214.033 802.235 213.691C802.235 213.558 802.235 213.387 802.235 213.139C802.202 212.88 802.151 212.625 802.082 212.378C801.986 212.091 801.869 211.817 801.731 211.559C801.563 211.278 801.35 211.045 801.105 210.874C801.019 210.792 800.921 210.733 800.816 210.7C800.711 210.667 800.602 210.661 800.495 210.683C800.345 210.72 800.21 210.821 800.113 210.969C800.028 211.125 799.966 211.299 799.93 211.483C799.93 211.673 799.854 211.807 799.839 211.902C799.823 211.997 799.717 212.225 799.625 212.244C799.505 212.239 799.389 212.193 799.289 212.111L797.595 210.912C797.502 210.822 797.428 210.704 797.382 210.569C797.323 210.428 797.291 210.271 797.29 210.112C797.297 209.422 797.379 208.737 797.534 208.075C797.673 207.515 797.919 207.005 798.251 206.59C798.571 206.219 798.99 206.009 799.427 206C800.024 206.012 800.606 206.237 801.105 206.647C801.71 207.091 802.251 207.658 802.708 208.322C803.162 208.993 803.551 209.728 803.868 210.512C804.169 211.311 804.405 212.147 804.57 213.006C804.714 213.838 804.786 214.687 804.783 215.538Z" fill="#9765D7"/>
<path opacity="0.3" d="M811.764 225.911L812.005 226.531C812.094 226.754 812.204 226.967 812.333 227.168C812.456 227.394 812.607 227.602 812.782 227.787C812.957 227.996 813.168 228.17 813.404 228.301C813.588 228.431 813.802 228.51 814.025 228.531C814.193 228.593 814.376 228.593 814.544 228.531C814.711 228.431 814.839 228.275 814.906 228.088C815.014 227.819 815.061 227.529 815.044 227.239C815.044 226.674 814.901 226.119 814.63 225.628C814.373 225.132 813.983 224.721 813.508 224.442C813.382 224.359 813.241 224.304 813.093 224.283H812.731H812.437C812.359 224.311 812.274 224.311 812.195 224.283L809.778 222.849C809.645 222.748 809.538 222.614 809.467 222.46C809.384 222.297 809.348 222.113 809.364 221.929L809.83 213.452C809.825 213.311 809.867 213.174 809.951 213.062C809.97 213.042 809.993 213.027 810.018 213.016C810.043 213.005 810.07 213 810.098 213C810.125 213 810.152 213.005 810.177 213.016C810.202 213.027 810.225 213.042 810.244 213.062L816.892 216.991C817.024 217.082 817.126 217.212 817.185 217.363C817.266 217.528 817.307 217.71 817.306 217.894V220.496C817.314 220.566 817.307 220.636 817.287 220.704C817.266 220.771 817.231 220.833 817.185 220.885C817.166 220.905 817.143 220.92 817.118 220.931C817.093 220.942 817.066 220.947 817.038 220.947C817.011 220.947 816.984 220.942 816.959 220.931C816.934 220.92 816.911 220.905 816.892 220.885L812.368 218.195L812.264 220.319C812.475 220.274 812.693 220.274 812.903 220.319C813.191 220.37 813.467 220.479 813.715 220.637C814.356 221.003 814.939 221.469 815.441 222.018C815.967 222.594 816.419 223.237 816.788 223.929C817.176 224.667 817.472 225.452 817.669 226.265C817.885 227.139 817.995 228.037 817.997 228.938C818.022 229.75 817.899 230.561 817.634 231.327C817.465 231.868 817.125 232.335 816.667 232.654C816.246 232.943 815.734 233.056 815.234 232.973C814.622 232.875 814.035 232.652 813.508 232.318C812.806 231.901 812.166 231.382 811.608 230.778C811.062 230.174 810.593 229.502 810.21 228.779C809.837 228.089 809.542 227.359 809.329 226.602C809.126 225.906 809.015 225.186 809.001 224.46C808.994 224.341 809.024 224.223 809.087 224.124C809.125 224.096 809.171 224.082 809.217 224.082C809.263 224.082 809.309 224.096 809.346 224.124L811.315 225.292C811.47 225.389 811.6 225.522 811.695 225.681C811.72 225.757 811.743 225.834 811.764 225.911Z" fill="#9765D7"/>
</g>
<path d="M418.305 601.11C418.157 600.799 408 583.409 408 583.409C408 583.409 410.183 584.686 420.396 579.011C424.211 576.716 427.77 574.031 431.015 571L437.787 583.865C442.097 588.391 451.144 583.464 461.449 579.54C463.17 578.883 464.928 578.117 466.685 577.332H466.796C472.439 575.507 479.099 577.442 474.419 583.81C469.738 590.179 460.395 594.522 451.755 598.409C441.357 603.19 423.078 611.274 418.305 601.11Z" fill="#EA8989"/>
<path d="M492.713 579C493.938 580.624 494.721 582.556 494.978 584.595C495.304 586.777 492.024 595.394 484.104 602.239C476.184 609.083 465.056 612.403 460.217 615.294C455.378 618.185 451.355 622.642 445.573 625.85C439.792 629.058 433.902 631.445 426.652 628.983C425.057 627.473 422.72 623.649 423.028 623.146C423.698 622.008 492.713 579 492.713 579Z" fill="#263238"/>
<path d="M439.519 584.992C444.306 586.719 452.198 582.604 461.014 579.224C469.313 576.028 478.166 570.535 484.524 571.031C490.881 571.527 497.461 577.075 491.916 587.84C490.29 590.962 486.649 596.657 483.156 599.027C474.303 605.033 465.598 607.587 459.72 610.765C452.069 614.898 448.538 619.656 441.238 622.503C431.738 626.177 424.881 625.277 422.515 623.127C420.15 620.978 413.052 600.404 417.359 599.761C417.359 599.761 420.907 606.08 435.176 595.334C441.404 590.632 440.184 586.443 439.519 584.992Z" fill="#9765D7"/>
<path opacity="0.4" d="M439.519 584.992C444.306 586.719 452.198 582.604 461.014 579.224C469.313 576.028 478.166 570.535 484.524 571.031C490.881 571.527 497.461 577.075 491.916 587.84C490.29 590.962 486.649 596.657 483.156 599.027C474.303 605.033 465.598 607.587 459.72 610.765C452.069 614.898 448.538 619.656 441.238 622.503C431.738 626.177 424.881 625.277 422.515 623.127C420.15 620.978 413.052 600.404 417.359 599.761C417.359 599.761 420.907 606.08 435.176 595.334C441.404 590.632 440.184 586.443 439.519 584.992Z" fill="black"/>
<path d="M468.961 589.158C468.961 589.158 465.706 579.706 458.513 579.059C457.853 578.932 457.173 579.01 456.552 579.285C455.931 579.56 455.393 580.021 455 580.615C455 580.615 461.342 579.847 466.095 590.713C466.095 590.713 466.594 591.359 467.851 590.713C468.277 590.43 469.201 589.945 468.961 589.158Z" fill="#FAFAFA"/>
<path d="M450.001 584.2C450.001 584.2 449.909 583.93 451.38 583.289C451.944 583.017 452.594 582.934 453.218 583.053C453.218 583.053 458.732 583.812 461.985 592.096C462.037 592.453 461.954 592.815 461.75 593.122C461.546 593.429 461.233 593.663 460.864 593.783C460.705 593.881 460.526 593.947 460.338 593.979C460.151 594.011 459.958 594.006 459.772 593.967C459.586 593.927 459.41 593.853 459.257 593.749C459.103 593.645 458.974 593.513 458.879 593.361C458.879 593.361 455.331 584.655 450.001 584.2Z" fill="#FAFAFA"/>
<path d="M445 585.132C445 585.132 445.132 584.464 446.32 584.178C447.81 583.777 448.301 584.178 448.301 584.178C448.301 584.178 452.828 586.926 454.94 594.958C454.94 594.958 455.431 596.275 453.601 596.866C451.771 597.458 451.715 595.893 451.715 595.893C451.715 595.893 448.339 585.914 445 585.132Z" fill="#FAFAFA"/>
<path d="M377.663 474C391.998 496.041 435 573.545 435 573.545C435 573.545 424.402 589.608 407.885 587.868L345 493.783L377.663 474Z" fill="#37474F"/>
<path d="M477.781 633.608C475.642 631.454 466 615.401 466 615.401C466 615.401 473.227 617.836 483.847 612.872C489.248 610.343 493.304 603 493.304 603L501.361 618.679C505.288 623.662 514.027 619.953 524.573 616.806C526.416 616.281 528.149 615.644 529.956 614.932H530.067C535.838 613.565 542.272 616.075 537.11 622.182C531.947 628.289 522.36 631.998 513.382 635.294C502.689 639.322 485.838 641.701 477.781 633.608Z" fill="#EA8989"/>
<path d="M561.016 616C562.226 617.859 562.91 620.012 562.994 622.229C563.179 624.577 558.852 633.412 549.587 639.974C540.322 646.536 527.913 649.05 522.365 651.767C516.817 654.484 512.065 658.773 505.463 661.656C498.861 664.54 492.222 666.629 484.51 663.283C482.901 661.545 480.701 657.275 481.034 656.758C481.921 655.353 561.016 616 561.016 616Z" fill="#263238"/>
<path d="M502.98 616.156C503.724 616.485 504.486 616.771 505.262 617.012C506.035 617.152 506.826 617.152 507.599 617.012C509.463 616.851 511.31 616.527 513.12 616.044C517.591 614.89 521.953 613.288 526.387 611.966C535.588 609.229 545.433 604.052 552.15 605.151C558.867 606.249 566.099 612.599 559.216 623.884C556.577 628.233 553.216 632.089 549.279 635.28C539.766 641.779 528.835 643.157 522.284 646.08C513.782 649.898 509.605 654.739 501.526 657.253C491.093 660.4 483.861 658.817 481.524 656.266C480.217 654.851 479.684 646.192 476.997 639.898C474.715 634.498 474.255 630.587 476.316 630.438C476.892 631.08 477.548 631.643 478.267 632.114C479.078 632.767 480.01 633.248 481.008 633.529C482.401 633.868 483.827 634.049 485.259 634.069C487.808 634.329 490.381 634.166 492.878 633.585C493.581 633.433 494.222 633.07 494.718 632.543C495.251 631.717 495.485 630.73 495.38 629.749C495.38 628.893 495.38 628.018 495.38 627.161C495.356 626.688 495.418 626.214 495.564 625.764C495.816 625.262 496.181 624.828 496.632 624.498C498.072 623.475 499.246 622.114 500.054 620.532C500.49 619.214 500.634 617.816 500.478 616.435C500.449 616.195 500.501 615.953 500.625 615.746C500.882 615.448 501.361 615.56 501.729 615.746C502.097 615.932 502.557 615.97 502.98 616.156Z" fill="#9765D7"/>
<path opacity="0.4" d="M502.98 616.156C503.724 616.485 504.486 616.771 505.262 617.012C506.035 617.152 506.826 617.152 507.599 617.012C509.463 616.851 511.31 616.527 513.12 616.044C517.591 614.89 521.953 613.288 526.387 611.966C535.588 609.229 545.433 604.052 552.15 605.151C558.867 606.249 566.099 612.599 559.216 623.884C556.577 628.233 553.216 632.089 549.279 635.28C539.766 641.779 528.835 643.157 522.284 646.08C513.782 649.898 509.605 654.739 501.526 657.253C491.093 660.4 483.861 658.817 481.524 656.266C480.217 654.851 479.684 646.192 476.997 639.898C474.715 634.498 474.255 630.587 476.316 630.438C476.892 631.08 477.548 631.643 478.267 632.114C479.078 632.767 480.01 633.248 481.008 633.529C482.401 633.868 483.827 634.049 485.259 634.069C487.808 634.329 490.381 634.166 492.878 633.585C493.581 633.433 494.222 633.07 494.718 632.543C495.251 631.717 495.485 630.73 495.38 629.749C495.38 628.893 495.38 628.018 495.38 627.161C495.356 626.688 495.418 626.214 495.564 625.764C495.816 625.262 496.181 624.828 496.632 624.498C498.072 623.475 499.246 622.114 500.054 620.532C500.49 619.214 500.634 617.816 500.478 616.435C500.449 616.195 500.501 615.953 500.625 615.746C500.882 615.448 501.361 615.56 501.729 615.746C502.097 615.932 502.557 615.97 502.98 616.156Z" fill="black"/>
<path d="M533.97 624.399C533.97 624.399 531.321 614.486 523.81 613.125C523.126 612.94 522.408 612.961 521.735 613.184C521.061 613.408 520.461 613.826 520 614.39C520 614.39 526.731 614.179 530.886 625.627C530.886 625.627 531.34 626.336 532.7 625.799C533.154 625.627 534.188 625.224 533.97 624.399Z" fill="#FAFAFA"/>
<path d="M515 616.209C515 616.209 515 615.883 516.423 615.251C517 614.971 517.644 614.924 518.248 615.117C518.248 615.117 523.471 616.534 525.999 626.892C526.012 627.324 525.897 627.749 525.672 628.097C525.447 628.444 525.125 628.695 524.76 628.807C524.596 628.909 524.416 628.972 524.23 628.993C524.044 629.013 523.856 628.991 523.678 628.926C523.5 628.862 523.335 628.757 523.193 628.618C523.051 628.479 522.935 628.309 522.852 628.118C522.852 628.118 520.156 617.223 515 616.209Z" fill="#FAFAFA"/>
<path d="M509 616.945C509 616.945 509.19 616.281 510.368 616.078C511.856 615.801 512.307 616.354 512.307 616.354C512.307 616.354 516.531 619.585 517.968 628.077C517.968 628.077 518.349 629.48 516.496 629.923C514.644 630.366 514.644 628.76 514.644 628.76C514.644 628.76 512.22 618.108 509 616.945Z" fill="#FAFAFA"/>
<path d="M446.257 506C456.492 524.122 481.896 578.378 495 605.306C488.414 613.321 479.044 618.567 468.755 620L400 525.69L420.469 508.498L446.257 506Z" fill="#455A64"/>
<path d="M211 486.6C211 486.6 294.524 461.706 309.052 457.783C323.58 453.861 350.207 448.596 358.354 452.209C366.5 455.822 371.098 462.159 376.063 469.895C381.212 477.92 385 485.238 385 485.238C385 485.238 330.31 500 297.209 500C264.108 500 211 486.6 211 486.6Z" fill="#37474F"/>
<path d="M216.072 454C210.833 471.89 204.013 503.772 228.112 527.049C237.506 536.132 291.385 565.017 324.473 554.868C361.44 543.523 405.576 521.662 405.576 521.662C405.576 521.662 427.892 522.967 435.154 518.775C442.415 514.583 446.826 507.651 445.87 505.647C434.345 481.745 424.749 469.316 399.804 471.816C369.289 474.869 318.444 484.135 318.444 484.135L216.072 454Z" fill="#455A64"/>
<path d="M341 324.831C325.222 311.048 303.077 317.326 290.766 329.279C271.906 347.582 260.714 370.828 264.861 382.359C269.686 395.556 341 324.831 341 324.831Z" fill="#455A64"/>
<path d="M527.962 405.554C528.294 403.279 526.432 400.694 522.669 398.802L478.777 376.653C472.057 373.714 464.505 373.199 457.439 375.197L417.308 388.846C413.804 390.048 411.886 391.722 411.776 393.36C411.683 394.561 411.038 399.22 411.001 400.549C410.964 401.877 411.831 402.86 413.694 403.788C418.194 406.063 428.282 406.809 436.212 405.463L446.392 403.752C454.322 402.405 464.392 403.151 468.873 405.39C471.592 406.692 473.769 408.886 475.033 411.596L472.672 419.658C472.11 421.124 472.11 422.742 472.672 424.208L471.934 426.756C471.031 429.795 470.736 432.98 478.408 436.329C480.82 437.522 483.499 438.093 486.195 437.988C488.891 437.883 491.516 437.105 493.825 435.728L524.938 415.709C525.533 415.382 526.047 414.928 526.443 414.38C526.838 413.832 527.105 413.204 527.225 412.542C527.372 411.359 527.796 406.718 527.962 405.554Z" fill="#455A64"/>
<path d="M476.857 417L477 395.502L464.162 392L463 403.326C465.044 403.619 467.037 404.215 468.918 405.096C471.555 406.43 473.665 408.675 474.89 411.449L473.96 414.783L476.857 417Z" fill="#263238"/>
<path d="M525.16 401C529.261 404.587 529.564 405.645 528.43 419.777C527.296 433.909 523.913 434.286 520.095 431.865C516.277 429.444 513.687 422.718 509 425.462L525.16 401Z" fill="#455A64"/>
<path d="M414.7 396.73C419.19 399.009 429.257 399.757 437.171 398.408L447.33 396.694C455.243 395.345 465.292 396.092 469.764 398.335C474.236 400.577 477.126 404.898 476.224 407.943L472.782 419.739C471.881 422.783 471.586 425.974 479.242 429.328C481.65 430.522 484.323 431.093 487.013 430.988C489.703 430.883 492.323 430.105 494.628 428.727L525.675 408.763C529.706 406.174 528.362 401.726 522.676 398.845L478.874 376.658C472.168 373.714 464.632 373.198 457.581 375.199L417.534 388.873C411.461 390.951 410.191 394.47 414.7 396.73Z" fill="#9765D7"/>
<path opacity="0.2" d="M414.7 396.73C419.19 399.009 429.257 399.757 437.171 398.408L447.33 396.694C455.243 395.345 465.292 396.092 469.764 398.335C474.236 400.577 477.126 404.898 476.224 407.943L472.782 419.739C471.881 422.783 471.586 425.974 479.242 429.328C481.65 430.522 484.323 431.093 487.013 430.988C489.703 430.883 492.323 430.105 494.628 428.727L525.675 408.763C529.706 406.174 528.362 401.726 522.676 398.845L478.874 376.658C472.168 373.714 464.632 373.198 457.581 375.199L417.534 388.873C411.461 390.951 410.191 394.47 414.7 396.73Z" fill="black"/>
<path d="M511.998 398.659C511.962 398.423 511.866 398.201 511.719 398.014C511.572 397.827 511.379 397.682 511.159 397.594C510.409 397.239 509.597 397.039 508.769 397.005C507.942 396.971 507.116 397.104 506.34 397.395C505.59 397.702 505.215 398.117 505.179 398.569C505.144 399.02 505.019 399.959 505.001 400.266C504.983 400.573 505.269 401.078 505.84 401.403C507.355 402.115 509.088 402.193 510.66 401.62C511.374 401.331 511.766 400.916 511.82 400.483C511.873 400.049 512.016 399.002 511.998 398.659Z" fill="#263238"/>
<path d="M502 402.701C501.969 402.457 501.863 402.225 501.695 402.029C501.526 401.834 501.3 401.682 501.041 401.59C500.183 401.238 499.254 401.039 498.308 401.005C497.362 400.971 496.418 401.103 495.531 401.393C494.714 401.679 494.265 402.092 494.224 402.504C494.184 402.916 494.02 403.956 494 404.296C494.031 404.54 494.137 404.772 494.305 404.968C494.474 405.164 494.7 405.315 494.959 405.408C496.692 406.115 498.672 406.192 500.469 405.623C501.286 405.336 501.735 404.924 501.796 404.511C501.857 404.099 502 403.042 502 402.701Z" fill="#37474F"/>
<path d="M502 398.387C502 398.07 501.732 397.737 501.161 397.477C499.646 396.908 497.914 396.845 496.342 397.304C495.628 397.535 495.235 397.867 495.181 398.214C495.128 398.561 495.039 399.355 495.003 399.586C494.967 399.817 495.253 400.25 495.842 400.525C496.592 400.808 497.405 400.969 498.232 400.996C499.059 401.023 499.885 400.917 500.661 400.684C501.393 400.453 501.786 400.106 501.821 399.759C501.857 399.413 501.982 398.633 502 398.387Z" fill="#263238"/>
<path d="M511 403.368C511 403.056 510.749 402.73 510.159 402.475C509.411 402.194 508.6 402.034 507.774 402.005C506.947 401.976 506.121 402.078 505.345 402.305C504.629 402.532 504.236 402.858 504.182 403.184C504.128 403.51 504.039 404.304 504.003 404.602C503.967 404.9 504.236 405.255 504.844 405.538C506.365 406.094 508.103 406.15 509.676 405.694C510.392 405.467 510.767 405.141 510.821 404.815C510.875 404.489 511 403.61 511 403.368Z" fill="#37474F"/>
<path d="M506.194 397.357C504.73 397.879 504.602 398.825 505.865 399.461C507.418 400.104 509.194 400.175 510.806 399.657C512.27 399.119 512.398 398.173 511.135 397.537C510.366 397.216 509.533 397.036 508.685 397.005C507.837 396.974 506.99 397.094 506.194 397.357Z" fill="#455A64"/>
<path d="M495.358 401.357C493.706 401.879 493.538 402.825 494.981 403.461C496.756 404.104 498.785 404.175 500.627 403.657C502.3 403.119 502.467 402.173 501.003 401.537C500.124 401.216 499.173 401.036 498.203 401.005C497.234 400.974 496.267 401.094 495.358 401.357Z" fill="#455A64"/>
<path d="M496.202 397.344C494.738 397.884 494.591 398.815 495.872 399.453C496.64 399.777 497.472 399.961 498.32 399.994C499.168 400.028 500.015 399.911 500.812 399.649C502.257 399.126 502.404 398.178 501.141 397.54C499.588 396.895 497.813 396.825 496.202 397.344Z" fill="#455A64"/>
<path d="M505.202 402.351C503.738 402.874 503.591 403.822 504.873 404.46C506.426 405.104 508.203 405.175 509.815 404.656C511.26 404.117 511.407 403.185 510.126 402.548C509.361 402.224 508.532 402.039 507.686 402.006C506.841 401.972 505.996 402.09 505.202 402.351Z" fill="#455A64"/>
<path d="M472 379.06L467.286 376.445L461.938 378.615L457.224 376L451.857 378.189L451.652 380.173L454.391 381.694L451.224 382.974L451 384.958L455.714 387.573L461.062 385.385L465.776 388L471.124 385.83L471.348 383.845L468.609 382.325L471.776 381.026L472 379.06Z" fill="#37474F"/>
<path d="M467.462 376.444L462.314 378.606L457.776 376L452.61 378.181L457.148 380.787L452 382.95L456.52 385.556L461.686 383.394L466.206 386L471.372 383.819L466.834 381.213L472 379.05L467.462 376.444Z" fill="#455A64"/>
<path d="M462 384L461.759 385.893L456 388L456.221 386.089L462 384Z" fill="#263238"/>
<path d="M467 381.659L468.84 383L471.792 381.409L472 379L467 381.659Z" fill="#263238"/>
<path d="M471 384L470.799 385.911L466 388L466.184 386.107L471 384Z" fill="#263238"/>
<path d="M457 380.238L452.226 378L452 379.778L454.792 381L457 380.238Z" fill="#263238"/>
<path d="M416.647 375.356C427.711 372.959 434.293 374.81 443.716 374.44C446.759 374.334 449.34 372.766 450.834 373.03C453.692 373.559 453.471 376.396 451.627 378.317C449.783 380.237 447.662 382.052 439.493 383.268C432.523 384.326 432.247 383.568 424.078 385.982L415.135 390L412 382.652L416.647 375.356Z" fill="#EA8989"/>
<path d="M437 374.676C431.126 372.129 424.641 371.378 418.348 372.518C409.336 374.676 412.561 384 412.561 384L437 374.676Z" fill="#EA8989"/>
<path d="M392 327.308L365.715 351L331 338.725L355.799 304L392 327.308Z" fill="#EA8989"/>
<path d="M418 281C418 281 428.047 294.22 426.91 295.528C425.773 296.836 418.351 298 418.351 298L418 281Z" fill="#D17373"/>
<path d="M393.562 243.797C411.565 247.638 416.76 255.672 418.462 284.616C420.291 314.934 417.181 324.471 413.266 328.553C410.613 331.299 395.886 331.8 388.458 329.721C379.146 327.124 358.125 319.572 348.209 304.321C336.647 286.379 333.573 262.073 345.996 252.091C363.504 238.12 386.244 242.22 393.562 243.797Z" fill="#EA8989"/>
<path d="M389.796 329.769C397.549 331.902 409.426 331.036 413 328.903C408.634 329.813 404.13 329.516 399.895 328.038C395.672 326.705 391.66 324.669 388 322L389.796 329.769Z" fill="#D17373"/>
<path d="M422.474 256.522C417.345 259.898 411.176 261.2 405.117 262.026C405.482 266.888 403.839 271.658 402.233 276.264C401.119 279.456 397.141 289.456 393.107 283.823C390.242 279.75 387.632 276.044 381.974 276.906C372.629 278.3 371.369 290.281 377.246 297.566C383.123 304.85 388.635 302.061 388.635 302.061C388.635 302.061 389.201 314.904 382.229 323.95C378.456 325.778 374.35 326.808 370.165 326.976C365.98 327.143 361.805 326.444 357.9 324.922C349.03 321.766 336.363 310.115 331.8 301.162C319.261 276.484 319.718 253.146 335.779 246.32C337.604 234.669 346.73 229.459 357.024 227.055C371.442 223.716 386.135 233.11 400.116 227.459C403.072 226.266 405.792 224.541 408.803 223.532C409.615 223.161 410.5 222.98 411.391 223.002C412.283 223.024 413.158 223.249 413.95 223.661C415.134 224.685 415.89 226.119 416.067 227.679C416.899 230.44 416.637 233.418 415.337 235.99C417.408 234.921 419.621 234.154 421.908 233.715C423.054 233.508 424.231 233.548 425.361 233.832C426.49 234.117 427.547 234.64 428.46 235.367C430.015 236.912 430.911 239.004 430.961 241.201C431.435 247.329 427.566 253.146 422.474 256.522Z" fill="#263238"/>
<path d="M335.207 250L324 243.823C324.905 242.49 326.329 241.539 327.97 241.169C329.611 240.799 331.341 241.041 332.796 241.843C334.25 242.644 335.315 243.943 335.765 245.465C336.215 246.987 336.015 248.613 335.207 250Z" fill="#263238"/>
<path d="M341.015 324.612C321.127 318.657 304.743 321.671 278.765 346.465C250.291 373.575 229.339 419.634 222 469.314C222 469.314 222.972 492.27 249.52 507.544C277.682 523.736 321.2 519.784 338.685 490.634C338.685 490.634 342.354 464.664 353.967 450.769C361.49 441.763 378.882 421.876 391.725 407.669C402.898 395.3 414.566 365.139 397.009 350.931C391.853 346.777 386.79 343.579 379.653 338.874C361.434 342.109 337.749 331.302 341.015 324.612Z" fill="#9765D7"/>
<path opacity="0.75" d="M341.015 324.612C321.127 318.657 304.743 321.671 278.765 346.465C250.291 373.575 229.339 419.634 222 469.314C222 469.314 222.972 492.27 249.52 507.544C277.682 523.736 321.2 519.784 338.685 490.634C338.685 490.634 342.354 464.664 353.967 450.769C361.49 441.763 378.882 421.876 391.725 407.669C402.898 395.3 414.566 365.139 397.009 350.931C391.853 346.777 386.79 343.579 379.653 338.874C361.434 342.109 337.749 331.302 341.015 324.612Z" fill="white"/>
<path opacity="0.1" d="M393.358 405.91L394.239 404.77L394.624 404.255L395.578 402.895C395.578 402.785 395.743 402.674 395.816 402.546C396.22 401.945 396.624 401.332 397.028 400.707C397.069 400.652 397.1 400.59 397.119 400.524C397.486 399.954 397.835 399.347 398.184 398.685L398.422 398.244C398.734 397.674 399.064 397.086 399.358 396.406C399.426 396.299 399.487 396.189 399.541 396.075C400.691 393.805 401.714 391.473 402.605 389.089V388.96C404.822 383.231 405.972 377.144 406 371C399.98 380.924 392.244 389.695 383.156 396.902C371.541 406.094 357.89 412.546 346.899 422.455C335.266 432.97 326.055 446.353 315.872 458.247C311.78 462.99 305.78 472.439 299.541 471.943C291.927 471.336 286.055 461.078 282.862 454.129C277.761 443.099 273.963 429.588 267.101 419.513C261.101 410.708 251.523 399.145 241.156 402.252C231.778 423.682 225.335 446.283 222 469.442C222 469.442 222.972 492.403 249.523 507.68C251.89 509.059 254.341 510.287 256.862 511.356C257.633 511.485 258.404 511.65 259.156 511.834C262.954 512.827 266.495 514.684 270.404 515.511L271.798 515.787L273.376 516.062L275.064 516.32L276.495 516.522L278.33 516.743L279.596 516.853L281.578 517H282.771H284.789H288.055H289.339L291.174 516.908L292.624 516.798L294.294 516.651L295.89 516.467L297.413 516.265L299.248 515.971L300.44 515.75C301.229 515.603 302 515.456 302.771 515.272L303.266 515.162C317.706 511.761 331.028 503.672 338.807 490.694C338.807 490.694 338.991 489.443 339.376 487.366C339.505 486.76 339.633 486.098 339.78 485.362C340.073 483.928 340.459 482.237 340.917 480.381C342.495 473.809 344.72 467.411 347.56 461.28C348.587 459.122 349.745 457.029 351.028 455.012C351.67 454.019 352.33 453.063 353.028 452.144L354.11 450.894L355.633 449.055C362.697 440.691 375.688 425.819 386.826 413.337L391.835 407.822L393.046 406.388L393.358 405.91Z" fill="#9765D7"/>
<path d="M511.174 435.092C505.011 444.906 503.815 451.062 477.159 453.139C477.159 453.139 427.14 484.493 411.08 490.245C395.021 495.997 389.226 486.974 385.878 472.436C382.53 457.899 373.755 403.058 373.755 403.058C373.755 403.058 366.782 369.224 395.223 350C407.272 359.189 413.619 368.58 415.643 384.753C418.016 404.106 421.474 449.555 421.474 449.555C421.474 449.555 463.657 431.177 470.022 424.855C471.894 422.87 473.587 420.724 475.081 418.441C477.767 414.765 481.556 410.759 482.623 405.925C484.297 398.261 487.829 399.327 489.099 403.536C490.581 408.956 490.537 414.68 488.97 420.077C488.97 420.077 502.013 430.313 508.414 426.876L510.144 425.774C510.856 425.27 511.725 425.036 512.595 425.114C513.464 425.191 514.278 425.575 514.89 426.197C515.239 427.961 514.945 429.1 511.174 435.092Z" fill="#EA8989"/>
<path d="M391.814 347C407.71 354.576 415.513 366.686 417.153 385.008C418.794 403.329 421 435.162 421 435.162C421 435.162 420.016 446.774 404.812 452.175C400.517 453.778 395.909 454.336 391.361 453.805C386.813 453.273 382.453 451.667 378.633 449.115L372.326 407.643C372.326 407.643 363.411 362.778 391.814 347Z" fill="#455A64"/>
<path d="M275.069 480.41C248.768 448.23 224.31 409.617 204.073 397.95C167.654 376.976 93.6733 423.072 85.5822 528.257C77.4911 633.443 155.158 692.385 230.227 708.567C268.655 716.824 319.155 708.457 338.968 701.6C399.366 680.681 433.186 651.413 447.709 610.957C463.56 566.612 451.561 539.942 430.919 528.589C421.621 523.604 410.933 521.841 400.527 523.576C327.099 535.077 295.435 505.329 275.069 480.41Z" fill="#9765D7"/>
<path opacity="0.2" d="M366.177 691L369.482 689.449C374.732 663.599 371.776 639.374 360.578 616.959C349.563 595.079 330.857 574.584 303.155 554.181C262.309 524.214 246.246 495.779 230.788 468.286C225.116 458.204 219.774 448.677 213.275 439.279C198.827 418.304 184.416 407.28 167.949 404.622C161.233 403.601 154.386 403.839 147.756 405.323C145.492 406.8 143.24 408.419 141 410.179C149.462 407.212 158.505 406.314 167.38 407.557C183.003 410.087 196.753 420.704 210.76 440.977C217.148 450.21 222.49 459.737 228.126 469.745C243.767 497.533 259.959 526.245 301.319 556.526C337.08 582.856 380.974 624.548 366.177 691Z" fill="black"/>
<path opacity="0.1" d="M230.296 708.571C268.751 716.819 319.286 708.46 339.113 701.611C399.553 680.713 433.397 651.475 447.93 611.061C448.318 609.974 448.65 608.925 449 607.857L448.115 607.507C432.641 602.48 416.004 608.501 400.678 613.933C362.131 627.595 318.567 637.703 281.256 621.003C256.689 609.956 231.366 592.777 218.308 569.265C205.25 545.753 199.219 518.89 189.739 493.776C185.46 482.452 181.476 467.815 171.848 456.786C162.829 446.475 150.933 438.982 137.23 439C125.979 439 115.577 442.388 105.876 453.84C95.3997 473.928 87.8562 498.894 85.5877 528.556C77.4541 633.542 155.175 692.405 230.296 708.571Z" fill="black"/>
<path d="M767.086 621.88L819.311 591.365C820.675 590.463 821.811 589.248 822.625 587.819C823.44 586.391 823.911 584.788 824 583.141V583.755C823.912 582.108 823.442 580.505 822.627 579.076C821.812 577.647 820.676 576.432 819.311 575.531L714.292 514.129C712.838 513.387 711.232 513 709.603 513C707.974 513 706.368 513.387 704.914 514.129L652.689 544.644C651.324 545.541 650.188 546.752 649.373 548.178C648.558 549.604 648.088 551.205 648 552.85V552.254C648.088 553.899 648.558 555.499 649.373 556.925C650.188 558.351 651.324 559.562 652.689 560.46L757.708 621.861C759.161 622.607 760.766 622.997 762.395 623C764.024 623.003 765.631 622.62 767.086 621.88Z" fill="#37474F"/>
<path d="M762 543L819.281 575.936C820.655 576.83 821.798 578.034 822.618 579.45C823.438 580.866 823.912 582.455 824 584.088V583.479C823.91 585.111 823.436 586.7 822.616 588.116C821.797 589.532 820.654 590.736 819.281 591.63L766.719 621.874C765.265 622.636 763.643 623.023 762 622.999V543Z" fill="#263238"/>
<path d="M820.05 580.513L767.676 610.862C766.22 611.61 764.608 612 762.973 612C761.338 612 759.726 611.61 758.27 610.862L652.95 549.868C650.35 548.371 650.35 545.931 652.95 544.434L705.324 514.122C706.783 513.384 708.394 513 710.027 513C711.661 513 713.271 513.384 714.73 514.122L820.05 575.116C822.65 576.576 822.65 579.016 820.05 580.513Z" fill="#455A64"/>
<path d="M819 570.387V575.321L764.992 606.273C764.398 606.628 763.737 606.858 763.05 606.947C761.858 607.116 760.644 606.879 759.606 606.273L653 545.116V540L757.627 600.192C759.075 600.923 760.675 601.304 762.299 601.304C763.922 601.304 765.523 600.923 766.97 600.192L819 570.387Z" fill="#9765D7"/>
<path opacity="0.2" d="M819 571V575.859L764.725 606.337C764.128 606.687 763.464 606.912 762.773 607H762V601.406C763.641 601.441 765.264 601.064 766.713 600.313L819 571Z" fill="black"/>
<path d="M767.086 600.895L819.311 570.744C820.677 569.854 821.814 568.653 822.629 567.24C823.444 565.827 823.914 564.242 824 562.613V552.955C823.914 551.326 823.444 549.74 822.629 548.327C821.814 546.914 820.677 545.714 819.311 544.824L714.292 484.117C712.838 483.382 711.232 483 709.603 483C707.974 483 706.368 483.382 704.914 484.117L652.689 514.268C651.326 515.161 650.191 516.362 649.377 517.775C648.562 519.187 648.091 520.771 648 522.399V532.057C648.088 533.663 648.56 535.224 649.376 536.61C650.192 537.996 651.328 539.166 652.689 540.022L757.708 600.84C759.155 601.593 760.76 601.99 762.391 602C764.021 602.009 765.631 601.631 767.086 600.895Z" fill="#37474F"/>
<path d="M762 512L819.281 544.848C820.656 545.738 821.8 546.937 822.62 548.349C823.44 549.761 823.913 551.345 824 552.973V562.624C823.913 564.251 823.44 565.836 822.62 567.248C821.8 568.66 820.656 569.859 819.281 570.749L766.719 600.876C765.269 601.647 763.644 602.033 762 601.998V512Z" fill="#263238"/>
<path d="M820.05 549.926L767.676 579.89C766.217 580.62 764.607 581 762.973 581C761.339 581 759.729 580.62 758.27 579.89L652.95 519.559C650.35 518.078 650.35 515.665 652.95 514.074L705.324 484.11C706.783 483.38 708.394 483 710.027 483C711.661 483 713.271 483.38 714.73 484.11L820.05 544.441C822.65 546.013 822.65 548.427 820.05 549.926Z" fill="#455A64"/>
<path d="M746.6 525.505C752.467 528.826 752.467 534.202 746.6 537.524C743.308 539.152 739.676 540 735.993 540C732.31 540 728.678 539.152 725.386 537.524C719.538 534.202 719.538 528.826 725.386 525.505C728.672 523.858 732.306 523 735.993 523C739.68 523 743.314 523.858 746.6 525.505Z" fill="#9765D7"/>
<path d="M661 530.198C661.585 530.49 662.072 530.886 662.42 531.352C662.768 531.818 662.967 532.341 663 532.878C663 533.864 662.1 534.279 661 533.802C660.417 533.511 659.932 533.118 659.584 532.655C659.237 532.191 659.037 531.672 659 531.137C659 530.136 659.9 529.72 661 530.198Z" fill="#9765D7"/>
<path d="M661 536.247C661.584 536.614 662.07 537.109 662.418 537.691C662.765 538.273 662.965 538.926 663 539.597C663 540.829 662.1 541.349 661 540.752C660.417 540.389 659.932 539.897 659.584 539.318C659.237 538.739 659.037 538.089 659 537.422C659 536.17 659.9 535.65 661 536.247Z" fill="#9765D7"/>
<path d="M187 225.581V198.044L209.749 196.006C210.073 195.977 210.398 196.048 210.683 196.208C211.563 196.704 229.895 207.48 230.183 207.645C230.398 207.774 230.582 207.951 230.721 208.163C230.859 208.375 230.95 208.617 230.984 208.869C231.019 209.122 230.997 209.379 230.92 209.622C230.844 209.865 230.714 210.086 230.542 210.271L206.428 237L187 225.581Z" fill="#9765D7"/>
<path d="M206 237L230.536 209.895C230.773 209.641 230.928 209.32 230.98 208.973C231.033 208.627 230.98 208.273 230.828 207.959C230.677 207.644 230.435 207.385 230.134 207.215C229.834 207.045 229.489 206.973 229.147 207.009L206 209.057V237Z" fill="#9765D7"/>
<path d="M187 197.961L206.443 209L229.209 207.033C229.478 207.01 229.748 207.046 230 207.139C228.203 206.076 211.546 196.649 210.719 196.206C210.426 196.039 210.085 195.971 209.749 196.011L187 197.961Z" fill="#9765D7"/>
<path opacity="0.5" d="M187 197.961L206.443 209L229.209 207.033C229.478 207.01 229.748 207.046 230 207.139C228.203 206.076 211.546 196.649 210.719 196.206C210.426 196.039 210.085 195.971 209.749 196.011L187 197.961Z" fill="white"/>
<path d="M206 175.145C205.884 173.134 205.3 171.179 204.294 169.435C203.289 167.691 201.89 166.208 200.21 165.104L195.504 162.395C193.714 161.478 191.733 161 189.722 161C187.712 161 185.731 161.478 183.941 162.395L111.772 204.238C110.09 205.335 108.691 206.815 107.688 208.556C106.685 210.298 106.107 212.253 106 214.261V293.857C106.104 295.868 106.681 297.826 107.684 299.572C108.687 301.317 110.088 302.799 111.772 303.898L116.478 306.625C118.272 307.529 120.251 308 122.259 308C124.267 308 126.247 307.529 128.04 306.625L200.21 264.782C201.896 263.684 203.3 262.202 204.306 260.457C205.312 258.712 205.893 256.753 206 254.741V175.145Z" fill="#9765D7"/>
<path opacity="0.2" d="M106 293.924C106.108 295.926 106.712 297.876 107.76 299.613C108.809 301.351 110.273 302.826 112.033 303.92L116.952 306.635C118.656 307.448 120.521 307.909 122.425 307.988C124.328 308.067 126.228 307.762 128 307.094C125.156 308.121 123.004 306.58 123.004 303.297V224.059C123.077 222.051 123.686 220.094 124.772 218.373L107.768 209C106.681 210.721 106.073 212.678 106 214.686V293.924Z" fill="black"/>
<path opacity="0.5" d="M206 173.497C205.339 171.026 203.098 170.251 200.49 171.782L128.313 213.684C126.602 214.741 125.196 216.229 124.235 218L108 208.594C108.96 206.823 110.357 205.33 112.059 204.26L184.163 162.376C185.955 161.471 187.933 161 189.939 161C191.945 161 193.923 161.471 195.715 162.376L200.435 165.106C201.882 166.051 203.122 167.283 204.079 168.726C205.036 170.168 205.69 171.792 206 173.497Z" fill="white"/>
<path d="M149.123 219.955L155.667 216.171V221.007L162.228 217.224V227.541L168.772 223.739V213.421L175.333 209.638V204.802L181.895 201V205.854L188.438 202.052V212.369L195 208.586V223.739L188.438 227.541V235.108L181.895 238.91V246.478L175.333 250.28V257.847L168.772 261.649L168.79 269.216L162.228 273V265.433L155.667 269.216V261.649L149.123 265.433V257.847L142.562 261.649V254.063L136 257.847V242.694L142.562 238.91V228.593L149.123 224.791V219.955Z" fill="white"/>
</svg>
