<svg width="447" height="474" viewBox="0 0 447 474" fill="none" xmlns="http://www.w3.org/2000/svg">
<path d="M223.3 446.6C346.625 446.6 446.6 346.625 446.6 223.3C446.6 99.9748 346.625 0 223.3 0C99.9748 0 0 99.9748 0 223.3C0 346.625 99.9748 446.6 223.3 446.6Z" fill="url(#paint0_linear)"/>
<path d="M165 301.34V463.69C199.9 476.05 233.84 477.88 266.31 463.69V302L165 301.34Z" fill="url(#paint1_linear)"/>
<path d="M165 301.34V463.69C199.9 476.05 233.84 477.88 266.31 463.69V302L165 301.34Z" fill="url(#paint2_linear)"/>
<path d="M140.33 160.25C139 162.92 77.5202 305.25 217.19 312.62C356.86 319.99 294 154.23 294 154.23L140.33 160.25Z" fill="url(#paint3_linear)"/>
<path d="M140.33 160.25C139 162.92 77.5202 305.25 217.19 312.62C356.86 319.99 294 154.23 294 154.23L140.33 160.25Z" fill="url(#paint4_linear)"/>
<g style="mix-blend-mode:multiply">
<g style="mix-blend-mode:multiply">
<g style="mix-blend-mode:multiply">
<path d="M328.209 144.858L334.835 132.111H338.637L329.883 148.032V157.5H326.535V148.032L317.782 132.111H321.618L328.209 144.858Z" fill="#871554"/>
</g>
</g>
<g style="mix-blend-mode:multiply">
<g style="mix-blend-mode:multiply">
<path d="M288.6 177.401L294.685 167.671H298.626L290.605 180.261L298.818 193.06H294.842L288.6 183.156L282.322 193.06H278.364L286.594 180.261L278.556 167.671H282.479L288.6 177.401Z" fill="#871554"/>
</g>
</g>
<g style="mix-blend-mode:multiply">
<g style="mix-blend-mode:multiply">
<path d="M334.478 218.313H323.502L321.037 225.15H317.474L327.478 198.952H330.501L340.523 225.15H336.979L334.478 218.313ZM324.545 215.47H333.452L328.99 203.216L324.545 215.47Z" fill="#871554"/>
</g>
</g>
<g style="mix-blend-mode:multiply">
<g style="mix-blend-mode:multiply">
<path d="M362.665 192.8V165.969H371.436C374.348 165.969 376.535 166.571 377.997 167.775C379.471 168.978 380.208 170.76 380.208 173.119C380.208 174.372 379.852 175.484 379.139 176.454C378.427 177.412 377.456 178.156 376.228 178.684C377.678 179.089 378.82 179.863 379.655 181.006C380.503 182.136 380.927 183.488 380.927 185.06C380.927 187.468 380.147 189.36 378.587 190.736C377.026 192.112 374.821 192.8 371.971 192.8H362.665ZM366.203 180.25V189.907H372.045C373.691 189.907 374.987 189.483 375.933 188.635C376.891 187.775 377.37 186.596 377.37 185.097C377.37 181.866 375.614 180.25 372.1 180.25H366.203ZM366.203 177.412H371.547C373.095 177.412 374.33 177.025 375.251 176.252C376.185 175.478 376.652 174.427 376.652 173.1C376.652 171.626 376.222 170.557 375.362 169.894C374.502 169.218 373.193 168.88 371.436 168.88H366.203V177.412Z" fill="#871554"/>
</g>
</g>
</g>
<path d="M426.29 242.83L386.49 142.49C385.78 140.742 384.944 139.048 383.99 137.42C380.177 123.141 372.493 110.193 361.785 100.007C351.077 89.8204 337.762 82.7913 323.31 79.6957C308.859 76.6002 293.833 77.5586 279.892 82.4652C265.951 87.3718 253.637 96.0356 244.31 107.5L154.37 119.5C142.362 110.888 128.209 105.761 113.471 104.685C98.7338 103.608 83.9855 106.625 70.8539 113.4C57.7223 120.176 46.7179 130.448 39.0552 143.083C31.3926 155.717 27.3695 170.223 27.43 185C26.9311 186.817 26.5701 188.669 26.35 190.54L14.26 297.83C11.74 320.18 27.76 343.97 49.86 350.7L60.51 353.93C82.61 360.65 109.41 349.83 120.07 329.88L170.91 234.72C171.24 234.12 171.48 233.51 171.77 232.9C173.478 230.613 175.067 228.24 176.53 225.79L250.8 215.87C252.854 217.851 255.01 219.724 257.26 221.48C257.69 222 258.09 222.48 258.57 223.02L332.57 301.52C348.09 317.97 376.79 321.38 396.36 309.1L405.78 303.19C425.36 290.9 434.58 263.74 426.29 242.83Z" fill="url(#paint5_radial)"/>
<path d="M426.29 242.83L386.49 142.49C385.78 140.742 384.944 139.048 383.99 137.42C380.177 123.141 372.493 110.193 361.785 100.007C351.077 89.8204 337.762 82.7913 323.31 79.6957C308.859 76.6002 293.833 77.5586 279.892 82.4652C265.951 87.3718 253.637 96.0356 244.31 107.5L154.37 119.5C142.362 110.888 128.209 105.761 113.471 104.685C98.7338 103.608 83.9855 106.625 70.8539 113.4C57.7223 120.176 46.7179 130.448 39.0552 143.083C31.3926 155.717 27.3695 170.223 27.43 185C26.9311 186.817 26.5701 188.669 26.35 190.54L14.26 297.83C11.74 320.18 27.76 343.97 49.86 350.7L60.51 353.93C82.61 360.65 109.41 349.83 120.07 329.88L170.91 234.72C171.24 234.12 171.48 233.51 171.77 232.9C173.478 230.613 175.067 228.24 176.53 225.79L250.8 215.87C252.854 217.851 255.01 219.724 257.26 221.48C257.69 222 258.09 222.48 258.57 223.02L332.57 301.52C348.09 317.97 376.79 321.38 396.36 309.1L405.78 303.19C425.36 290.9 434.58 263.74 426.29 242.83Z" fill="url(#paint6_linear)"/>
<path d="M157 178.06C158.304 187.83 156.681 197.768 152.337 206.616C147.992 215.465 141.122 222.826 132.594 227.77C124.066 232.713 114.264 235.017 104.427 234.39C94.5899 233.763 85.1595 230.233 77.3285 224.247C69.4975 218.26 63.6175 210.086 60.4321 200.758C57.2466 191.429 56.8987 181.366 59.4325 171.84C61.9662 162.314 67.2677 153.754 74.6666 147.241C82.0656 140.728 91.2296 136.555 101 135.25C107.488 134.383 114.083 134.803 120.409 136.486C126.735 138.168 132.667 141.081 137.867 145.056C143.067 149.031 147.433 153.992 150.716 159.655C153.999 165.318 156.134 171.572 157 178.06Z" fill="url(#paint7_linear)"/>
<path d="M121 189.88C121.189 191.435 120.762 193.002 119.811 194.246C118.86 195.491 117.46 196.314 115.91 196.54L102.84 198.29C101.284 198.479 99.7156 198.05 98.4709 197.097C97.2262 196.144 96.404 194.742 96.1802 193.19L94.4002 180.13C94.2089 178.572 94.6357 177.001 95.5891 175.754C96.5425 174.507 97.9466 173.684 99.5002 173.46L112.56 171.72C114.118 171.529 115.689 171.956 116.936 172.909C118.183 173.862 119.006 175.266 119.23 176.82L121 189.88Z" fill="#E0DBFB"/>
<path d="M117.05 160.49C117.238 162.046 116.81 163.615 115.857 164.859C114.904 166.104 113.501 166.926 111.95 167.15L98.8898 168.89C97.3334 169.081 95.7638 168.656 94.5172 167.705C93.2706 166.753 92.4459 165.352 92.2198 163.8L90.4798 150.74C90.2885 149.182 90.7153 147.611 91.6687 146.364C92.6221 145.117 94.0262 144.294 95.5798 144.07L108.64 142.32C110.196 142.131 111.764 142.56 113.009 143.513C114.254 144.466 115.076 145.868 115.3 147.42L117.05 160.49Z" fill="#E0DBFB"/>
<path d="M124.89 219.28C125.078 220.835 124.652 222.402 123.701 223.646C122.75 224.891 121.35 225.714 119.8 225.94L106.74 227.68C105.183 227.871 103.614 227.446 102.367 226.495C101.121 225.543 100.296 224.142 100.07 222.59L98.3298 209.53C98.1222 207.971 98.5415 206.393 99.4958 205.143C100.45 203.892 101.861 203.071 103.42 202.86L116.49 201.11C118.046 200.921 119.614 201.35 120.859 202.303C122.104 203.256 122.926 204.658 123.15 206.21L124.89 219.28Z" fill="#E0DBFB"/>
<path d="M132.2 194.36C130.642 194.565 129.067 194.144 127.819 193.19C126.571 192.236 125.751 190.827 125.54 189.27L123.8 176.21C123.608 174.654 124.034 173.084 124.985 171.837C125.936 170.591 127.338 169.766 128.89 169.54L142 167.8C143.556 167.609 145.126 168.034 146.372 168.985C147.619 169.937 148.444 171.338 148.67 172.89L150.36 186C150.565 187.558 150.144 189.133 149.19 190.381C148.236 191.629 146.826 192.449 145.27 192.66L132.2 194.36Z" fill="#E0DBFB"/>
<path d="M73.4098 202.21C71.8549 202.399 70.288 201.972 69.0435 201.021C67.7991 200.07 66.9759 198.67 66.7498 197.12L64.9998 184.05C64.8111 182.495 65.2378 180.928 66.1889 179.684C67.14 178.439 68.5399 177.616 70.0898 177.39L83.1498 175.64C84.7077 175.449 86.2786 175.875 87.5255 176.829C88.7724 177.782 89.596 179.186 89.8198 180.74L91.5598 193.8C91.7673 195.359 91.348 196.937 90.3938 198.187C89.4396 199.438 88.0284 200.259 86.4698 200.47L73.4098 202.21Z" fill="#E0DBFB"/>
<path d="M257.11 164.85C258.415 174.62 262.588 183.784 269.101 191.183C275.614 198.582 284.174 203.884 293.7 206.417C303.226 208.951 313.29 208.603 322.618 205.418C331.946 202.232 340.12 196.352 346.107 188.521C352.093 180.69 355.623 171.26 356.25 161.423C356.878 151.586 354.574 141.784 349.63 133.256C344.686 124.728 337.325 117.858 328.477 113.513C319.628 109.169 309.691 107.546 299.92 108.85C293.432 109.716 287.178 111.851 281.515 115.134C275.852 118.417 270.891 122.783 266.916 127.983C262.941 133.183 260.029 139.115 258.346 145.441C256.664 151.767 256.244 158.362 257.11 164.85Z" fill="url(#paint8_linear)"/>
<path d="M320.91 156.09C321.292 158.944 320.819 161.848 319.551 164.434C318.283 167.019 316.276 169.17 313.786 170.616C311.295 172.061 308.431 172.735 305.557 172.553C302.683 172.37 299.928 171.34 297.639 169.591C295.351 167.843 293.632 165.455 292.701 162.73C291.77 160.005 291.668 157.065 292.408 154.282C293.147 151.498 294.696 148.997 296.857 147.094C299.019 145.191 301.696 143.972 304.55 143.59C308.377 143.079 312.251 144.108 315.319 146.452C318.387 148.796 320.398 152.263 320.91 156.09Z" fill="#9B9B9A"/>
<path d="M312.86 124.83C313.141 126.931 312.792 129.068 311.858 130.971C310.924 132.874 309.446 134.456 307.611 135.518C305.777 136.581 303.668 137.075 301.553 136.938C299.438 136.801 297.411 136.039 295.728 134.75C294.046 133.46 292.784 131.7 292.103 129.693C291.422 127.685 291.351 125.521 291.901 123.474C292.45 121.426 293.595 119.588 295.19 118.192C296.785 116.796 298.758 115.904 300.86 115.63C303.671 115.264 306.512 116.026 308.761 117.751C311.01 119.475 312.484 122.021 312.86 124.83Z" fill="#6BF2A8"/>
<path d="M321.4 188.85C321.681 190.951 321.332 193.088 320.398 194.991C319.464 196.894 317.986 198.476 316.151 199.539C314.317 200.601 312.208 201.095 310.093 200.958C307.978 200.821 305.951 200.059 304.268 198.77C302.586 197.48 301.324 195.72 300.643 193.713C299.962 191.705 299.891 189.541 300.441 187.494C300.99 185.446 302.135 183.608 303.73 182.212C305.325 180.816 307.298 179.924 309.4 179.65C312.211 179.284 315.052 180.046 317.301 181.771C319.55 183.495 321.024 186.041 321.4 188.85Z" fill="#FCD35D"/>
<path d="M339.94 164.6C337.839 164.881 335.702 164.532 333.799 163.598C331.896 162.664 330.314 161.186 329.252 159.351C328.189 157.517 327.696 155.408 327.832 153.293C327.969 151.178 328.731 149.151 330.021 147.468C331.31 145.786 333.07 144.524 335.077 143.843C337.085 143.162 339.249 143.091 341.296 143.641C343.344 144.19 345.182 145.335 346.578 146.93C347.975 148.525 348.866 150.498 349.14 152.6C349.507 155.411 348.744 158.252 347.02 160.501C345.295 162.75 342.749 164.224 339.94 164.6Z" fill="#FA5251"/>
<path d="M275.92 173.14C273.819 173.421 271.682 173.072 269.779 172.138C267.876 171.203 266.294 169.726 265.232 167.891C264.169 166.057 263.676 163.948 263.812 161.833C263.949 159.718 264.711 157.69 266.001 156.008C267.29 154.326 269.05 153.064 271.057 152.383C273.065 151.701 275.229 151.631 277.276 152.181C279.324 152.73 281.162 153.875 282.558 155.47C283.955 157.065 284.846 159.038 285.12 161.14C285.304 162.532 285.212 163.947 284.85 165.303C284.487 166.66 283.86 167.931 283.006 169.046C282.152 170.16 281.086 171.095 279.87 171.798C278.655 172.5 277.312 172.956 275.92 173.14Z" fill="#53C6C9"/>
<path d="M221.97 147.081L191.202 151.186C188.46 151.552 186.533 154.072 186.899 156.815L186.99 157.499C187.356 160.241 189.876 162.168 192.619 161.802L223.386 157.697C226.129 157.331 228.055 154.811 227.689 152.068L227.598 151.384C227.232 148.642 224.712 146.715 221.97 147.081Z" fill="#518BFF"/>
<path d="M225.291 171.894L194.524 175.999C191.781 176.365 189.855 178.885 190.221 181.628L190.312 182.312C190.678 185.054 193.198 186.981 195.941 186.615L226.708 182.51C229.451 182.144 231.377 179.624 231.011 176.881L230.92 176.197C230.554 173.455 228.034 171.528 225.291 171.894Z" fill="#518BFF"/>
<path d="M140.46 239.39C141.142 244.499 143.324 249.291 146.73 253.16C150.135 257.028 154.612 259.8 159.593 261.125C164.574 262.45 169.836 262.268 174.714 260.602C179.591 258.936 183.865 255.861 186.995 251.766C190.125 247.671 191.971 242.74 192.298 237.596C192.625 232.452 191.42 227.327 188.835 222.868C186.249 218.409 182.399 214.817 177.772 212.546C173.145 210.275 167.949 209.427 162.84 210.11C159.445 210.556 156.171 211.667 153.207 213.382C150.242 215.096 147.646 217.379 145.566 220.1C143.487 222.821 141.965 225.925 141.089 229.236C140.213 232.546 139.999 235.997 140.46 239.39Z" fill="url(#paint9_linear)"/>
<path d="M151.81 237.88C152.194 240.744 153.418 243.43 155.328 245.598C157.238 247.767 159.749 249.32 162.542 250.061C165.334 250.803 168.284 250.7 171.019 249.765C173.753 248.829 176.148 247.105 177.902 244.808C179.656 242.512 180.689 239.747 180.872 236.863C181.054 233.979 180.377 231.106 178.927 228.606C177.476 226.107 175.317 224.094 172.722 222.822C170.128 221.55 167.214 221.076 164.35 221.46C162.448 221.714 160.615 222.34 158.955 223.302C157.295 224.265 155.841 225.546 154.676 227.071C153.512 228.596 152.659 230.335 152.167 232.19C151.676 234.045 151.554 235.978 151.81 237.88Z" fill="#C8C3DD"/>
<path d="M325.76 213.1C316.99 197.77 299.18 187.1 281.45 187.1C247.58 187.1 229.08 197.35 223.54 206.1C222.42 208.083 221.87 210.338 221.951 212.615C222.032 214.892 222.741 217.101 224 219C224.08 219.14 224.18 219.27 224.28 219.41L250.85 215.86C252.904 217.841 255.061 219.714 257.31 221.47C257.74 221.99 258.14 222.47 258.62 223.01L261.62 226.2L262.81 226.02L276.1 223.82L266.1 231L317.84 285.86C321.003 281.461 323.596 276.679 325.56 271.63C332.08 254.99 335.3 234.55 328.05 217.63C327.37 216.079 326.606 214.567 325.76 213.1Z" fill="url(#paint10_linear)"/>
<g style="mix-blend-mode:multiply" opacity="0.5">
<path style="mix-blend-mode:multiply" opacity="0.5" d="M163.35 102.57H162.48C153.356 102.57 145.96 109.966 145.96 119.09V160.49C145.96 169.614 153.356 177.01 162.48 177.01H163.35C172.474 177.01 179.87 169.614 179.87 160.49V119.09C179.87 109.966 172.474 102.57 163.35 102.57Z" fill="url(#paint11_linear)"/>
<path style="mix-blend-mode:multiply" opacity="0.5" d="M163.35 102.57H162.48C153.356 102.57 145.96 109.966 145.96 119.09V160.49C145.96 169.614 153.356 177.01 162.48 177.01H163.35C172.474 177.01 179.87 169.614 179.87 160.49V119.09C179.87 109.966 172.474 102.57 163.35 102.57Z" fill="url(#paint12_linear)"/>
<path style="mix-blend-mode:multiply" opacity="0.5" d="M198.71 87.1702C203.336 87.1834 207.77 89.0271 211.041 92.2987C214.313 95.5702 216.157 100.004 216.17 104.63V148.37C216.157 152.997 214.313 157.43 211.041 160.702C207.77 163.973 203.336 165.817 198.71 165.83H197.8C193.173 165.817 188.74 163.973 185.468 160.702C182.197 157.43 180.353 152.997 180.34 148.37V104.63C180.353 100.004 182.197 95.5702 185.468 92.2987C188.74 89.0271 193.173 87.1834 197.8 87.1702H198.71Z" fill="url(#paint13_linear)"/>
<path style="mix-blend-mode:multiply" opacity="0.5" d="M198.71 87.1702C203.336 87.1834 207.77 89.0271 211.041 92.2987C214.313 95.5702 216.157 100.004 216.17 104.63V148.37C216.157 152.997 214.313 157.43 211.041 160.702C207.77 163.973 203.336 165.817 198.71 165.83H197.8C193.173 165.817 188.74 163.973 185.468 160.702C182.197 157.43 180.353 152.997 180.34 148.37V104.63C180.353 100.004 182.197 95.5702 185.468 92.2987C188.74 89.0271 193.173 87.1834 197.8 87.1702H198.71Z" fill="url(#paint14_linear)"/>
<path style="mix-blend-mode:multiply" opacity="0.5" d="M235.9 78.3201C240.872 78.3333 245.636 80.314 249.151 83.8293C252.666 87.3446 254.647 92.1087 254.66 97.0801V144.08C254.647 149.051 252.666 153.815 249.151 157.331C245.636 160.846 240.872 162.827 235.9 162.84H234.9C229.929 162.827 225.165 160.846 221.649 157.331C218.134 153.815 216.153 149.051 216.14 144.08V97.0801C216.153 92.1087 218.134 87.3446 221.649 83.8293C225.165 80.314 229.929 78.3333 234.9 78.3201H235.9Z" fill="url(#paint15_linear)"/>
<path style="mix-blend-mode:multiply" opacity="0.5" d="M235.9 78.3201C240.872 78.3333 245.636 80.314 249.151 83.8293C252.666 87.3446 254.647 92.1087 254.66 97.0801V144.08C254.647 149.051 252.666 153.815 249.151 157.331C245.636 160.846 240.872 162.827 235.9 162.84H234.9C229.929 162.827 225.165 160.846 221.649 157.331C218.134 153.815 216.153 149.051 216.14 144.08V97.0801C216.153 92.1087 218.134 87.3446 221.649 83.8293C225.165 80.314 229.929 78.3333 234.9 78.3201H235.9Z" fill="url(#paint16_linear)"/>
<path style="mix-blend-mode:multiply" opacity="0.5" d="M285.4 83.6101H284.44C274.41 83.6101 266.28 91.7406 266.28 101.77V147.28C266.28 157.31 274.41 165.44 284.44 165.44H285.4C295.429 165.44 303.56 157.31 303.56 147.28V101.77C303.56 91.7406 295.429 83.6101 285.4 83.6101Z" fill="url(#paint17_linear)"/>
<path style="mix-blend-mode:multiply" opacity="0.5" d="M285.4 83.6101H284.44C274.41 83.6101 266.28 91.7406 266.28 101.77V147.28C266.28 157.31 274.41 165.44 284.44 165.44H285.4C295.429 165.44 303.56 157.31 303.56 147.28V101.77C303.56 91.7406 295.429 83.6101 285.4 83.6101Z" fill="url(#paint18_linear)"/>
</g>
<path d="M305.29 215.45C304.619 213.884 303.858 212.358 303.01 210.88C294.24 195.55 276.43 184.88 258.7 184.88C224.83 184.88 206.33 195.13 200.79 203.88C199.666 205.857 199.11 208.105 199.182 210.378C199.254 212.65 199.953 214.859 201.2 216.76C204.2 221.28 213.2 228.2 240.01 223.76L253.3 221.56L242.38 229.44C240.83 230.56 204.49 257.66 222.53 307.36C223.065 308.858 223.734 310.304 224.53 311.68H225.39C225.5 312.04 225.61 312.4 225.73 312.76C258.23 313.07 290.2 301.5 302.79 269.35C309.32 252.78 312.54 232.34 305.29 215.45Z" fill="url(#paint19_linear)"/>
<path d="M305.29 215.45C304.619 213.884 303.858 212.358 303.01 210.88C294.24 195.55 276.43 184.88 258.7 184.88C224.83 184.88 206.33 195.13 200.79 203.88C199.666 205.857 199.11 208.105 199.182 210.378C199.254 212.65 199.953 214.859 201.2 216.76C204.2 221.28 213.2 228.2 240.01 223.76L253.3 221.56L242.38 229.44C240.83 230.56 204.49 257.66 222.53 307.36C223.065 308.858 223.734 310.304 224.53 311.68H225.39C225.5 312.04 225.61 312.4 225.73 312.76C258.23 313.07 290.2 301.5 302.79 269.35C309.32 252.78 312.54 232.34 305.29 215.45Z" fill="url(#paint20_linear)"/>
<path d="M157.36 83.5701H156.49C147.366 83.5701 139.97 90.9663 139.97 100.09V141.49C139.97 150.614 147.366 158.01 156.49 158.01H157.36C166.484 158.01 173.88 150.614 173.88 141.49V100.09C173.88 90.9663 166.484 83.5701 157.36 83.5701Z" fill="url(#paint21_linear)"/>
<path d="M157.36 83.5701H156.49C147.366 83.5701 139.97 90.9663 139.97 100.09V141.49C139.97 150.614 147.366 158.01 156.49 158.01H157.36C166.484 158.01 173.88 150.614 173.88 141.49V100.09C173.88 90.9663 166.484 83.5701 157.36 83.5701Z" fill="url(#paint22_linear)"/>
<path d="M192.72 68.1699C197.345 68.1858 201.776 70.0307 205.045 73.3019C208.314 76.5732 210.157 81.005 210.17 85.6299V129.37C210.157 133.995 208.314 138.427 205.045 141.698C201.776 144.969 197.345 146.814 192.72 146.83H191.8C187.174 146.814 182.742 144.969 179.471 141.699C176.2 138.428 174.356 133.996 174.34 129.37V85.6299C174.356 81.0041 176.2 76.5723 179.471 73.3013C182.742 70.0303 187.174 68.1857 191.8 68.1699H192.72Z" fill="url(#paint23_linear)"/>
<path d="M192.72 68.1699C197.345 68.1858 201.776 70.0307 205.045 73.3019C208.314 76.5732 210.157 81.005 210.17 85.6299V129.37C210.157 133.995 208.314 138.427 205.045 141.698C201.776 144.969 197.345 146.814 192.72 146.83H191.8C187.174 146.814 182.742 144.969 179.471 141.699C176.2 138.428 174.356 133.996 174.34 129.37V85.6299C174.356 81.0041 176.2 76.5723 179.471 73.3013C182.742 70.0303 187.174 68.1857 191.8 68.1699H192.72Z" fill="url(#paint24_linear)"/>
<path d="M229.9 59.3101C234.873 59.3259 239.638 61.3085 243.155 64.8251C246.672 68.3418 248.654 73.1068 248.67 78.0801V125.08C248.654 130.052 246.671 134.816 243.154 138.331C239.638 141.846 234.872 143.827 229.9 143.84H228.9C223.929 143.827 219.165 141.846 215.649 138.331C212.134 134.815 210.153 130.051 210.14 125.08V78.0801C210.153 73.1077 212.134 68.3427 215.649 64.8258C219.164 61.3088 223.928 59.3259 228.9 59.3101H229.9Z" fill="url(#paint25_linear)"/>
<path d="M229.9 59.3101C234.873 59.3259 239.638 61.3085 243.155 64.8251C246.672 68.3418 248.654 73.1068 248.67 78.0801V125.08C248.654 130.052 246.671 134.816 243.154 138.331C239.638 141.846 234.872 143.827 229.9 143.84H228.9C223.929 143.827 219.165 141.846 215.649 138.331C212.134 134.815 210.153 130.051 210.14 125.08V78.0801C210.153 73.1077 212.134 68.3427 215.649 64.8258C219.164 61.3088 223.928 59.3259 228.9 59.3101H229.9Z" fill="url(#paint26_linear)"/>
<path d="M279.41 64.6101H278.45C268.421 64.6101 260.29 72.7406 260.29 82.7701V128.28C260.29 138.31 268.421 146.44 278.45 146.44H279.41C289.44 146.44 297.57 138.31 297.57 128.28V82.7701C297.57 72.7406 289.44 64.6101 279.41 64.6101Z" fill="url(#paint27_linear)"/>
<path d="M279.41 64.6101H278.45C268.421 64.6101 260.29 72.7406 260.29 82.7701V128.28C260.29 138.31 268.421 146.44 278.45 146.44H279.41C289.44 146.44 297.57 138.31 297.57 128.28V82.7701C297.57 72.7406 289.44 64.6101 279.41 64.6101Z" fill="url(#paint28_linear)"/>
<defs>
<linearGradient id="paint0_linear" x1="208.72" y1="582.24" x2="223.85" y2="209.66" gradientUnits="userSpaceOnUse">
<stop stop-color="#3856DA"/>
<stop offset="0.21" stop-color="#3856DA" stop-opacity="0.71"/>
<stop offset="0.41" stop-color="#3856DA" stop-opacity="0.45"/>
<stop offset="0.59" stop-color="#3856DA" stop-opacity="0.26"/>
<stop offset="0.76" stop-color="#3856DA" stop-opacity="0.12"/>
<stop offset="0.9" stop-color="#3856DA" stop-opacity="0.03"/>
<stop offset="1" stop-color="#3856DA" stop-opacity="0"/>
</linearGradient>
<linearGradient id="paint1_linear" x1="215.63" y1="509.59" x2="215.63" y2="273.18" gradientUnits="userSpaceOnUse">
<stop stop-color="#FDE3E2"/>
<stop offset="1" stop-color="#ED827E"/>
</linearGradient>
<linearGradient id="paint2_linear" x1="21417.8" y1="90780.4" x2="24736.8" y2="43203" gradientUnits="userSpaceOnUse">
<stop stop-color="#3856DA"/>
<stop offset="0.21" stop-color="#3856DA" stop-opacity="0.71"/>
<stop offset="0.41" stop-color="#3856DA" stop-opacity="0.45"/>
<stop offset="0.59" stop-color="#3856DA" stop-opacity="0.26"/>
<stop offset="0.76" stop-color="#3856DA" stop-opacity="0.12"/>
<stop offset="0.9" stop-color="#3856DA" stop-opacity="0.03"/>
<stop offset="1" stop-color="#3856DA" stop-opacity="0"/>
</linearGradient>
<linearGradient id="paint3_linear" x1="39688.5" y1="56943.3" x2="39688.5" y2="40457" gradientUnits="userSpaceOnUse">
<stop stop-color="#FDE3E2"/>
<stop offset="1" stop-color="#ED827E"/>
</linearGradient>
<linearGradient id="paint4_linear" x1="41322.7" y1="71602.2" x2="39935.6" y2="32108.6" gradientUnits="userSpaceOnUse">
<stop stop-color="#3856DA"/>
<stop offset="0.21" stop-color="#3856DA" stop-opacity="0.71"/>
<stop offset="0.41" stop-color="#3856DA" stop-opacity="0.45"/>
<stop offset="0.59" stop-color="#3856DA" stop-opacity="0.26"/>
<stop offset="0.76" stop-color="#3856DA" stop-opacity="0.12"/>
<stop offset="0.9" stop-color="#3856DA" stop-opacity="0.03"/>
<stop offset="1" stop-color="#3856DA" stop-opacity="0"/>
</linearGradient>
<radialGradient id="paint5_radial" cx="0" cy="0" r="1" gradientUnits="userSpaceOnUse" gradientTransform="translate(171.56 25.5006) rotate(-7.48089) scale(362.974)">
<stop stop-color="#E4DEFF"/>
<stop offset="0.28" stop-color="#E2DCFD"/>
<stop offset="0.44" stop-color="#DBD6F4"/>
<stop offset="0.57" stop-color="#D0CBE7"/>
<stop offset="0.68" stop-color="#C0BBD3"/>
<stop offset="0.79" stop-color="#ABA7B9"/>
<stop offset="0.88" stop-color="#918F9A"/>
<stop offset="0.97" stop-color="#727275"/>
<stop offset="1" stop-color="#666666"/>
</radialGradient>
<linearGradient id="paint6_linear" x1="92081.8" y1="112757" x2="92081.8" y2="55885.2" gradientUnits="userSpaceOnUse">
<stop stop-color="#3856DA"/>
<stop offset="0.21" stop-color="#3856DA" stop-opacity="0.71"/>
<stop offset="0.41" stop-color="#3856DA" stop-opacity="0.45"/>
<stop offset="0.59" stop-color="#3856DA" stop-opacity="0.26"/>
<stop offset="0.76" stop-color="#3856DA" stop-opacity="0.12"/>
<stop offset="0.9" stop-color="#3856DA" stop-opacity="0.03"/>
<stop offset="1" stop-color="#3856DA" stop-opacity="0"/>
</linearGradient>
<linearGradient id="paint7_linear" x1="10787.3" y1="40425.5" x2="10787.3" y2="22138.2" gradientUnits="userSpaceOnUse">
<stop stop-color="#E4DEFF"/>
<stop offset="0.28" stop-color="#E2DCFD"/>
<stop offset="0.44" stop-color="#DBD6F4"/>
<stop offset="0.57" stop-color="#D0CBE7"/>
<stop offset="0.68" stop-color="#C0BBD3"/>
<stop offset="0.79" stop-color="#ABA7B9"/>
<stop offset="0.88" stop-color="#918F9A"/>
<stop offset="0.97" stop-color="#727275"/>
<stop offset="1" stop-color="#666666"/>
</linearGradient>
<linearGradient id="paint8_linear" x1="30809.6" y1="38848.1" x2="30809.6" y2="19984.6" gradientUnits="userSpaceOnUse">
<stop stop-color="#E4DEFF"/>
<stop offset="0.28" stop-color="#E2DCFD"/>
<stop offset="0.44" stop-color="#DBD6F4"/>
<stop offset="0.57" stop-color="#D0CBE7"/>
<stop offset="0.68" stop-color="#C0BBD3"/>
<stop offset="0.79" stop-color="#ABA7B9"/>
<stop offset="0.88" stop-color="#918F9A"/>
<stop offset="0.97" stop-color="#727275"/>
<stop offset="1" stop-color="#666666"/>
</linearGradient>
<linearGradient id="paint9_linear" x1="8808.51" y1="19443.2" x2="8808.51" y2="13015.8" gradientUnits="userSpaceOnUse">
<stop stop-color="#E4DEFF"/>
<stop offset="0.28" stop-color="#E2DCFD"/>
<stop offset="0.44" stop-color="#DBD6F4"/>
<stop offset="0.57" stop-color="#D0CBE7"/>
<stop offset="0.68" stop-color="#C0BBD3"/>
<stop offset="0.79" stop-color="#ABA7B9"/>
<stop offset="0.88" stop-color="#918F9A"/>
<stop offset="0.97" stop-color="#727275"/>
<stop offset="1" stop-color="#666666"/>
</linearGradient>
<linearGradient id="paint10_linear" x1="273.96" y1="318.76" x2="280.07" y2="135.66" gradientUnits="userSpaceOnUse">
<stop stop-color="#3E3B32" stop-opacity="0"/>
<stop offset="0.96" stop-color="#050504" stop-opacity="0.92"/>
<stop offset="1"/>
</linearGradient>
<linearGradient id="paint11_linear" x1="6489.84" y1="16169" x2="2130.29" y2="9918.42" gradientUnits="userSpaceOnUse">
<stop stop-color="#3E3B32" stop-opacity="0"/>
<stop offset="0.96" stop-color="#050504" stop-opacity="0.92"/>
<stop offset="1"/>
</linearGradient>
<linearGradient id="paint12_linear" x1="6489.84" y1="16169" x2="2130.29" y2="9918.42" gradientUnits="userSpaceOnUse">
<stop stop-color="#3E3B32" stop-opacity="0"/>
<stop offset="0.96" stop-color="#050504" stop-opacity="0.92"/>
<stop offset="1"/>
</linearGradient>
<linearGradient id="paint13_linear" x1="8170.79" y1="16166.1" x2="3564.19" y2="9562.33" gradientUnits="userSpaceOnUse">
<stop stop-color="#3E3B32" stop-opacity="0"/>
<stop offset="0.96" stop-color="#050504" stop-opacity="0.92"/>
<stop offset="1"/>
</linearGradient>
<linearGradient id="paint14_linear" x1="8170.79" y1="16166.1" x2="3564.19" y2="9562.33" gradientUnits="userSpaceOnUse">
<stop stop-color="#3E3B32" stop-opacity="0"/>
<stop offset="0.96" stop-color="#050504" stop-opacity="0.92"/>
<stop offset="1"/>
</linearGradient>
<linearGradient id="paint15_linear" x1="10172" y1="16403.4" x2="5222.95" y2="9304.24" gradientUnits="userSpaceOnUse">
<stop stop-color="#3E3B32" stop-opacity="0"/>
<stop offset="0.96" stop-color="#050504" stop-opacity="0.92"/>
<stop offset="1"/>
</linearGradient>
<linearGradient id="paint16_linear" x1="10172" y1="16403.4" x2="5222.95" y2="9304.24" gradientUnits="userSpaceOnUse">
<stop stop-color="#3E3B32" stop-opacity="0"/>
<stop offset="0.96" stop-color="#050504" stop-opacity="0.92"/>
<stop offset="1"/>
</linearGradient>
<linearGradient id="paint17_linear" x1="11536" y1="14749.2" x2="6743.84" y2="7877.7" gradientUnits="userSpaceOnUse">
<stop stop-color="#3E3B32" stop-opacity="0"/>
<stop offset="0.96" stop-color="#050504" stop-opacity="0.92"/>
<stop offset="1"/>
</linearGradient>
<linearGradient id="paint18_linear" x1="11536" y1="14749.2" x2="6743.84" y2="7877.7" gradientUnits="userSpaceOnUse">
<stop stop-color="#3E3B32" stop-opacity="0"/>
<stop offset="0.96" stop-color="#050504" stop-opacity="0.92"/>
<stop offset="1"/>
</linearGradient>
<linearGradient id="paint19_linear" x1="29399.2" y1="39463.8" x2="27066" y2="23231.7" gradientUnits="userSpaceOnUse">
<stop stop-color="#FDE3E2"/>
<stop offset="1" stop-color="#ED827E"/>
</linearGradient>
<linearGradient id="paint20_linear" x1="40145" y1="60618.7" x2="20651.2" y2="24587.6" gradientUnits="userSpaceOnUse">
<stop stop-color="#3856DA"/>
<stop offset="0.21" stop-color="#3856DA" stop-opacity="0.71"/>
<stop offset="0.41" stop-color="#3856DA" stop-opacity="0.45"/>
<stop offset="0.59" stop-color="#3856DA" stop-opacity="0.26"/>
<stop offset="0.76" stop-color="#3856DA" stop-opacity="0.12"/>
<stop offset="0.9" stop-color="#3856DA" stop-opacity="0.03"/>
<stop offset="1" stop-color="#3856DA" stop-opacity="0"/>
</linearGradient>
<linearGradient id="paint21_linear" x1="5447.23" y1="11367.2" x2="5713.4" y2="2403.43" gradientUnits="userSpaceOnUse">
<stop stop-color="#FDE3E2"/>
<stop offset="1" stop-color="#ED827E"/>
</linearGradient>
<linearGradient id="paint22_linear" x1="6082.02" y1="18088.4" x2="2793.78" y2="8181.89" gradientUnits="userSpaceOnUse">
<stop stop-color="#3856DA"/>
<stop offset="0.21" stop-color="#3856DA" stop-opacity="0.71"/>
<stop offset="0.41" stop-color="#3856DA" stop-opacity="0.45"/>
<stop offset="0.59" stop-color="#3856DA" stop-opacity="0.26"/>
<stop offset="0.76" stop-color="#3856DA" stop-opacity="0.12"/>
<stop offset="0.9" stop-color="#3856DA" stop-opacity="0.03"/>
<stop offset="1" stop-color="#3856DA" stop-opacity="0"/>
</linearGradient>
<linearGradient id="paint23_linear" x1="6946.21" y1="10770.6" x2="8921.62" y2="2879.34" gradientUnits="userSpaceOnUse">
<stop stop-color="#FDE3E2"/>
<stop offset="1" stop-color="#ED827E"/>
</linearGradient>
<linearGradient id="paint24_linear" x1="6936.54" y1="13692.1" x2="7537.79" y2="8593.52" gradientUnits="userSpaceOnUse">
<stop stop-color="#3856DA"/>
<stop offset="0.21" stop-color="#3856DA" stop-opacity="0.71"/>
<stop offset="0.41" stop-color="#3856DA" stop-opacity="0.45"/>
<stop offset="0.59" stop-color="#3856DA" stop-opacity="0.26"/>
<stop offset="0.76" stop-color="#3856DA" stop-opacity="0.12"/>
<stop offset="0.9" stop-color="#3856DA" stop-opacity="0.03"/>
<stop offset="1" stop-color="#3856DA" stop-opacity="0"/>
</linearGradient>
<linearGradient id="paint25_linear" x1="9009.24" y1="10754.9" x2="9913.86" y2="818.436" gradientUnits="userSpaceOnUse">
<stop stop-color="#FDE3E2"/>
<stop offset="1" stop-color="#ED827E"/>
</linearGradient>
<linearGradient id="paint26_linear" x1="9285.5" y1="17683.8" x2="8124.25" y2="8447.55" gradientUnits="userSpaceOnUse">
<stop stop-color="#3856DA"/>
<stop offset="0.21" stop-color="#3856DA" stop-opacity="0.71"/>
<stop offset="0.41" stop-color="#3856DA" stop-opacity="0.45"/>
<stop offset="0.59" stop-color="#3856DA" stop-opacity="0.26"/>
<stop offset="0.76" stop-color="#3856DA" stop-opacity="0.12"/>
<stop offset="0.9" stop-color="#3856DA" stop-opacity="0.03"/>
<stop offset="1" stop-color="#3856DA" stop-opacity="0"/>
</linearGradient>
<linearGradient id="paint27_linear" x1="10572.3" y1="10917.7" x2="12573.7" y2="236.049" gradientUnits="userSpaceOnUse">
<stop stop-color="#FDE3E2"/>
<stop offset="1" stop-color="#ED827E"/>
</linearGradient>
<linearGradient id="paint28_linear" x1="10885.8" y1="16883.9" x2="9387.44" y2="5683.39" gradientUnits="userSpaceOnUse">
<stop stop-color="#3856DA"/>
<stop offset="0.21" stop-color="#3856DA" stop-opacity="0.71"/>
<stop offset="0.41" stop-color="#3856DA" stop-opacity="0.45"/>
<stop offset="0.59" stop-color="#3856DA" stop-opacity="0.26"/>
<stop offset="0.76" stop-color="#3856DA" stop-opacity="0.12"/>
<stop offset="0.9" stop-color="#3856DA" stop-opacity="0.03"/>
<stop offset="1" stop-color="#3856DA" stop-opacity="0"/>
</linearGradient>
</defs>
</svg>
